<svg width="170" height="51" viewBox="0 0 170 51" fill="none" xmlns="http://www.w3.org/2000/svg">
<g clip-path="url(#clip0_33_973)">
<path d="M163.704 0H6.2963C2.81895 0 0 2.85418 0 6.375V44.625C0 48.1458 2.81895 51 6.2963 51H163.704C167.181 51 170 48.1458 170 44.625V6.375C170 2.85418 167.181 0 163.704 0Z" fill="white"/>
<path d="M163.704 1.02C165.106 1.02 166.452 1.58419 167.444 2.58844C168.435 3.5927 168.993 4.95477 168.993 6.375V44.625C168.993 46.0452 168.435 47.4073 167.444 48.4116C166.452 49.4158 165.106 49.98 163.704 49.98H6.2963C4.8936 49.98 3.54835 49.4158 2.55649 48.4116C1.56463 47.4073 1.00741 46.0452 1.00741 44.625V6.375C1.00741 4.95477 1.56463 3.5927 2.55649 2.58844C3.54835 1.58419 4.8936 1.02 6.2963 1.02H163.704ZM163.704 0H6.2963C4.62641 0 3.02493 0.67165 1.84414 1.86719C0.663358 3.06274 0 4.68424 0 6.375V44.625C0 46.3158 0.663358 47.9373 1.84414 49.1328C3.02493 50.3284 4.62641 51 6.2963 51H163.704C165.374 51 166.975 50.3284 168.156 49.1328C169.337 47.9373 170 46.3158 170 44.625V6.375C170 4.68424 169.337 3.06274 168.156 1.86719C166.975 0.67165 165.374 0 163.704 0Z" fill="black"/>
<path d="M59.7141 13.0561C59.7348 13.5237 59.6618 13.9907 59.4994 14.4289C59.3371 14.8672 59.0889 15.2676 58.7696 15.6061C58.4119 15.9801 57.9802 16.2733 57.5028 16.4667C57.0254 16.66 56.513 16.7491 55.9993 16.7281C55.4826 16.7398 54.969 16.644 54.4903 16.4466C54.0116 16.2492 53.578 15.9545 53.2163 15.5806C52.4826 14.8207 52.0717 13.8002 52.0717 12.7374C52.0717 11.6746 52.4826 10.6541 53.2163 9.89414C53.7773 9.33912 54.4878 8.96433 55.2585 8.81688C56.0293 8.66943 56.8258 8.75589 57.5482 9.06539C58.0023 9.25439 58.4073 9.54669 58.7319 9.91964L58.0645 10.5954C57.8144 10.2904 57.4975 10.0486 57.139 9.88924C56.7805 9.72989 56.3903 9.65735 55.9993 9.67739C55.5057 9.68085 55.0204 9.80667 54.5859 10.0438C54.1515 10.281 53.781 10.6224 53.5068 11.038C53.2327 11.4536 53.0633 11.9309 53.0134 12.4281C52.9636 12.9254 53.0347 13.4274 53.2207 13.8903C53.4067 14.3533 53.7019 14.763 54.0804 15.0838C54.4589 15.4046 54.9093 15.6266 55.3921 15.7305C55.8749 15.8344 56.3755 15.8169 56.8502 15.6797C57.3248 15.5424 57.759 15.2895 58.1148 14.9431C58.4995 14.5161 58.7225 13.9651 58.7445 13.3876H55.9993V12.4696H59.6637C59.6924 12.6639 59.7092 12.8598 59.7141 13.0561Z" fill="black" stroke="black" stroke-width="0.411304" stroke-miterlimit="10"/>
<path d="M65.4815 9.86855H62.0815V12.291H65.1792V13.209H62.0815V15.6315H65.4815V16.575H61.0992V8.92505H65.4815V9.86855Z" fill="black" stroke="black" stroke-width="0.411304" stroke-miterlimit="10"/>
<path d="M69.6119 16.575H68.6422V9.86855H66.5267V8.92505H71.7778V9.86855H69.6119V16.575Z" fill="black" stroke="black" stroke-width="0.411304" stroke-miterlimit="10"/>
<path d="M75.48 16.575V8.92505H76.4496V16.575H75.48Z" fill="black" stroke="black" stroke-width="0.411304" stroke-miterlimit="10"/>
<path d="M80.7563 16.575H79.7866V9.86855H77.6711V8.92505H82.8592V9.86855H80.7563V16.575Z" fill="black" stroke="black" stroke-width="0.411304" stroke-miterlimit="10"/>
<path d="M92.6941 15.5803C92.3304 15.9489 91.8985 16.2413 91.4232 16.4407C90.9478 16.6402 90.4383 16.7429 89.9237 16.7429C89.4092 16.7429 88.8996 16.6402 88.4243 16.4407C87.9489 16.2413 87.5171 15.9489 87.1534 15.5803C86.4415 14.8141 86.0451 13.8018 86.0451 12.7498C86.0451 11.6979 86.4415 10.6856 87.1534 9.91934C87.5092 9.54041 87.9397 9.24134 88.4169 9.04148C88.8941 8.84161 89.4075 8.74541 89.9237 8.75909C90.4393 8.75083 90.951 8.84951 91.4275 9.04905C91.9039 9.24859 92.335 9.54477 92.6941 9.91934C93.0562 10.2923 93.3408 10.7349 93.5311 11.221C93.7215 11.7072 93.8136 12.227 93.8022 12.7498C93.8188 13.2733 93.7289 13.7947 93.5383 14.2815C93.3477 14.7684 93.0604 15.2105 92.6941 15.5803ZM87.8711 14.9428C88.1394 15.2181 88.459 15.4366 88.8113 15.5858C89.1637 15.735 89.5418 15.8118 89.9237 15.8118C90.3057 15.8118 90.6838 15.735 91.0361 15.5858C91.3885 15.4366 91.7081 15.2181 91.9763 14.9428C92.5197 14.345 92.8213 13.5623 92.8213 12.7498C92.8213 11.9374 92.5197 11.1547 91.9763 10.5568C91.7081 10.2816 91.3885 10.063 91.0361 9.91388C90.6838 9.76471 90.3057 9.6879 89.9237 9.6879C89.5418 9.6879 89.1637 9.76471 88.8113 9.91388C88.459 10.063 88.1394 10.2816 87.8711 10.5568C87.3278 11.1547 87.0262 11.9374 87.0262 12.7498C87.0262 13.5623 87.3278 14.345 87.8711 14.9428Z" fill="black" stroke="black" stroke-width="0.411304" stroke-miterlimit="10"/>
<path d="M95.1748 16.575V8.92505H96.3459L100.023 14.8793V13.4003V8.92505H100.993V16.575H99.9852L96.1444 10.3403V11.8065V16.575H95.1748Z" fill="black" stroke="black" stroke-width="0.411304" stroke-miterlimit="10"/>
<path d="M85.8059 27.7315C84.745 27.7341 83.7085 28.0551 82.8277 28.654C81.947 29.2529 81.2614 30.1028 80.8576 31.0963C80.4539 32.0897 80.3502 33.1821 80.5597 34.2352C80.7691 35.2883 81.2822 36.2549 82.0342 37.0127C82.7862 37.7705 83.7433 38.2855 84.7843 38.4926C85.8254 38.6997 86.9038 38.5896 87.8831 38.1762C88.8623 37.7628 89.6985 37.0646 90.2859 36.17C90.8733 35.2754 91.1855 34.2245 91.183 33.1503C91.1932 32.4337 91.061 31.7223 90.7941 31.0585C90.5272 30.3947 90.1311 29.792 89.6294 29.2864C89.1277 28.7808 88.5306 28.3826 87.8738 28.1155C87.2169 27.8484 86.5137 27.7178 85.8059 27.7315ZM85.8059 36.4398C85.1556 36.4858 84.5067 36.3327 83.9434 36.0004C83.3802 35.6681 82.9287 35.1719 82.6477 34.5763C82.3667 33.9807 82.2692 33.3133 82.3678 32.6609C82.4663 32.0084 82.7565 31.4011 83.2005 30.9178C83.6445 30.4345 84.2218 30.0977 84.8574 29.951C85.493 29.8044 86.1575 29.8547 86.7645 30.0955C87.3714 30.3363 87.8928 30.7564 88.2609 31.3012C88.6289 31.846 88.8266 32.4903 88.8282 33.1503C88.8484 33.5685 88.7858 33.9866 88.644 34.3799C88.5021 34.7733 88.2839 35.1338 88.0023 35.4404C87.7206 35.747 87.3811 35.9934 87.0039 36.165C86.6267 36.3367 86.2194 36.4301 85.8059 36.4398ZM74.0696 27.7315C73.0087 27.7341 71.9722 28.0551 71.0914 28.654C70.2107 29.2529 69.5251 30.1028 69.1213 31.0963C68.7176 32.0897 68.6139 33.1821 68.8234 34.2352C69.0328 35.2883 69.5459 36.2549 70.2979 37.0127C71.0499 37.7705 72.007 38.2855 73.048 38.4926C74.0891 38.6997 75.1675 38.5896 76.1468 38.1762C77.126 37.7628 77.9622 37.0646 78.5496 36.17C79.137 35.2754 79.4492 34.2245 79.4467 33.1503C79.4569 32.4337 79.3247 31.7223 79.0578 31.0585C78.7909 30.3947 78.3948 29.792 77.8931 29.2864C77.3914 28.7808 76.7943 28.3826 76.1375 28.1155C75.4806 27.8484 74.7774 27.7178 74.0696 27.7315ZM74.0696 36.4398C73.4193 36.4858 72.7704 36.3327 72.2072 36.0004C71.6439 35.6681 71.1925 35.1719 70.9114 34.5763C70.6304 33.9807 70.5329 33.3133 70.6315 32.6609C70.73 32.0084 71.0202 31.4011 71.4642 30.9178C71.9082 30.4345 72.4855 30.0977 73.1211 29.951C73.7567 29.8044 74.4212 29.8547 75.0282 30.0955C75.6351 30.3363 76.1565 30.7564 76.5246 31.3012C76.8926 31.846 77.0903 32.4903 77.0919 33.1503C77.1122 33.5685 77.0495 33.9866 76.9077 34.3799C76.7658 34.7733 76.5476 35.1338 76.266 35.4404C75.9843 35.747 75.6448 35.9934 75.2676 36.165C74.8904 36.3367 74.4831 36.4301 74.0696 36.4398ZM60.1171 29.4018V31.6968H65.5571C65.4718 32.7777 65.028 33.7977 64.2978 34.591C63.7521 35.154 63.0958 35.5946 62.3713 35.8846C61.6468 36.1745 60.8702 36.3072 60.0919 36.274C58.4888 36.274 56.9513 35.6293 55.8178 34.4815C54.6842 33.3338 54.0474 31.7772 54.0474 30.154C54.0474 28.5309 54.6842 26.9743 55.8178 25.8265C56.9513 24.6788 58.4888 24.034 60.0919 24.034C61.6287 24.0109 63.1127 24.6018 64.2222 25.6788L65.8215 24.0595C65.071 23.3079 64.1798 22.7156 63.2003 22.3171C62.2208 21.9186 61.1725 21.7221 60.1171 21.739C58.9976 21.6949 57.8808 21.8801 56.8337 22.2834C55.7866 22.6868 54.8306 23.3 54.0232 24.0863C53.2157 24.8727 52.5734 25.816 52.1346 26.8597C51.6958 27.9034 51.4697 29.0261 51.4697 30.1604C51.4697 31.2948 51.6958 32.4174 52.1346 33.4611C52.5734 34.5049 53.2157 35.4482 54.0232 36.2345C54.8306 37.0209 55.7866 37.6341 56.8337 38.0374C57.8808 38.4407 58.9976 38.6259 60.1171 38.5818C61.1942 38.6254 62.2684 38.4377 63.2689 38.0312C64.2694 37.6247 65.1736 37.0085 65.9222 36.223C67.2446 34.7522 67.9492 32.8178 67.8867 30.8298C67.8912 30.3513 67.8533 29.8734 67.7733 29.4018H60.1171ZM117.174 31.1868C116.846 30.2085 116.232 29.3543 115.413 28.7373C114.594 28.1203 113.61 27.7696 112.59 27.7315C111.902 27.7302 111.22 27.8719 110.587 28.1479C109.955 28.4239 109.385 28.8283 108.913 29.3362C108.44 29.844 108.076 30.4446 107.842 31.1006C107.609 31.7566 107.51 32.4542 107.553 33.1503C107.543 34.3142 107.904 35.4504 108.584 36.3891C109.263 37.3279 110.224 38.0189 111.324 38.3589C112.423 38.6988 113.602 38.6696 114.684 38.2754C115.765 37.8813 116.692 37.1434 117.325 36.172L115.499 34.897C115.227 35.3564 114.841 35.7357 114.379 35.9974C113.918 36.2591 113.396 36.394 112.867 36.3888C112.322 36.4116 111.782 36.2667 111.319 35.9732C110.856 35.6796 110.491 35.2512 110.273 34.744L117.439 31.7478L117.174 31.1868ZM109.87 32.9973C109.845 32.6013 109.898 32.204 110.026 31.8289C110.154 31.4538 110.354 31.1083 110.616 30.8126C110.877 30.517 111.194 30.2771 111.549 30.1071C111.903 29.9371 112.287 29.8404 112.679 29.8225C113.084 29.7975 113.488 29.8942 113.84 30.1006C114.192 30.307 114.475 30.6139 114.656 30.9828L109.87 32.9973ZM104.053 38.2503H106.407V22.3128H104.053V38.2503ZM100.199 28.9428H100.111C99.7593 28.5372 99.3252 28.2132 98.8384 27.9932C98.3515 27.7731 97.8235 27.6621 97.2904 27.6678C95.9142 27.7354 94.6165 28.3364 93.6662 29.3464C92.7159 30.3564 92.1858 31.6979 92.1858 33.0929C92.1858 34.4879 92.7159 35.8294 93.6662 36.8394C94.6165 37.8494 95.9142 38.4505 97.2904 38.518C97.8243 38.5289 98.3539 38.4202 98.8415 38.1998C99.3291 37.9794 99.7627 37.6527 100.111 37.243H100.199V38.0208C100.199 40.099 99.1037 41.2083 97.3408 41.2083C96.7518 41.1952 96.18 41.0052 95.698 40.6624C95.2159 40.3196 94.8454 39.8395 94.6333 39.283L92.5933 40.1373C92.9705 41.0964 93.6263 41.9171 94.4739 42.4907C95.3216 43.0644 96.3213 43.3642 97.3408 43.3503C100.099 43.3503 102.378 41.7055 102.378 37.702V28.0503H100.199V28.9428ZM97.4919 36.4398C96.6668 36.3877 95.8924 36.0191 95.3263 35.4092C94.7603 34.7992 94.4451 33.9937 94.4451 33.1567C94.4451 32.3197 94.7603 31.5142 95.3263 30.9042C95.8924 30.2942 96.6668 29.9256 97.4919 29.8735C97.8951 29.8912 98.2908 29.9907 98.6552 30.1663C99.0197 30.3419 99.3456 30.59 99.6135 30.8957C99.8813 31.2014 100.086 31.5585 100.214 31.9459C100.343 32.3332 100.394 32.7428 100.363 33.1503C100.397 33.5592 100.349 33.9709 100.222 34.3605C100.095 34.7501 99.8909 35.1095 99.6225 35.417C99.3541 35.7245 99.0269 35.9737 98.6607 36.1495C98.2945 36.3253 97.8969 36.424 97.4919 36.4398ZM128.205 22.3128H122.564V38.2503H124.919V32.2068H128.205C128.876 32.2556 129.55 32.1639 130.185 31.9374C130.819 31.7109 131.401 31.3545 131.894 30.8903C132.386 30.4262 132.779 29.8643 133.048 29.2397C133.316 28.615 133.455 27.9411 133.455 27.2598C133.455 26.5785 133.316 25.9046 133.048 25.2799C132.779 24.6553 132.386 24.0934 131.894 23.6292C131.401 23.1651 130.819 22.8087 130.185 22.5822C129.55 22.3557 128.876 22.264 128.205 22.3128ZM128.205 29.9628H124.919V24.5313H128.256C128.609 24.5313 128.96 24.6019 129.287 24.739C129.614 24.8761 129.911 25.0771 130.161 25.3305C130.411 25.5838 130.61 25.8846 130.745 26.2156C130.881 26.5467 130.95 26.9015 130.95 27.2598C130.95 27.6181 130.881 27.9729 130.745 28.3039C130.61 28.635 130.411 28.9358 130.161 29.1891C129.911 29.4425 129.614 29.6435 129.287 29.7806C128.96 29.9177 128.609 29.9883 128.256 29.9883L128.205 29.9628ZM142.737 27.6805C141.879 27.627 141.025 27.8291 140.28 28.262C139.535 28.6948 138.931 29.3393 138.544 30.1158L140.621 30.9955C140.831 30.6123 141.147 30.2988 141.529 30.0929C141.911 29.887 142.344 29.7975 142.775 29.8353C143.074 29.7999 143.377 29.8252 143.666 29.9097C143.955 29.9941 144.225 30.136 144.459 30.3271C144.694 30.5182 144.888 30.7546 145.031 31.0226C145.175 31.2906 145.264 31.5848 145.293 31.888V32.041C144.536 31.638 143.693 31.428 142.838 31.429C140.596 31.429 138.304 32.704 138.304 35.0245C138.327 35.5178 138.446 36.0015 138.657 36.4469C138.867 36.8923 139.164 37.2903 139.529 37.6174C139.895 37.9445 140.321 38.1939 140.783 38.3508C141.246 38.5077 141.735 38.5689 142.221 38.5308C142.812 38.5639 143.401 38.4373 143.927 38.1639C144.454 37.8906 144.899 37.4804 145.218 36.9753H145.293V38.2503H147.56V32.1175C147.56 29.3253 145.47 27.706 142.787 27.706L142.737 27.6805ZM142.447 36.4143C141.679 36.4143 140.609 36.019 140.609 35.0628C140.609 33.7878 141.944 33.3543 143.127 33.3543C143.875 33.3356 144.615 33.5205 145.268 33.8898C145.189 34.5822 144.865 35.2221 144.355 35.691C143.846 36.1599 143.186 36.4259 142.498 36.4398L142.447 36.4143ZM155.821 28.0503L153.126 34.9608H153.05L150.255 28.0503H147.736L151.93 37.7148L149.537 43.0825H151.993L158.44 28.0503H155.821ZM134.665 38.2503H137.007V22.3128H134.665V38.2503Z" fill="black"/>
<path d="M13.1466 9.61367C12.7317 10.1104 12.5199 10.749 12.5548 11.3987V39.6017C12.5119 40.2524 12.7247 40.8939 13.1466 41.3867L13.2348 41.4887L28.837 25.6914V25.3089L13.2348 9.52441L13.1466 9.61367Z" fill="url(#paint0_linear_33_973)"/>
<path d="M34 30.957L28.8371 25.6912V25.3087L34 20.043L34.1133 20.1195L40.2963 23.664C42.0593 24.6712 42.0593 26.3287 40.2963 27.3487L34.1385 30.8932L34 30.957Z" fill="url(#paint1_linear_33_973)"/>
<path d="M34.1511 30.8807L28.837 25.5002L13.1467 41.3867C13.5025 41.7074 13.958 41.8919 14.4341 41.9082C14.9102 41.9245 15.3769 41.7716 15.7533 41.476L34.1511 30.8807Z" fill="url(#paint2_linear_33_973)"/>
<path d="M34.1511 20.1195L15.7533 9.537C15.3794 9.23726 14.913 9.08062 14.4362 9.09461C13.9595 9.1086 13.5029 9.29234 13.1467 9.6135L28.837 25.5L34.1511 20.1195Z" fill="url(#paint3_linear_33_973)"/>
<path opacity="0.2" d="M34 30.7659L15.7533 41.2846C15.3906 41.5618 14.9485 41.7118 14.4941 41.7118C14.0396 41.7118 13.5976 41.5618 13.2348 41.2846L13.1467 41.3739L13.2348 41.4759C13.5976 41.7531 14.0396 41.903 14.4941 41.903C14.9485 41.903 15.3906 41.7531 15.7533 41.4759L34.1511 30.8806L34 30.7659Z" fill="black"/>
<path opacity="0.12" d="M13.1466 41.2082C12.7422 40.7024 12.5439 40.0593 12.5926 39.4104V39.6017C12.5497 40.2524 12.7624 40.8939 13.1844 41.3867L13.2726 41.2974L13.1466 41.2082Z" fill="black"/>
<path opacity="0.12" d="M40.2963 27.1577L34 30.766L34.1133 30.8807L40.2963 27.3362C40.6613 27.18 40.9779 26.927 41.2128 26.6039C41.4477 26.2808 41.5922 25.8995 41.6311 25.5002C41.5524 25.8631 41.3906 26.2021 41.1587 26.49C40.9269 26.7779 40.6315 27.0066 40.2963 27.1577Z" fill="black"/>
<path opacity="0.25" d="M15.7534 9.71569L40.2963 23.8427C40.6315 23.9938 40.9269 24.2225 41.1587 24.5104C41.3906 24.7983 41.5524 25.1374 41.6311 25.5002C41.5922 25.1009 41.4477 24.7197 41.2128 24.3966C40.9779 24.0734 40.6613 23.8204 40.2963 23.6642L15.7534 9.53719C14.003 8.51719 12.5548 9.35869 12.5548 11.3987V11.5899C12.5926 9.54994 14.003 8.70844 15.7534 9.71569Z" fill="white"/>
</g>
<defs>
<linearGradient id="paint0_linear_33_973" x1="27.4518" y1="11.1054" x2="6.05898" y2="32.2342" gradientUnits="userSpaceOnUse">
<stop stop-color="#00A0FF"/>
<stop offset="0.01" stop-color="#00A1FF"/>
<stop offset="0.26" stop-color="#00BEFF"/>
<stop offset="0.51" stop-color="#00D2FF"/>
<stop offset="0.76" stop-color="#00DFFF"/>
<stop offset="1" stop-color="#00E3FF"/>
</linearGradient>
<linearGradient id="paint1_linear_33_973" x1="42.6008" y1="25.5" x2="12.1393" y2="25.5" gradientUnits="userSpaceOnUse">
<stop stop-color="#FFE000"/>
<stop offset="0.41" stop-color="#FFBD00"/>
<stop offset="0.78" stop-color="#FFA500"/>
<stop offset="1" stop-color="#FF9C00"/>
</linearGradient>
<linearGradient id="paint2_linear_33_973" x1="31.2674" y1="28.4327" x2="2.2508" y2="57.0785" gradientUnits="userSpaceOnUse">
<stop stop-color="#FF3A44"/>
<stop offset="1" stop-color="#C31162"/>
</linearGradient>
<linearGradient id="paint3_linear_33_973" x1="9.19259" y1="0.229498" x2="22.1456" y2="13.0226" gradientUnits="userSpaceOnUse">
<stop stop-color="#32A071"/>
<stop offset="0.07" stop-color="#2DA771"/>
<stop offset="0.48" stop-color="#15CF74"/>
<stop offset="0.8" stop-color="#06E775"/>
<stop offset="1" stop-color="#00F076"/>
</linearGradient>
<clipPath id="clip0_33_973">
<rect width="170" height="51" fill="white"/>
</clipPath>
</defs>
</svg>
