<svg width="151" height="51" viewBox="0 0 151 51" fill="none" xmlns="http://www.w3.org/2000/svg">
<g clip-path="url(#clip0_33_974)">
<path d="M138.975 -0.000322531H12.0315C11.5688 -0.000322531 11.1116 -0.000322531 10.6501 0.00222747C10.2638 0.00477747 9.88052 0.0121852 9.49049 0.01842C8.64317 0.0284948 7.79783 0.103815 6.96184 0.243725C6.12702 0.386682 5.31835 0.656195 4.56318 1.04315C3.80894 1.43338 3.11977 1.94044 2.52067 2.54594C1.91842 3.14974 1.4164 3.84765 1.03391 4.61283C0.650366 5.37649 0.384415 6.19482 0.245244 7.03957C0.104749 7.88324 0.0291471 8.73664 0.0191173 9.59212C0.00740715 9.98303 0.00617052 10.3752 0 10.7662V40.2369C0.00617052 40.6328 0.00740715 41.0163 0.0191173 41.4123C0.0291501 42.2677 0.104752 43.1211 0.245244 43.9647C0.384031 44.81 0.649997 45.6288 1.03391 46.3927C1.41622 47.1554 1.91831 47.8505 2.52067 48.451C3.1175 49.0591 3.80712 49.5666 4.56318 49.9538C5.31835 50.3418 6.12693 50.6129 6.96184 50.7581C7.79798 50.8969 8.64322 50.9722 9.49049 50.9835C9.88052 50.9922 10.2638 50.9971 10.6501 50.9971C11.1116 50.9997 11.5688 50.9997 12.0315 50.9997H138.975C139.429 50.9997 139.89 50.9997 140.343 50.9971C140.728 50.9971 141.122 50.9922 141.506 50.9835C142.352 50.9728 143.196 50.8975 144.03 50.7581C144.868 50.6119 145.679 50.3408 146.438 49.9538C147.193 49.5663 147.882 49.0589 148.479 48.451C149.08 47.8482 149.583 47.1536 149.97 46.3927C150.351 45.6282 150.614 44.8095 150.751 43.9647C150.892 43.121 150.97 42.2678 150.985 41.4123C150.99 41.0163 150.99 40.6328 150.99 40.2369C151 39.7737 151 39.313 151 38.8423V12.1582C151 11.6913 151 11.2281 150.99 10.7662C150.99 10.3752 150.99 9.98303 150.985 9.59206C150.97 8.73652 150.892 7.8833 150.751 7.03951C150.614 6.19526 150.35 5.37699 149.97 4.61278C149.191 3.07905 147.956 1.83061 146.438 1.04304C145.679 0.657026 144.868 0.387584 144.03 0.24361C143.196 0.103084 142.352 0.0277374 141.506 0.0182415C141.122 0.0120195 140.728 0.00454797 140.343 0.00206172C139.89 -0.000488281 139.429 -0.000488281 138.975 -0.000488281V-0.000322531Z" fill="black"/>
<path d="M10.6562 49.8845C10.2718 49.8845 9.8966 49.8795 9.51515 49.8708C8.72495 49.8604 7.93659 49.7909 7.15655 49.6629C6.4292 49.5363 5.72459 49.3009 5.06596 48.9643C4.41338 48.6305 3.81817 48.1929 3.30314 47.6681C2.78065 47.1496 2.34565 46.5481 2.01539 45.8876C1.68149 45.2228 1.45041 44.5102 1.3302 43.7747C1.20038 42.9843 1.13015 42.1851 1.1201 41.384C1.1121 41.1151 1.10162 40.2198 1.10162 40.2198V10.7666C1.10162 10.7666 1.11278 9.88508 1.12016 9.62609C1.12978 8.82626 1.19961 8.02833 1.32904 7.2392C1.44947 6.50164 1.68073 5.787 2.01481 5.12003C2.34386 4.45998 2.77644 3.85807 3.29578 3.33764C3.81454 2.81227 4.41165 2.37237 5.06535 2.03399C5.72246 1.69852 6.42573 1.46473 7.15161 1.34047C7.93422 1.21114 8.72531 1.14122 9.51826 1.13129L10.6569 1.11572H140.337L141.489 1.13192C142.275 1.14135 143.059 1.21065 143.834 1.33922C144.567 1.46504 145.278 1.70046 145.943 2.03773C147.252 2.71965 148.318 3.79853 148.99 5.12314C149.319 5.78551 149.547 6.49432 149.665 7.22551C149.796 8.02111 149.87 8.82531 149.885 9.6317C149.888 9.99278 149.888 10.3806 149.888 10.7666C149.898 11.2448 149.898 11.6998 149.898 12.1587V38.8427C149.898 39.3059 149.898 39.7579 149.888 40.2136C149.888 40.6282 149.888 41.008 149.883 41.399C149.869 42.191 149.797 42.9808 149.668 43.7622C149.55 44.503 149.32 45.2212 148.986 45.8914C148.654 46.5448 148.221 47.141 147.705 47.6582C147.189 48.1858 146.593 48.626 145.939 48.9619C145.276 49.301 144.567 49.5373 143.834 49.6629C143.054 49.7916 142.266 49.8611 141.476 49.8708C141.106 49.8795 140.719 49.8845 140.343 49.8845L138.975 49.887L10.6562 49.8845Z" fill="white"/>
<path d="M31.5425 25.3584C31.5566 24.2518 31.8475 23.1667 32.3882 22.2042C32.9289 21.2417 33.7017 20.433 34.6348 19.8533C34.042 18.9979 33.26 18.294 32.3509 17.7974C31.4418 17.3008 30.4305 17.0252 29.3976 16.9925C27.194 16.7588 25.0578 18.3248 23.9349 18.3248C22.7903 18.3248 21.0615 17.0157 19.1998 17.0544C17.9957 17.0937 16.8221 17.4476 15.7935 18.0814C14.7649 18.7152 13.9163 19.6075 13.3304 20.6712C10.7927 25.1108 12.6856 31.6354 15.1166 35.2241C16.3329 36.9813 17.7544 38.9442 19.6144 38.8746C21.4345 38.7983 22.1143 37.7019 24.3113 37.7019C26.4879 37.7019 27.1257 38.8746 29.0234 38.8303C30.9765 38.7983 32.207 37.0653 33.3807 35.2914C34.2546 34.0393 34.927 32.6555 35.3732 31.1911C34.2385 30.7062 33.2702 29.8946 32.589 28.8573C31.9078 27.8201 31.5438 26.6032 31.5425 25.3584Z" fill="black"/>
<path d="M27.958 14.6325C29.0229 13.3408 29.5476 11.6806 29.4205 10.0044C27.7936 10.177 26.2908 10.9627 25.2115 12.2048C24.6838 12.8116 24.2797 13.5176 24.0222 14.2823C23.7646 15.047 23.6588 15.8555 23.7107 16.6616C24.5245 16.67 25.3295 16.4918 26.0652 16.1404C26.8009 15.7889 27.4481 15.2733 27.958 14.6325V14.6325Z" fill="black"/>
<path d="M53.3792 34.603H47.4063L45.9719 38.8825H43.442L49.0994 23.0496H51.7279L57.3854 38.8825H54.8123L53.3792 34.603ZM48.0249 32.6283H52.7594L50.4254 25.683H50.3601L48.0249 32.6283Z" fill="black"/>
<path d="M69.6035 33.1111C69.6035 36.6983 67.7033 39.003 64.8358 39.003C64.1094 39.0414 63.387 38.8723 62.7512 38.5151C62.1155 38.158 61.5922 37.6271 61.2412 36.9834H61.1869V42.701H58.8419V27.3387H61.1118V29.2587H61.1549C61.522 28.6181 62.0542 28.09 62.6948 27.7306C63.3353 27.3713 64.0603 27.1941 64.7926 27.2179C67.6922 27.218 69.6035 29.5339 69.6035 33.1111ZM67.1932 33.1111C67.1932 30.774 65.9978 29.2375 64.174 29.2375C62.3823 29.2375 61.1771 30.8064 61.1771 33.1111C61.1771 35.437 62.3823 36.9946 64.174 36.9946C65.9978 36.9946 67.1931 35.4694 67.1931 33.1111H67.1932Z" fill="black"/>
<path d="M82.1784 33.1111C82.1784 36.6983 80.2776 39.003 77.4101 39.003C76.6837 39.0414 75.9612 38.8723 75.3255 38.5151C74.6898 38.158 74.1665 37.6271 73.8155 36.9834H73.7612V42.701H71.4162V27.3387H73.686V29.2587H73.7292C74.0963 28.6181 74.6285 28.09 75.2691 27.7306C75.9096 27.3713 76.6346 27.1941 77.3669 27.2179C80.2665 27.218 82.1784 29.5339 82.1784 33.1111ZM79.7674 33.1111C79.7674 30.774 78.5721 29.2375 76.7483 29.2375C74.9566 29.2375 73.7514 30.8064 73.7514 33.1111C73.7514 35.437 74.9566 36.9946 76.7483 36.9946C78.5721 36.9946 79.7674 35.4694 79.7674 33.1111V33.1111Z" fill="black"/>
<path d="M90.4877 34.4709C90.6615 36.041 92.1711 37.0719 94.2339 37.0719C96.2105 37.0719 97.6326 36.0409 97.6326 34.6252C97.6326 33.3963 96.7749 32.6605 94.7441 32.1562L92.7133 31.6618C89.8359 30.9596 88.5001 29.5999 88.5001 27.3936C88.5001 24.6618 90.8562 22.7854 94.2007 22.7854C97.513 22.7854 99.7829 24.6618 99.8593 27.3936H97.4921C97.3504 25.8135 96.0577 24.8598 94.1686 24.8598C92.2795 24.8598 90.9868 25.8247 90.9868 27.2292C90.9868 28.3486 91.8125 29.0073 93.8322 29.5115L95.5586 29.9398C98.7737 30.708 100.108 32.013 100.108 34.3288C100.108 37.291 97.7743 39.1462 94.0601 39.1462C90.585 39.1462 88.2388 37.3346 88.0872 34.4708L90.4877 34.4709Z" fill="black"/>
<path d="M105.172 24.6069V27.3387H107.344V29.2151H105.172V35.5789C105.172 36.5675 105.607 37.0282 106.562 37.0282C106.82 37.0237 107.077 37.0054 107.333 36.9734V38.8386C106.904 38.9196 106.467 38.9564 106.031 38.9482C103.718 38.9482 102.816 38.0703 102.816 35.8316V29.2151H101.154V27.3387H102.816V24.6069H105.172Z" fill="black"/>
<path d="M108.601 33.1111C108.601 29.4791 110.718 27.1968 114.02 27.1968C117.332 27.1968 119.439 29.479 119.439 33.1111C119.439 36.7531 117.343 39.0254 114.02 39.0254C110.697 39.0254 108.601 36.753 108.601 33.1111ZM117.05 33.1111C117.05 30.6196 115.92 29.1491 114.02 29.1491C112.119 29.1491 110.989 30.6308 110.989 33.1111C110.989 35.6125 112.119 37.0718 114.02 37.0718C115.92 37.0718 117.05 35.6125 117.05 33.1111H117.05Z" fill="black"/>
<path d="M121.373 27.3391H123.609V29.3039H123.664C123.815 28.6902 124.171 28.1479 124.671 27.7681C125.172 27.3883 125.786 27.1942 126.412 27.2183C126.682 27.2174 126.951 27.247 127.215 27.3067V29.523C126.874 29.4177 126.518 29.3693 126.161 29.3798C125.821 29.3659 125.481 29.4266 125.166 29.5578C124.851 29.6889 124.567 29.8875 124.335 30.1398C124.103 30.3921 123.927 30.6922 123.821 31.0195C123.714 31.3467 123.679 31.6934 123.718 32.0357V38.8826H121.373L121.373 27.3391Z" fill="black"/>
<path d="M138.027 35.4917C137.712 37.5873 135.692 39.0254 133.108 39.0254C129.784 39.0254 127.721 36.7755 127.721 33.1659C127.721 29.5451 129.795 27.1968 133.009 27.1968C136.17 27.1968 138.158 29.3907 138.158 32.8907V33.7025H130.089V33.8457C130.051 34.2705 130.104 34.6985 130.243 35.1012C130.382 35.5039 130.604 35.8721 130.895 36.1813C131.186 36.4906 131.538 36.7338 131.929 36.8949C132.32 37.0559 132.74 37.1311 133.162 37.1154C133.716 37.1678 134.272 37.0382 134.748 36.7456C135.223 36.4531 135.592 36.0133 135.8 35.4917L138.027 35.4917ZM130.1 32.0465H135.811C135.832 31.6645 135.775 31.2823 135.643 30.9237C135.511 30.5652 135.307 30.2381 135.044 29.963C134.781 29.6879 134.464 29.4707 134.114 29.3251C133.764 29.1795 133.388 29.1085 133.009 29.1167C132.627 29.1144 132.249 29.1886 131.895 29.3349C131.542 29.4812 131.221 29.6967 130.95 29.9691C130.68 30.2415 130.465 30.5653 130.319 30.9219C130.173 31.2784 130.099 31.6607 130.1 32.0465V32.0465Z" fill="black"/>
<path d="M47.7316 11.1317C48.2232 11.096 48.7166 11.1711 49.176 11.3514C49.6355 11.5317 50.0496 11.8128 50.3885 12.1745C50.7275 12.5361 50.9827 12.9692 51.1359 13.4426C51.2891 13.9159 51.3364 14.4178 51.2744 14.9119C51.2744 17.3423 49.9744 18.7394 47.7316 18.7394H45.0119V11.1317H47.7316ZM46.1814 17.6635H47.601C47.9523 17.6847 48.3038 17.6265 48.6301 17.4931C48.9563 17.3598 49.249 17.1545 49.4869 16.8924C49.7247 16.6304 49.9017 16.318 50.005 15.978C50.1083 15.6381 50.1353 15.2792 50.084 14.9274C50.1316 14.5769 50.1019 14.2202 49.997 13.8828C49.8921 13.5453 49.7147 13.2355 49.4773 12.9755C49.24 12.7155 48.9487 12.5117 48.6243 12.3788C48.2999 12.2459 47.9505 12.1872 47.601 12.2068H46.1814V17.6635Z" fill="black"/>
<path d="M52.5954 15.8663C52.5597 15.489 52.6024 15.1084 52.7208 14.7487C52.8393 14.3891 53.0308 14.0584 53.2831 13.7779C53.5354 13.4975 53.8429 13.2734 54.1859 13.12C54.529 12.9667 54.8999 12.8875 55.2751 12.8875C55.6502 12.8875 56.0211 12.9667 56.3642 13.12C56.7072 13.2734 57.0148 13.4975 57.2671 13.7779C57.5194 14.0584 57.7109 14.3891 57.8293 14.7487C57.9477 15.1084 57.9904 15.489 57.9547 15.8663C57.9911 16.244 57.9489 16.6252 57.8308 16.9854C57.7127 17.3457 57.5213 17.6769 57.2689 17.958C57.0166 18.239 56.7088 18.4636 56.3654 18.6172C56.022 18.7709 55.6506 18.8503 55.2751 18.8503C54.8995 18.8503 54.5281 18.7709 54.1847 18.6172C53.8413 18.4636 53.5336 18.239 53.2812 17.958C53.0288 17.6769 52.8374 17.3457 52.7193 16.9854C52.6012 16.6252 52.559 16.244 52.5954 15.8663V15.8663ZM56.8012 15.8663C56.8012 14.6218 56.2479 13.8941 55.2769 13.8941C54.3022 13.8941 53.7538 14.6218 53.7538 15.8663C53.7538 17.1208 54.3022 17.843 55.2769 17.843C56.248 17.843 56.8013 17.1158 56.8013 15.8663H56.8012Z" fill="black"/>
<path d="M65.0785 18.7395H63.9153L62.7409 14.5111H62.6522L61.4827 18.7395H60.3305L58.7643 12.9983H59.9017L60.9196 17.3792H61.0034L62.1716 12.9983H63.2474L64.4156 17.3792H64.5043L65.5172 12.9983H66.6386L65.0785 18.7395Z" fill="black"/>
<path d="M67.9559 12.9983H69.0354V13.9104H69.1192C69.2614 13.5828 69.5011 13.3082 69.8051 13.1248C70.109 12.9415 70.462 12.8585 70.8149 12.8875C71.0913 12.8665 71.3689 12.9086 71.6271 13.0107C71.8853 13.1128 72.1174 13.2724 72.3063 13.4774C72.4952 13.6825 72.636 13.9279 72.7182 14.1954C72.8005 14.4629 72.8222 14.7457 72.7816 15.0229V18.7395H71.6602V15.3074C71.6602 14.3848 71.2634 13.9259 70.4341 13.9259C70.2464 13.9171 70.059 13.9494 69.8848 14.0206C69.7106 14.0917 69.5536 14.2001 69.4248 14.3383C69.2959 14.4765 69.1981 14.6412 69.1382 14.8212C69.0782 15.0011 69.0574 15.192 69.0773 15.3808V18.7395H67.9559L67.9559 12.9983Z" fill="black"/>
<path d="M74.5684 10.7571H75.6898V18.7395H74.5684V10.7571Z" fill="black"/>
<path d="M77.2487 15.8664C77.213 15.4891 77.2557 15.1084 77.3742 14.7488C77.4926 14.3891 77.6841 14.0584 77.9365 13.778C78.1888 13.4975 78.4963 13.2734 78.8394 13.12C79.1825 12.9667 79.5535 12.8875 79.9286 12.8875C80.3037 12.8875 80.6747 12.9667 81.0178 13.12C81.3609 13.2734 81.6684 13.4975 81.9207 13.778C82.1731 14.0584 82.3646 14.3891 82.483 14.7488C82.6015 15.1084 82.6442 15.4891 82.6085 15.8664C82.6449 16.2441 82.6026 16.6253 82.4845 16.9856C82.3663 17.3458 82.1749 17.677 81.9225 17.9581C81.6702 18.2391 81.3624 18.4636 81.019 18.6173C80.6756 18.771 80.3042 18.8504 79.9286 18.8504C79.553 18.8504 79.1816 18.771 78.8382 18.6173C78.4948 18.4636 78.187 18.2391 77.9346 17.9581C77.6823 17.677 77.4908 17.3458 77.3727 16.9856C77.2546 16.6253 77.2123 16.2441 77.2487 15.8664V15.8664ZM81.4545 15.8664C81.4545 14.622 80.9012 13.8942 79.9301 13.8942C78.9554 13.8942 78.4071 14.622 78.4071 15.8665C78.4071 17.1209 78.9554 17.8431 79.9301 17.8431C80.9012 17.8431 81.4545 17.1159 81.4545 15.8664H81.4545Z" fill="black"/>
<path d="M83.789 17.1159C83.789 16.0824 84.5506 15.4866 85.9024 15.402L87.4415 15.3123V14.8168C87.4415 14.2104 87.0447 13.868 86.2783 13.868C85.6523 13.868 85.2185 14.1002 85.094 14.5061H84.0084C84.123 13.52 85.041 12.8875 86.33 12.8875C87.7546 12.8875 88.558 13.604 88.558 14.8168V18.7395H87.4785V17.9327H87.3898C87.2097 18.2221 86.9568 18.458 86.657 18.6164C86.3571 18.7748 86.021 18.8499 85.6831 18.8341C85.4445 18.8592 85.2034 18.8334 84.9753 18.7586C84.7472 18.6838 84.5372 18.5615 84.3588 18.3996C84.1803 18.2377 84.0374 18.0398 83.9393 17.8187C83.8412 17.5976 83.79 17.3582 83.789 17.1159V17.1159ZM87.4415 16.6253V16.1453L86.054 16.2349C85.2715 16.2879 84.9166 16.5568 84.9166 17.0629C84.9166 17.5797 85.3602 17.8804 85.9702 17.8804C86.149 17.8986 86.3295 17.8804 86.5011 17.8267C86.6728 17.7731 86.8319 17.6851 86.9692 17.568C87.1065 17.4509 87.219 17.3071 87.3002 17.1451C87.3813 16.9832 87.4294 16.8064 87.4415 16.6253V16.6253Z" fill="black"/>
<path d="M90.0318 15.8664C90.0318 14.0523 90.9548 12.9031 92.3904 12.9031C92.7455 12.8865 93.098 12.9725 93.4065 13.1508C93.7151 13.3292 93.967 13.5926 94.1329 13.9103H94.2167V10.7571H95.3381V18.7395H94.2635V17.8324H94.1748C93.9961 18.148 93.7354 18.4081 93.4209 18.5847C93.1063 18.7613 92.75 18.8475 92.3904 18.8341C90.945 18.8342 90.0318 17.6849 90.0318 15.8664ZM91.1902 15.8664C91.1902 17.0842 91.7583 17.8169 92.7084 17.8169C93.6536 17.8169 94.2377 17.0736 94.2377 15.8714C94.2377 14.6749 93.6474 13.9209 92.7084 13.9209C91.7644 13.9209 91.1902 14.6587 91.1902 15.8664H91.1902Z" fill="black"/>
<path d="M99.9776 15.8663C99.9419 15.489 99.9846 15.1084 100.103 14.7487C100.221 14.3891 100.413 14.0584 100.665 13.7779C100.918 13.4975 101.225 13.2734 101.568 13.12C101.911 12.9667 102.282 12.8875 102.657 12.8875C103.032 12.8875 103.403 12.9667 103.746 13.12C104.089 13.2734 104.397 13.4975 104.649 13.7779C104.902 14.0584 105.093 14.3891 105.211 14.7487C105.33 15.1084 105.373 15.489 105.337 15.8663C105.373 16.244 105.331 16.6252 105.213 16.9854C105.095 17.3457 104.903 17.6769 104.651 17.958C104.399 18.239 104.091 18.4636 103.748 18.6172C103.404 18.7709 103.033 18.8503 102.657 18.8503C102.282 18.8503 101.91 18.7709 101.567 18.6172C101.224 18.4636 100.916 18.239 100.663 17.958C100.411 17.6769 100.22 17.3457 100.102 16.9854C99.9834 16.6252 99.9412 16.244 99.9776 15.8663V15.8663ZM104.183 15.8663C104.183 14.6218 103.63 13.8941 102.659 13.8941C101.684 13.8941 101.136 14.6218 101.136 15.8663C101.136 17.1208 101.684 17.843 102.659 17.843C103.63 17.843 104.183 17.1158 104.183 15.8663Z" fill="black"/>
<path d="M106.841 12.9983H107.921V13.9104H108.005C108.147 13.5828 108.387 13.3082 108.691 13.1248C108.995 12.9415 109.348 12.8585 109.7 12.8875C109.977 12.8665 110.254 12.9086 110.513 13.0107C110.771 13.1128 111.003 13.2724 111.192 13.4774C111.381 13.6825 111.522 13.9279 111.604 14.1954C111.686 14.4629 111.708 14.7457 111.667 15.0229V18.7395H110.546V15.3074C110.546 14.3848 110.149 13.9259 109.32 13.9259C109.132 13.9171 108.945 13.9494 108.77 14.0206C108.596 14.0917 108.439 14.2001 108.31 14.3383C108.181 14.4765 108.084 14.6412 108.024 14.8212C107.964 15.0011 107.943 15.192 107.963 15.3808V18.7395H106.841V12.9983Z" fill="black"/>
<path d="M118.004 11.5688V13.0244H119.235V13.9788H118.004V16.9309C118.004 17.5323 118.249 17.7957 118.807 17.7957C118.95 17.7952 119.093 17.7865 119.235 17.7695V18.7133C119.033 18.7497 118.829 18.7691 118.625 18.7712C117.378 18.7712 116.881 18.328 116.881 17.2211V13.9787H115.979V13.0243H116.881V11.5688H118.004Z" fill="black"/>
<path d="M120.766 10.7571H121.878V13.9209H121.967C122.116 13.5903 122.362 13.3141 122.672 13.1301C122.982 12.9461 123.341 12.8631 123.699 12.8925C123.974 12.8773 124.249 12.9237 124.504 13.0283C124.76 13.1329 124.989 13.2932 125.176 13.4976C125.363 13.702 125.503 13.9456 125.586 14.211C125.669 14.4764 125.693 14.757 125.656 15.0328V18.7395H124.534V15.3123C124.534 14.3953 124.111 13.9309 123.319 13.9309C123.126 13.9149 122.932 13.9417 122.751 14.0093C122.569 14.077 122.404 14.1838 122.268 14.3225C122.132 14.4611 122.027 14.6282 121.962 14.8119C121.896 14.9957 121.871 15.1918 121.888 15.3864V18.7395H120.766L120.766 10.7571Z" fill="black"/>
<path d="M132.195 17.1894C132.042 17.7141 131.712 18.168 131.262 18.4717C130.812 18.7753 130.271 18.9094 129.733 18.8504C129.358 18.8604 128.986 18.7879 128.642 18.6381C128.298 18.4882 127.991 18.2646 127.741 17.9826C127.492 17.7007 127.305 17.3672 127.196 17.0053C127.087 16.6435 127.057 16.2619 127.108 15.887C127.058 15.5111 127.089 15.1286 127.198 14.7657C127.307 14.4027 127.492 14.0677 127.74 13.7833C127.989 13.4989 128.295 13.2717 128.638 13.1172C128.98 12.9626 129.352 12.8843 129.728 12.8875C131.309 12.8875 132.262 13.9789 132.262 15.7818V16.1772H128.25V16.2407C128.233 16.4513 128.259 16.6634 128.327 16.8633C128.395 17.0631 128.504 17.2464 128.647 17.4012C128.789 17.5561 128.962 17.6791 129.154 17.7625C129.347 17.8459 129.554 17.8878 129.763 17.8854C130.032 17.9179 130.303 17.8691 130.544 17.7452C130.785 17.6213 130.984 17.4278 131.115 17.1894L132.195 17.1894ZM128.25 15.3392H131.12C131.134 15.1465 131.108 14.9529 131.044 14.771C130.98 14.589 130.878 14.4227 130.747 14.2826C130.615 14.1425 130.456 14.0318 130.279 13.9577C130.103 13.8835 129.913 13.8475 129.721 13.8519C129.527 13.8494 129.335 13.8862 129.155 13.9601C128.976 14.034 128.812 14.1435 128.675 14.2821C128.538 14.4207 128.43 14.5856 128.357 14.7672C128.284 14.9487 128.248 15.1432 128.25 15.3392H128.25Z" fill="black"/>
</g>
<defs>
<clipPath id="clip0_33_974">
<rect width="151" height="51" fill="white"/>
</clipPath>
</defs>
</svg>
