<svg width="22" height="22" viewBox="0 0 22 22" fill="none" xmlns="http://www.w3.org/2000/svg">
<path d="M11 16C13.7614 16 16 13.7614 16 11C16 8.23857 13.7614 6 11 6C8.23857 6 6 8.23857 6 11C6 13.7614 8.23857 16 11 16Z" stroke="white" stroke-linecap="round" stroke-linejoin="round"/>
<path d="M16 1H6C3.23858 1 1 3.23858 1 6V16C1 18.7614 3.23858 21 6 21H16C18.7614 21 21 18.7614 21 16V6C21 3.23858 18.7614 1 16 1Z" stroke="white" stroke-linecap="round" stroke-linejoin="round"/>
<path d="M17.25 6C16.9049 6 16.625 5.72018 16.625 5.375C16.625 5.02983 16.9049 4.75 17.25 4.75" stroke="white"/>
<path d="M17.2495 6C17.5946 6 17.8745 5.72018 17.8745 5.375C17.8745 5.02983 17.5946 4.75 17.2495 4.75" stroke="white"/>
</svg>
