<svg width="20" height="19" viewBox="0 0 20 19" fill="none" xmlns="http://www.w3.org/2000/svg">
<path d="M5.45097 17.6667H1.2843V6.83333H5.45097V17.6667ZM12.951 10.1667C12.5089 10.1667 12.085 10.3423 11.7725 10.6548C11.4599 10.9674 11.2843 11.3913 11.2843 11.8333V17.6667H7.11764V6.83333H11.2843V8.07083C12.2146 7.28241 13.39 6.84198 14.6093 6.825C17.0776 6.825 18.7843 8.65833 18.7843 12.1208V17.6667H14.6176V11.8333C14.6176 11.3913 14.442 10.9674 14.1295 10.6548C13.8169 10.3423 13.393 10.1667 12.951 10.1667ZM5.45097 3.08333C5.45097 3.49538 5.32878 3.89817 5.09986 4.24077C4.87094 4.58337 4.54557 4.8504 4.16489 5.00808C3.78421 5.16576 3.36532 5.20702 2.9612 5.12664C2.55707 5.04625 2.18586 4.84783 1.8945 4.55647C1.60314 4.26511 1.40472 3.8939 1.32433 3.48977C1.24395 3.08564 1.2852 2.66676 1.44289 2.28608C1.60057 1.9054 1.8676 1.58002 2.2102 1.3511C2.5528 1.12219 2.95559 1 3.36764 1C3.92017 1 4.45007 1.21949 4.84078 1.61019C5.23148 2.00089 5.45097 2.5308 5.45097 3.08333Z" stroke="white" stroke-linecap="round" stroke-linejoin="round"/>
</svg>
