<svg width="146" height="77" viewBox="0 0 146 77" fill="none" xmlns="http://www.w3.org/2000/svg">
<g clip-path="url(#clip0_1_6175)">
<path d="M73.0256 23.1564C72.8204 23.1564 72.6151 23.1564 72.4611 23.1564C71.8453 23.1564 71.2808 23.1051 70.665 23.1051C70.2031 23.0539 69.69 23.0539 69.2281 23.0027C68.7149 22.9514 68.2017 22.849 67.6885 22.7465C66.9188 22.644 66.2003 22.4904 65.4306 22.3367C64.4555 22.1317 63.4805 21.8756 62.5054 21.517C61.7357 21.2608 61.0172 21.0047 60.2987 20.646C59.1697 20.1337 58.1434 19.5702 57.117 18.853C56.6038 18.4943 56.142 18.187 55.7314 17.7259C55.5262 17.521 55.2696 17.316 55.0643 17.1111C54.2432 16.2402 53.5761 15.318 53.1142 14.2422C52.9089 13.7299 52.755 13.2688 52.6523 12.7053C52.5497 12.0905 52.5497 11.4757 52.601 10.8609C52.601 10.5023 52.7037 10.1437 52.8063 9.83633C52.9089 9.37525 53.1142 8.91417 53.3195 8.50433C53.6274 7.88956 53.9866 7.27479 54.4485 6.76248C54.9103 6.25017 55.3722 5.73786 55.8854 5.27678C56.5012 4.71324 57.1683 4.30339 57.8355 3.84232C58.6052 3.33001 59.4263 2.92016 60.2987 2.51031C61.2738 2.04924 62.3515 1.69062 63.3778 1.38323C64.1989 1.12708 64.9687 0.922157 65.7898 0.768464C66.2003 0.717234 66.6622 0.563541 67.0727 0.461079C67.2267 0.409848 67.432 0.409848 67.5859 0.409848C67.9965 0.358617 68.407 0.256156 68.8176 0.204925C69.0741 0.153694 69.3821 0.153694 69.69 0.153694C70.0492 0.102463 70.4084 0.0512323 70.819 0.0512323C70.8703 0.0512323 70.8703 0.0512323 70.9216 0.0512323C71.8453 0.0512323 72.7177 -0.0512295 73.6415 1.38301e-06C74.206 1.38301e-06 74.8218 1.38488e-06 75.3863 0.0512323C75.8481 0.102463 76.31 0.153694 76.8232 0.153694C77.2337 0.204925 77.6443 0.256156 78.0035 0.307387C78.3627 0.358617 78.6706 0.409848 79.0299 0.461079C79.3378 0.51231 79.697 0.563541 80.0049 0.666003C80.3641 0.768464 80.7747 0.819695 81.1339 0.922157C81.8524 1.12708 82.5708 1.28077 83.2893 1.53693C84.059 1.79308 84.8288 2.04924 85.5473 2.35662C86.3683 2.71524 87.1381 3.07385 87.8566 3.53493C88.1645 3.73986 88.5237 3.89355 88.8316 4.09847C89.1908 4.35463 89.5501 4.66201 89.9606 4.91817C90.4738 5.32801 90.9357 5.73786 91.3975 6.25017C91.8594 6.71125 92.2699 7.22355 92.5778 7.83832C92.9371 8.4531 93.245 9.1191 93.4502 9.83633C93.5016 10.1437 93.5529 10.4511 93.6555 10.7585C93.7582 11.0659 93.7068 11.4245 93.7068 11.7831C93.7068 12.1417 93.6555 12.5003 93.6042 12.859C93.4502 13.525 93.245 14.1397 92.9371 14.7545C92.6292 15.3693 92.2699 15.9328 91.8081 16.4451C91.3975 16.9062 90.9357 17.4185 90.4738 17.8283C89.858 18.3919 89.1908 18.853 88.4724 19.314C88.0618 19.5702 87.6513 19.8263 87.2408 20.0313C86.8815 20.2362 86.471 20.4411 86.0604 20.5948C85.2393 20.9534 84.3669 21.312 83.4945 21.5682C82.6734 21.8244 81.8523 22.0805 81.0313 22.2854C80.4668 22.4391 79.9536 22.5416 79.3891 22.5928C78.8246 22.6953 78.2601 22.7465 77.6956 22.849C77.285 22.9002 76.9258 22.9514 76.5153 22.9514C76.2074 22.9514 75.8995 23.0027 75.5915 23.0539C75.5402 23.0539 75.5402 23.0539 75.4889 23.0539C74.6165 23.1564 73.7954 23.1564 73.0256 23.1564ZM56.8091 8.04325C56.6552 8.14571 56.5012 8.19694 56.3473 8.2994C55.8341 8.55556 55.3722 8.86294 54.859 9.1191C54.8077 9.17033 54.8077 9.17033 54.8077 9.22156C55.013 9.58017 55.2696 9.99002 55.4748 10.3486C55.8854 11.0659 56.2959 11.7831 56.7065 12.5003C57.117 13.2176 57.5789 13.986 57.9894 14.7033C58.0921 14.9082 58.246 15.0619 58.3487 15.2668C58.4 15.3693 58.4513 15.3693 58.5539 15.318C58.6052 15.318 58.6053 15.2668 58.6566 15.2668C59.0158 15.0619 59.375 14.857 59.7342 14.652C59.9395 14.5496 60.0935 14.4471 60.2987 14.2934C60.3501 14.2934 60.4014 14.2422 60.3501 14.1397C60.0422 13.6274 59.7342 13.1151 59.4777 12.654C59.4263 12.6028 59.4263 12.5516 59.529 12.5003C59.8882 12.2954 60.1961 12.0905 60.5553 11.8856C60.9146 11.6806 61.2738 11.4757 61.633 11.2708C61.9922 11.0659 62.3002 10.8609 62.6594 10.7073C62.762 10.656 62.8133 10.656 62.9673 10.7073C63.3778 10.9634 63.7884 11.2196 64.1989 11.4757C64.8147 11.8856 65.4819 12.1929 66.149 12.5003C66.8675 12.8077 67.5859 13.0639 68.3044 13.2688C69.0228 13.4737 69.7413 13.6786 70.4597 13.7299C70.6137 13.7299 70.819 13.7811 70.9729 13.8323C71.0755 13.8323 71.1782 13.8836 71.1782 14.0373C71.1782 15.1643 71.1782 16.2914 71.1782 17.3673C71.1782 17.5722 71.1782 17.5722 70.9729 17.5722C70.511 17.5722 69.9979 17.5722 69.536 17.5722C69.2794 17.5722 69.2794 17.5722 69.2794 17.8283C69.2794 18.3919 69.2794 18.9554 69.2794 19.4677C69.2794 19.8776 69.2281 19.8263 69.6386 19.8263C71.8453 19.8263 74.052 19.8263 76.2074 19.8263C76.2587 19.8263 76.31 19.8263 76.4126 19.8263C76.5153 19.8263 76.5666 19.7751 76.5666 19.6727C76.5666 19.0067 76.5666 18.3407 76.5666 17.7259C76.5666 17.5722 76.5153 17.5722 76.4126 17.5722C76.156 17.5722 75.8994 17.5722 75.6942 17.5722C75.3863 17.5722 75.0784 17.5722 74.8218 17.5722C74.6678 17.5722 74.6165 17.521 74.6678 17.4185C74.6678 17.3673 74.6678 17.316 74.6678 17.316C74.6678 16.2402 74.6678 15.2156 74.6678 14.1397C74.6678 14.0885 74.6678 14.0373 74.6678 13.986C74.6678 13.8836 74.7191 13.8836 74.7704 13.8323C75.2323 13.7811 75.6942 13.7299 76.1047 13.6274C76.6179 13.525 77.1311 13.4225 77.6443 13.2688C78.2088 13.1151 78.7219 12.9102 79.2864 12.7053C79.7996 12.5003 80.3128 12.2442 80.826 11.988C81.2878 11.7319 81.7497 11.4757 82.2116 11.1171C82.4168 10.9634 82.6221 10.8097 82.8274 10.7073C82.8787 10.656 82.9813 10.6048 83.084 10.7073C83.2379 10.8097 83.3919 10.9122 83.5458 10.9634C84.1617 11.322 84.8288 11.6806 85.4446 12.0905C85.6499 12.2442 85.9065 12.3466 86.1118 12.5003C86.1631 12.5516 86.2144 12.5516 86.1631 12.654C85.8552 13.1663 85.5473 13.6786 85.2393 14.191C85.188 14.2422 85.188 14.2934 85.2907 14.3446C85.5473 14.4983 85.8038 14.652 86.1118 14.8057C86.4197 14.9594 86.7276 15.1643 87.0355 15.318C87.1381 15.3693 87.2408 15.3693 87.2921 15.2668C87.4973 14.9082 87.7026 14.6008 87.8566 14.2934C88.1132 13.8323 88.4211 13.3713 88.6777 12.9102C88.9856 12.3466 89.3448 11.7831 89.6527 11.2196C89.8067 10.9122 90.0119 10.6048 90.1659 10.2974C90.3198 9.99002 90.5251 9.68264 90.6791 9.37525C90.7817 9.17033 90.7817 9.17033 90.5764 9.01663C90.3712 8.91417 90.2172 8.81171 90.0119 8.70925C89.6014 8.4531 89.1908 8.24817 88.7803 7.99202C88.6263 8.24817 88.4724 8.50433 88.3184 8.76048C88.1645 9.01663 88.0105 9.32402 87.8566 9.58017C87.8052 9.63141 87.7539 9.6314 87.7026 9.6314C87.5487 9.52894 87.3434 9.42648 87.1894 9.37525C86.6763 9.06787 86.1631 8.76048 85.7012 8.50433C85.2393 8.24817 84.7775 7.99202 84.3156 7.73586C83.8024 7.42848 83.2893 7.12109 82.8274 6.86494C82.5708 6.71125 82.5708 6.76248 82.3142 6.91617C81.955 7.22355 81.5958 7.47971 81.2365 7.78709C80.826 8.09448 80.4154 8.35063 80.0049 8.60679C79.4917 8.91417 78.9785 9.1191 78.4654 9.37525C77.6443 9.7851 76.8232 10.0413 75.9508 10.2462C75.4889 10.3486 74.9757 10.4511 74.5139 10.5023C74.0007 10.5536 73.4875 10.6048 72.923 10.6048C72.5638 10.6048 72.1532 10.656 71.794 10.5536C71.5887 10.5023 71.3321 10.5536 71.0755 10.5023C70.5624 10.4511 70.1005 10.3486 69.6386 10.2462C68.9202 10.0925 68.253 9.88756 67.5859 9.58017C66.9701 9.32402 66.3543 9.01663 65.7898 8.70925C64.9687 8.2994 64.2502 7.78709 63.5318 7.17232C63.3778 7.01863 63.2239 6.91617 63.0699 6.81371C63.0186 6.76248 62.9673 6.76248 62.916 6.81371C62.6594 6.91617 62.4541 7.06986 62.1975 7.17232C61.4277 7.6334 60.658 8.04325 59.8882 8.50433C59.2211 8.86294 58.5539 9.27279 57.8868 9.6314C57.7842 9.68264 57.7328 9.73387 57.6815 9.58017C57.4249 9.06787 57.117 8.55556 56.8091 8.04325ZM78.3114 8.55556C78.4654 8.55556 78.6193 8.60679 78.7733 8.55556C79.2351 8.40187 79.6457 8.24817 79.9536 7.88956C80.4668 7.37725 80.6207 6.76248 80.5694 6.04524C80.5181 5.68663 80.4668 5.37924 80.2615 5.07186C80.1075 4.8157 79.9023 4.55955 79.6457 4.40586C79.0299 3.99601 78.414 3.84232 77.6956 4.04724C77.285 4.1497 76.8745 4.35463 76.5666 4.66201C76.156 5.12309 75.8994 5.68663 75.8994 6.35263C75.8994 6.9674 76.1047 7.47971 76.5666 7.94079C77.1311 8.2994 77.6443 8.55556 78.3114 8.55556ZM67.4833 8.55556C68.8176 8.55556 69.7926 7.53094 69.8439 6.3014C69.8439 4.9694 68.8175 3.99601 67.5859 3.94478C66.2003 3.89355 65.174 4.9694 65.174 6.25017C65.174 7.47971 66.149 8.55556 67.4833 8.55556ZM72.8717 9.6314C73.6415 9.68264 74.1546 9.37525 74.6165 8.9654C75.0784 8.50433 75.2836 7.94079 75.2836 7.32602C75.2836 6.71125 75.0784 6.09648 74.6165 5.68663C74.2059 5.27678 73.6928 5.07186 73.077 5.02063C71.6914 5.02063 70.7163 6.04524 70.7163 7.32602C70.665 8.60679 71.5887 9.6314 72.8717 9.6314Z" fill="#F27621"/>
<path d="M125.678 32.6853C125.267 32.6853 124.908 32.6853 124.498 32.6853C123.317 32.6853 122.137 32.6853 121.008 32.6853C120.803 32.6853 120.7 32.7365 120.598 32.9415C120.29 33.4538 119.93 34.0173 119.622 34.5296C119.315 35.0419 119.007 35.5542 118.647 36.0665C118.391 36.4764 118.134 36.8862 117.878 37.2961C117.57 37.8084 117.262 38.3207 116.954 38.7818C116.646 39.2941 116.338 39.8064 115.979 40.3187C115.876 40.4724 115.825 40.6261 115.825 40.831C115.825 44.3659 115.825 47.9009 115.825 51.3846C115.825 51.7944 115.876 51.7432 115.466 51.7432C112.695 51.7432 109.923 51.7432 107.152 51.7432C107.101 51.7432 107.05 51.7432 106.947 51.7432C106.793 51.7432 106.742 51.6919 106.793 51.5895C106.793 51.487 106.793 51.4358 106.793 51.3333C106.793 47.7984 106.793 44.2635 106.793 40.7798C106.793 40.5236 106.69 40.2675 106.536 40.0625C106.177 39.6015 105.869 39.1404 105.51 38.6793C104.997 37.9621 104.535 37.2961 104.022 36.5788C103.611 36.0153 103.201 35.4518 102.841 34.8882C102.38 34.2222 101.866 33.6075 101.456 32.9415C101.251 32.6341 101.045 32.5828 100.686 32.5828C95.9135 32.5828 91.1923 32.5828 86.4197 32.5828C86.0091 32.5828 86.0604 32.5316 86.0604 32.9415C86.0604 34.0173 86.0604 35.1444 86.0604 36.2202C86.0604 36.2715 86.0604 36.3739 86.0604 36.4252C86.0604 36.5276 86.1118 36.5276 86.2144 36.5276C86.317 36.5276 86.3684 36.5276 86.471 36.5276C89.0369 36.5276 91.6028 36.5276 94.22 36.5276C94.3227 36.5276 94.374 36.5276 94.4766 36.5276C94.5793 36.5276 94.6306 36.5788 94.6306 36.6813C94.6306 36.7325 94.6306 36.7838 94.6306 36.8862C94.6306 38.5256 94.6306 40.165 94.6306 41.8556C94.6306 41.9069 94.6306 41.9581 94.6306 42.0605C94.6306 42.163 94.5793 42.2142 94.5279 42.2142C94.4253 42.2142 94.374 42.2142 94.2713 42.2142C91.6541 42.2142 89.0882 42.2142 86.471 42.2142C86.0605 42.2142 86.1118 42.163 86.1118 42.5729C86.1118 45.493 86.1118 48.4132 86.1118 51.3846C86.1118 51.4358 86.1118 51.5383 86.1118 51.5895C86.1118 51.6919 86.0605 51.7944 85.9578 51.7432C85.9065 51.7432 85.8552 51.7432 85.7525 51.7432C83.084 51.7432 80.4155 51.7432 77.6956 51.7432C77.2851 51.7432 77.3364 51.7944 77.3364 51.3846C77.3364 43.4438 77.3364 35.503 77.3364 27.5622C77.3364 27.1524 77.2851 27.2036 77.6956 27.2036C87.6513 27.2036 97.5557 27.2036 107.511 27.2036C107.563 27.2036 107.614 27.2036 107.717 27.2036C107.768 27.2036 107.819 27.2036 107.871 27.3061C108.281 27.9721 108.743 28.6381 109.205 29.3041C109.872 30.2774 110.488 31.2508 111.155 32.2242C111.514 32.7365 111.822 33.2488 112.181 33.8124C112.284 33.9661 112.335 33.9661 112.438 33.8124C112.592 33.5562 112.746 33.3513 112.9 33.0951C113.31 32.4291 113.721 31.7631 114.131 31.0971C114.491 30.4824 114.85 29.9188 115.209 29.3041C115.517 28.7918 115.876 28.2794 116.184 27.7671C116.287 27.6134 116.389 27.511 116.441 27.3573C116.492 27.2548 116.595 27.2036 116.697 27.2036C116.749 27.2036 116.851 27.2036 116.903 27.2036C122.548 27.2036 128.141 27.2036 133.786 27.2036C133.94 27.2036 134.043 27.1524 134.197 27.1524C134.556 27.1011 134.864 27.0499 135.223 26.9987C135.531 26.9474 135.89 26.8962 136.198 26.8962C136.403 26.8962 136.609 26.8962 136.763 26.8962C136.968 26.8962 137.173 26.8962 137.379 26.8962C137.84 26.8962 138.302 26.9474 138.764 26.9987C139.021 27.0499 139.277 27.0499 139.534 27.0499C139.739 27.0499 139.996 27.1011 140.201 27.1524C140.458 27.2036 140.766 27.2548 141.022 27.3061C141.535 27.4085 141.997 27.511 142.51 27.6647C143.126 27.8696 143.742 28.0745 144.306 28.3307C144.717 28.4844 145.076 28.7405 145.538 28.8942C145.846 28.9967 145.897 29.2016 145.897 29.509C145.897 31.6607 145.897 33.8636 145.897 36.0153C145.897 36.0665 145.897 36.1178 145.897 36.2202C145.641 36.0665 145.333 35.9641 145.128 35.8104C144.358 35.3493 143.537 34.9395 142.716 34.5808C142.305 34.4271 141.895 34.2222 141.484 34.1198C141.073 33.9661 140.612 33.9148 140.15 33.8124C139.534 33.7099 138.918 33.7611 138.302 33.7611C137.943 33.7611 137.532 33.8636 137.173 33.9661C136.711 34.0685 136.25 34.2735 135.788 34.4784C135.48 34.6321 135.223 34.8882 134.915 35.0931C134.761 35.1956 134.607 35.3493 134.453 35.4518C133.992 35.8616 133.684 36.3739 133.427 36.9375C133.17 37.501 132.965 38.1158 132.863 38.7305C132.811 39.0892 132.76 39.499 132.76 39.8576C132.76 40.7798 132.914 41.6507 133.273 42.4704C133.581 43.2389 134.043 43.8536 134.659 44.3659C135.275 44.9295 136.044 45.2881 136.865 45.5442C137.327 45.6979 137.84 45.8004 138.354 45.8516C139.072 45.9541 139.79 46.0053 140.509 45.9541C140.919 45.9541 141.33 45.8516 141.741 45.7492C142.664 45.5442 143.588 45.1856 144.46 44.827C144.974 44.6221 145.538 44.4172 146.051 44.2122C146.103 44.161 146.154 44.2122 146.154 44.2635C146.154 44.3147 146.154 44.4172 146.154 44.4684C146.154 46.4664 146.154 48.4644 146.154 50.5136V50.5649C146.154 50.7698 146.154 50.7698 145.949 50.8723C145.282 51.1284 144.666 51.3846 143.999 51.5895C143.434 51.7944 142.818 51.9481 142.202 52.0506C141.843 52.1018 141.484 52.153 141.125 52.2043C141.125 52.2043 141.125 52.2043 141.073 52.2043C140.714 52.2043 140.355 52.2555 139.996 52.2555C139.277 52.3067 138.559 52.3067 137.84 52.3067C137.686 52.3067 137.481 52.4092 137.327 52.358C136.865 52.2555 136.403 52.358 135.942 52.2555C135.685 52.2043 135.428 52.2043 135.172 52.2043C134.967 52.153 134.71 52.153 134.505 52.1018C133.889 51.9481 133.273 51.8456 132.709 51.6407C131.99 51.3846 131.272 51.0772 130.553 50.7186C129.937 50.3599 129.322 50.0013 128.706 49.5403C128.244 49.1816 127.782 48.7718 127.32 48.3619C127.012 48.0546 126.756 47.7472 126.499 47.3886C126.243 47.0299 125.935 46.7226 125.729 46.3639C125.421 45.9541 125.165 45.493 124.96 45.0319C124.652 44.4684 124.395 43.9049 124.19 43.3413C124.036 42.829 123.933 42.3167 123.779 41.8044C123.677 41.4458 123.677 41.0872 123.574 40.7285C123.574 40.6773 123.574 40.6261 123.574 40.5236C123.574 40.3187 123.574 40.1138 123.574 39.9089C123.574 39.7039 123.574 39.499 123.574 39.2941C123.574 38.6793 123.677 38.1158 123.728 37.501C123.831 36.7838 124.036 36.0665 124.292 35.3493C124.498 34.837 124.652 34.2735 124.96 33.8124C125.216 33.5562 125.421 33.1464 125.678 32.6853Z" fill="#5789C7"/>
<path d="M47.4692 35.4518C47.7258 35.0932 48.0337 34.837 48.239 34.5296C48.7522 33.9149 49.368 33.4538 50.0351 33.0952C50.497 32.839 50.9589 32.6341 51.4207 32.3779C51.78 32.2242 52.1392 32.173 52.4984 32.173C52.7037 32.173 52.9603 32.173 53.1655 32.173C53.5248 32.2242 53.8327 32.2755 54.1919 32.2755C54.4998 32.2755 54.7564 32.3267 55.0643 32.4292C55.9367 32.6341 56.7065 32.9927 57.3736 33.5562C57.9381 34.0685 58.4513 34.5809 58.7592 35.2981C58.7592 35.3493 58.8105 35.4005 58.8105 35.4518C58.8619 35.5542 58.9132 35.5542 58.9645 35.4518C59.1698 35.2469 59.375 35.0419 59.5803 34.837C60.0935 34.3247 60.658 33.8124 61.2738 33.4538C61.9923 32.9927 62.762 32.6341 63.6344 32.4804C64.045 32.4292 64.4555 32.3779 64.9174 32.3779C65.0714 32.3779 65.2766 32.3267 65.4306 32.3267C65.8411 32.3267 66.2517 32.3267 66.6622 32.3779C67.3807 32.4804 68.1504 32.5828 68.8176 32.8902C69.2794 33.0952 69.69 33.3001 70.1005 33.6075C70.665 34.0685 71.1269 34.6321 71.4861 35.2981C71.8453 35.9641 72.0506 36.7326 72.2046 37.501C72.3072 38.0646 72.3585 38.6281 72.4098 39.1916C72.5125 40.3699 72.4612 41.5995 72.4612 42.7778C72.4612 43.9561 72.4612 45.1856 72.4612 46.364C72.4612 48.0546 72.4612 49.7452 72.4612 51.3846C72.4612 51.7432 72.5125 51.692 72.1533 51.692C69.7926 51.692 67.432 51.692 65.02 51.692C64.9687 51.692 64.9174 51.692 64.8148 51.692C64.7121 51.692 64.6608 51.6407 64.6608 51.5383C64.6608 51.4358 64.6608 51.3846 64.6608 51.2821C64.6608 47.5935 64.6608 43.8536 64.6608 40.165C64.6608 39.6527 64.4555 39.2429 64.1476 38.8842C63.891 38.5769 63.5831 38.3719 63.1726 38.2695C63.0699 38.2695 63.0186 38.2182 62.916 38.2182C62.7107 38.2182 62.5568 38.2182 62.3515 38.2182C61.5817 38.167 61.0685 38.5256 60.6067 39.0892C60.3501 39.3453 60.1448 39.6527 59.9395 39.9601C59.8882 40.0626 59.8369 40.1138 59.8369 40.2163C59.8369 40.3187 59.8369 40.4724 59.8369 40.5749C59.8369 44.161 59.8369 47.7472 59.8369 51.3333C59.8369 51.7432 59.8882 51.692 59.4777 51.692C57.2197 51.692 54.9617 51.692 52.7037 51.692C52.3445 51.692 52.3958 51.7432 52.3958 51.3846C52.3958 47.696 52.3958 44.0073 52.3958 40.2675C52.3958 39.499 52.0365 38.9355 51.3694 38.5769C51.2155 38.4744 51.0615 38.4232 50.9076 38.3207C50.7536 38.2182 50.5483 38.167 50.3944 38.2182C50.0865 38.2182 49.8299 38.167 49.522 38.2695C49.1627 38.3719 48.9061 38.5256 48.5982 38.7306C48.1877 39.0379 47.8798 39.4478 47.5719 39.8576C47.5206 39.9601 47.4692 40.0626 47.4692 40.165C47.4692 40.4212 47.4692 40.6261 47.4692 40.8823C47.4692 43.7 47.4692 46.5176 47.4692 49.3866C47.4692 50.1038 47.4179 50.8723 47.4179 51.5895C47.4179 51.692 47.3666 51.7432 47.264 51.7432C47.0587 51.7432 46.8534 51.7432 46.6995 51.7432C45.3652 51.7432 43.9796 51.7944 42.6453 51.7432C41.8242 51.692 41.0032 51.692 40.1821 51.692C40.0794 51.692 40.0281 51.6407 40.0281 51.5383C40.0281 51.487 40.0281 51.3846 40.0281 51.3333C40.0281 45.2881 40.0281 39.2429 40.0281 33.1976C40.0281 32.7878 39.9768 32.839 40.3873 32.839C42.6453 32.839 44.9547 32.839 47.2126 32.839C47.5719 32.839 47.5206 32.7878 47.5206 33.1464C47.4692 33.8636 47.4692 34.6321 47.4692 35.4518Z" fill="#5789C7"/>
<path d="M33.716 43.3413C32.8436 43.3413 31.9712 43.3926 31.0474 43.3413C30.0724 43.2901 29.046 43.2901 28.071 43.2901C27.0959 43.2901 26.1209 43.2901 25.0945 43.2901C24.9919 43.2901 24.8379 43.2901 24.7353 43.2901C24.7353 43.3926 24.7353 43.495 24.7866 43.5975C24.8379 44.0073 24.9919 44.4172 25.0945 44.827C25.2485 45.2881 25.5564 45.7492 25.9156 46.1078C26.2235 46.4152 26.6341 46.6201 27.0446 46.7738C27.4038 46.9275 27.7631 46.9787 28.1736 47.03C29.046 47.1837 29.9184 47.1324 30.7908 47.1324C31.1501 47.1324 31.5093 47.03 31.8685 46.9787C32.5357 46.8763 33.2028 46.6201 33.8699 46.4152C34.4344 46.2103 34.9989 45.9541 35.5634 45.7492C35.8713 45.6467 36.1279 45.5443 36.4358 45.3906C36.5385 45.3393 36.5385 45.3906 36.5385 45.493C36.5385 45.5443 36.5385 45.5955 36.5385 45.6467C36.5385 47.0812 36.5385 48.5157 36.5385 49.9501C36.5385 50.155 36.4871 50.3087 36.2819 50.4112C36.0766 50.5137 35.82 50.6673 35.6147 50.7698C34.8963 51.1284 34.1265 51.4358 33.3567 51.5895C33.1515 51.6407 32.8949 51.7432 32.6896 51.7944C32.3817 51.8457 32.0738 51.9481 31.7659 51.9994C31.304 52.0506 30.8935 52.0506 30.4316 52.153C29.9184 52.2555 29.4053 52.2043 28.8921 52.2043C28.5842 52.2043 28.2763 52.2043 28.0197 52.2043C27.5065 52.2043 27.0446 52.153 26.5314 52.1018C25.9156 52.0506 25.3511 51.9481 24.7866 51.7944C24.3248 51.6407 23.8116 51.487 23.3497 51.2821C22.8365 51.0772 22.3747 50.821 21.9128 50.5649C21.5023 50.3087 21.143 50.0013 20.7838 49.7452C20.6299 49.6427 20.5272 49.5403 20.3733 49.4378C19.9114 49.028 19.5009 48.5157 19.1416 48.0033C18.885 47.6447 18.5771 47.2349 18.4232 46.7738C18.2692 46.4152 18.1153 46.0566 17.9613 45.698C17.756 45.1344 17.6534 44.5709 17.6021 44.0073C17.5508 43.4438 17.4995 42.9315 17.4995 42.3679C17.4995 41.9581 17.5508 41.5483 17.6021 41.0872C17.6534 40.7286 17.7047 40.3699 17.8074 40.0113C17.91 39.5502 18.064 39.0892 18.2179 38.6281C18.3205 38.2695 18.5258 37.9621 18.6798 37.6547C19.039 36.9887 19.3982 36.3739 19.9627 35.8616C20.0654 35.7592 20.168 35.6055 20.3219 35.4518C20.8864 34.9395 21.5023 34.4272 22.1694 34.0685C22.8365 33.6587 23.555 33.4025 24.3248 33.1976C24.7353 33.0952 25.1458 33.0439 25.5564 32.9927C25.8643 32.9415 26.1209 32.9415 26.4288 32.9415C26.8907 32.8902 27.3525 32.9415 27.7631 32.9415C28.2249 32.9927 28.7381 33.0439 29.2 33.1464C29.5592 33.2489 29.9697 33.3001 30.329 33.4025C30.6369 33.505 30.9448 33.6587 31.2014 33.7612C31.9198 34.0173 32.5357 34.4272 33.1002 34.837C33.4594 35.0932 33.7673 35.4518 34.0752 35.7592C34.5884 36.2715 34.9989 36.835 35.3582 37.4498C35.82 38.2182 36.1279 39.0379 36.2819 39.9089C36.3845 40.3699 36.4358 40.831 36.4871 41.2921C36.5385 41.9581 36.4871 42.5729 36.5385 43.2389C36.5385 43.4438 36.5385 43.4438 36.3332 43.4438C35.5121 43.3413 34.6397 43.3413 33.716 43.3413ZM27.1986 40.5236C27.8657 40.5236 28.5842 40.5236 29.2513 40.5236C29.3026 40.5236 29.4053 40.5236 29.4566 40.5236C29.5079 40.5236 29.5079 40.4724 29.5079 40.4212C29.4566 40.0626 29.4053 39.7039 29.4053 39.3453C29.4053 38.9355 29.3026 38.5256 29.1487 38.1158C28.9434 37.5522 28.5842 37.1424 28.0197 36.9887C27.5065 36.8862 26.9933 36.835 26.5314 36.9887C25.8643 37.1424 25.4538 37.5522 25.1972 38.167C25.0432 38.4744 24.9919 38.833 24.9406 39.1916C24.8893 39.5503 24.8379 39.9089 24.8379 40.2675C24.8379 40.4724 24.8379 40.4724 25.0432 40.4724C25.7617 40.5236 26.4801 40.5236 27.1986 40.5236Z" fill="#5789C7"/>
<path d="M13.9585 38.8842C13.7532 38.7818 13.548 38.6793 13.394 38.5769C12.4703 38.0133 11.5466 37.6035 10.5202 37.3985C10.3149 37.3473 10.0583 37.3473 9.85306 37.3473C9.54516 37.3473 9.23725 37.3473 8.87802 37.3473C8.2622 37.3473 7.90298 37.6547 7.74902 38.167C7.64639 38.4744 7.64638 38.7305 7.64638 38.9867C7.64638 39.2429 7.80034 39.3965 8.00561 39.5502C8.41616 39.8576 8.8267 40.1138 9.33988 40.2675C9.59647 40.3699 9.85306 40.4724 10.0583 40.6261C10.6742 40.8822 11.2387 41.1384 11.8545 41.4458C12.419 41.7019 12.9321 42.0606 13.394 42.4704C13.8046 42.829 14.1638 43.1876 14.4717 43.6487C14.7796 44.1098 14.9849 44.6733 15.1388 45.2369C15.2928 45.8004 15.2928 46.4152 15.2415 46.9787C15.1901 47.491 15.0875 48.0546 14.8309 48.5156C14.6256 48.8743 14.4717 49.2329 14.2151 49.5403C14.0098 49.7452 13.8559 50.0013 13.6506 50.2063C13.394 50.4112 13.1887 50.6161 12.8808 50.821C12.7269 50.9235 12.5216 51.0772 12.3677 51.1796C11.9058 51.3846 11.4952 51.6407 11.0334 51.7944C10.6228 51.9481 10.2123 52.0506 9.75043 52.153C9.28856 52.2555 8.77538 52.3067 8.31352 52.358C7.74902 52.4092 7.18452 52.4092 6.62002 52.4092C6.2608 52.4092 5.90157 52.358 5.54234 52.3067C5.33707 52.3067 5.18312 52.2555 4.97784 52.2555C4.66994 52.2043 4.41334 52.2043 4.10544 52.1018C3.38698 51.9481 2.66853 51.7944 2.00139 51.5383C1.38558 51.3333 0.821077 51.1284 0.256578 50.8723C0.0513057 50.7698 -1.24611e-05 50.6673 -1.24611e-05 50.5136C-1.24611e-05 49.9501 -0.0513306 49.3353 -1.24611e-05 48.7718C0.102624 47.6447 -1.24611e-05 46.5176 0.0513056 45.3906C0.0513056 45.3393 0.0513056 45.3393 0.0513056 45.2881C0.564487 45.5955 1.07767 45.8516 1.59085 46.159C2.25798 46.5689 2.92512 46.9787 3.64357 47.3373C4.10544 47.5423 4.61862 47.6959 5.1318 47.7984C5.28575 47.8496 5.43971 47.7984 5.54234 47.7984C5.6963 47.7984 5.90157 47.8496 6.05552 47.7984C6.8253 47.6959 7.18452 47.2861 7.23584 46.6713C7.28716 46.2103 7.18452 45.8004 6.87661 45.4418C6.5687 45.0832 6.2608 44.827 5.85025 44.6221C5.08048 44.2122 4.36203 43.8024 3.59225 43.3926C2.92512 43.0339 2.25798 42.6241 1.69348 42.163C1.12899 41.7019 0.667123 41.1896 0.307896 40.5236C0.102624 40.165 -1.24611e-05 39.7552 -0.0513306 39.2941C-1.24611e-05 38.9355 -1.24611e-05 38.5768 -1.24611e-05 38.2695C0.0513056 37.1424 0.359214 36.1178 1.02635 35.1956C1.48821 34.5296 2.10403 34.0685 2.82248 33.7099C3.48962 33.3513 4.20807 33.0951 4.92653 32.9415C5.28575 32.839 5.64498 32.839 6.00421 32.7878C6.67134 32.6853 7.38979 32.7365 8.10825 32.7365C8.57011 32.7365 9.03197 32.839 9.54516 32.8902C9.90438 32.9415 10.2123 33.0439 10.5715 33.0951C11.1873 33.1976 11.7518 33.4025 12.3163 33.5562C12.8808 33.7099 13.394 33.9661 13.9585 34.2222C14.0611 34.2735 14.1125 34.3247 14.1125 34.4271C14.0098 35.9128 14.0098 37.3473 13.9585 38.8842Z" fill="#5789C7"/>
<path d="M110.18 60.6061C109.975 60.8111 109.821 61.016 109.667 61.1697C109.461 61.4258 109.256 61.6308 109.051 61.8869C108.897 62.0918 108.692 62.2968 108.538 62.5017C108.435 62.6042 108.127 62.6042 108.025 62.5017C107.665 62.0918 107.357 61.682 106.998 61.2721C106.844 61.0672 106.639 60.8623 106.434 60.6061C106.434 60.7598 106.434 60.8623 106.434 60.9648C106.434 62.0918 106.434 63.2189 106.434 64.346C106.434 64.3972 106.434 64.4997 106.434 64.5509C106.434 64.6534 106.382 64.7046 106.28 64.7046C105.767 64.7046 105.202 64.7046 104.689 64.7046C104.586 64.7046 104.535 64.6534 104.535 64.6022C104.535 64.5509 104.535 64.4997 104.535 64.3972C104.535 62.2455 104.535 60.0938 104.535 57.9421C104.535 57.5835 104.484 57.6348 104.843 57.6348C105.151 57.6348 105.51 57.686 105.818 57.6348C106.126 57.5835 106.28 57.7884 106.434 57.9421C106.639 58.1983 106.844 58.4545 107.05 58.6594C107.255 58.8643 107.409 59.1205 107.614 59.3254C107.768 59.5303 107.973 59.7352 108.127 59.9401C108.23 60.0426 108.281 60.0426 108.384 59.9401C108.486 59.7865 108.589 59.684 108.692 59.5303C109 59.1717 109.359 58.7618 109.667 58.4032C109.872 58.1471 110.077 57.9421 110.283 57.686C110.334 57.5835 110.437 57.5835 110.539 57.5835C110.95 57.5835 111.412 57.5835 111.822 57.5835C111.976 57.5835 111.976 57.5835 111.976 57.7885C111.976 58.8643 111.976 59.8889 111.976 60.9648C111.976 62.1431 111.976 63.2702 111.976 64.4485C111.976 64.7046 111.976 64.7046 111.719 64.6534C111.258 64.6534 110.796 64.6534 110.334 64.6534C110.077 64.6534 110.077 64.6534 110.077 64.3972C110.077 63.2189 110.077 62.0918 110.077 60.9135C110.18 60.8623 110.18 60.7598 110.18 60.6061Z" fill="#F27621"/>
<path d="M45.6218 61.1697C45.6218 60.0938 45.6218 59.0692 45.6218 57.9933C45.6218 57.9421 45.6218 57.8909 45.6218 57.8397C45.6218 57.6347 45.6218 57.6347 45.827 57.6347C45.8784 57.6347 45.8784 57.6347 45.9297 57.6347C47.4692 57.6347 49.0088 57.6347 50.5483 57.6347C50.5996 57.6347 50.6509 57.6347 50.7536 57.6347C50.8562 57.6347 50.8562 57.686 50.8562 57.7372C50.8562 57.9421 50.8562 58.1983 50.8562 58.4032C50.8562 58.5569 50.8562 58.7106 50.8562 58.8643C50.8562 59.0692 50.8562 59.0692 50.6509 59.0692C50.3943 59.0692 50.0864 59.0692 49.8298 59.0692C49.1627 59.0692 48.4443 59.0692 47.7771 59.0692C47.5719 59.0692 47.5719 59.0692 47.5719 59.2741C47.5719 59.5303 47.5719 59.8377 47.5719 60.0938C47.5719 60.2987 47.5719 60.2987 47.7771 60.2987C48.3929 60.2987 49.0088 60.2987 49.6759 60.2987C49.9838 60.2987 50.2404 60.2987 50.5483 60.2987C50.6509 60.2987 50.7023 60.35 50.7023 60.4524C50.7023 60.811 50.7023 61.2209 50.7023 61.5795C50.7023 61.7332 50.7023 61.7332 50.497 61.7332C49.6246 61.7332 48.8035 61.7332 47.9311 61.7332C47.8798 61.7332 47.7771 61.7332 47.7258 61.7332C47.6232 61.7332 47.5719 61.7844 47.5719 61.8869C47.5719 62.2967 47.5719 62.6554 47.5719 63.0652C47.5719 63.2189 47.6232 63.2189 47.7771 63.2189C48.239 63.2189 48.7522 63.2189 49.214 63.2189C49.7272 63.2189 50.2404 63.2189 50.7536 63.2189C50.9588 63.2189 50.9588 63.2189 50.9588 63.4238C50.9588 63.7824 50.9588 64.1411 50.9588 64.4997C50.9588 64.6534 50.9588 64.6534 50.7536 64.6534C50.343 64.6534 49.8812 64.6534 49.4706 64.6534C48.3416 64.6534 47.1613 64.6534 46.0323 64.6534C45.981 64.6534 45.8784 64.6534 45.827 64.6534C45.7244 64.6534 45.6731 64.6021 45.6731 64.4997C45.6731 64.1923 45.6731 63.9361 45.6731 63.6287C45.6218 62.8603 45.6218 62.0406 45.6218 61.1697Z" fill="#F27621"/>
<path d="M40.7979 70.3912C40.9005 70.2888 41.0031 70.2375 41.1058 70.1863C41.4137 69.9814 41.8242 69.8277 42.1835 69.8789C42.4914 69.8789 42.7993 69.8277 43.1072 69.9814C43.4664 70.1351 43.723 70.34 43.9796 70.6474L44.0309 70.6986C44.2362 70.5449 44.3901 70.3912 44.5441 70.2375C44.698 70.1351 44.9033 69.9814 45.1086 69.9302C45.2625 69.8789 45.4165 69.8789 45.5705 69.8277C45.7244 69.8277 45.8784 69.8277 45.981 69.8277C46.8021 69.7765 47.4692 70.3912 47.6745 71.1085C47.6745 71.1597 47.6745 71.2622 47.6745 71.3134C47.6745 72.3892 47.6745 73.4138 47.6745 74.4897C47.6745 74.7459 47.6745 74.6946 47.4179 74.6946C47.0074 74.6946 46.6481 74.6946 46.2376 74.6946C46.0323 74.6946 46.0323 74.6946 46.0323 74.4897C46.0323 73.8237 46.0323 73.1577 46.0323 72.4917C46.0323 72.2355 46.0323 72.0306 46.0323 71.7745C46.0323 71.4671 45.8784 71.2622 45.6731 71.0572C45.5191 70.9035 45.2625 70.9035 45.1086 70.9548C44.7494 71.0572 44.4415 71.3134 44.2362 71.672C44.1849 71.7232 44.1849 71.8257 44.1849 71.9282C44.1849 72.7478 44.1849 73.5675 44.1849 74.336C44.1849 74.3872 44.1849 74.4897 44.1849 74.5409C44.1849 74.6434 44.1335 74.6434 44.0822 74.6434C43.9283 74.6434 43.7743 74.6434 43.6204 74.6434C43.3125 74.6434 43.0559 74.6434 42.748 74.6434C42.5427 74.6434 42.5427 74.6434 42.5427 74.4385C42.5427 74.1311 42.5427 73.7725 42.5427 73.4651C42.5427 72.8503 42.5427 72.2868 42.5427 71.672C42.5427 71.1085 42.0808 70.7498 41.5163 70.9035C41.2084 71.006 41.0031 71.2109 40.7979 71.4671C40.7466 71.5183 40.7466 71.6208 40.7466 71.7232C40.7466 72.5942 40.7466 73.4651 40.7466 74.336C40.7466 74.6946 40.7979 74.6434 40.4386 74.6434C40.0794 74.6434 39.6689 74.6434 39.3096 74.6434C39.1044 74.6434 39.1044 74.6434 39.1044 74.4385C39.1044 73.67 39.1044 72.8503 39.1044 72.0818C39.1044 71.4158 39.1044 70.7498 39.1044 70.0326C39.1044 69.7765 39.1044 69.7765 39.361 69.7765C39.7715 69.7765 40.1821 69.7765 40.5926 69.7765C40.7466 69.7765 40.7466 69.7765 40.7979 69.9814C40.7979 70.1863 40.7979 70.2888 40.7979 70.3912Z" fill="#F27621"/>
<path d="M91.7568 70.6986C92.0133 70.4425 92.3213 70.1863 92.6805 70.0326C92.8858 69.9302 93.1423 69.8789 93.3476 69.8789C93.6555 69.8789 93.9121 69.8277 94.22 69.9302C94.8358 70.1351 95.2464 70.4937 95.4003 71.2622C95.4517 71.5183 95.4517 71.8257 95.4517 72.0819C95.4517 72.8503 95.4517 73.5676 95.4517 74.336C95.4517 74.3872 95.4517 74.4385 95.4517 74.4385C95.4517 74.8483 95.503 74.7971 95.0924 74.7971C94.7845 74.7971 94.4253 74.7971 94.1174 74.7971C94.0661 74.7971 94.0148 74.7971 93.9634 74.7971C93.8095 74.7971 93.8095 74.7459 93.8095 74.6434C93.8095 74.2336 93.8095 73.7725 93.8095 73.3626C93.8095 72.9528 93.8095 72.4917 93.8095 72.0819C93.8095 71.8769 93.7582 71.6208 93.6555 71.4159C93.5529 71.1085 93.091 70.9548 92.8344 71.0572C92.5265 71.1597 92.2699 71.3134 92.0647 71.6208C92.0133 71.7232 91.962 71.8257 91.962 71.9794C91.962 72.7991 91.962 73.6188 91.962 74.4897C91.962 74.5409 91.962 74.6434 91.962 74.6946C91.962 74.7971 91.9107 74.8483 91.8081 74.8483C91.3462 74.8483 90.8843 74.8483 90.4225 74.8483C90.3198 74.8483 90.2685 74.7971 90.2685 74.7459C90.2685 74.6946 90.2685 74.5922 90.2685 74.5409C90.2685 73.7212 90.2685 72.9016 90.2685 72.1331C90.2685 71.9794 90.2172 71.7745 90.1659 71.6208C90.0119 71.1597 89.4474 70.9548 88.9343 71.2622C88.8316 71.3134 88.7803 71.3646 88.729 71.4159C88.5237 71.5695 88.4211 71.7745 88.4211 72.0306C88.4724 72.8503 88.4211 73.67 88.4211 74.4897C88.4211 74.5409 88.4211 74.5922 88.4211 74.6946C88.4211 74.8996 88.4211 74.8996 88.2158 74.8996C87.8566 74.8996 87.5487 74.8996 87.1894 74.8996C86.7789 74.8996 86.7789 74.8996 86.7789 74.4897C86.7789 73.1065 86.7789 71.7745 86.7789 70.3912C86.7789 70.34 86.7789 70.2375 86.7789 70.1863C86.7789 70.0839 86.8302 70.0326 86.8815 70.0839H86.9328C87.3434 70.0839 87.8053 70.0839 88.2158 70.0839C88.3184 70.0839 88.4211 70.1351 88.3698 70.2375C88.3698 70.2888 88.3698 70.34 88.3698 70.3912C88.3698 70.4937 88.4211 70.4937 88.5237 70.4425C88.9343 70.1351 89.3448 69.9814 89.9093 69.9814C90.2172 69.9814 90.5251 69.9814 90.7817 70.0839C91.2436 70.1351 91.4488 70.4425 91.7568 70.6986Z" fill="#F27621"/>
<path d="M79.7996 73.3626C79.7996 73.5675 79.7996 73.8237 79.7996 74.0286C79.7996 74.1311 79.7483 74.1823 79.6457 74.2335C79.0812 74.5409 78.5167 74.7458 77.8496 74.7971C77.3877 74.8483 76.9258 74.8483 76.5153 74.8483C75.7968 74.7971 75.0784 74.6434 74.4626 74.1823C74.1547 73.9774 73.8981 73.7212 73.6928 73.4651C73.3849 73.0552 73.1283 72.5942 73.0257 72.1331C72.923 71.7232 72.8717 71.3134 72.9743 70.8523C73.0257 70.3912 73.1796 70.0326 73.3849 69.6228C73.8467 68.8031 74.4626 68.2395 75.335 67.9321C75.6942 67.8297 76.0534 67.7272 76.4127 67.676C76.8232 67.6248 77.2851 67.6248 77.6956 67.6248C78.3627 67.676 79.0299 67.8297 79.5944 68.1371C79.697 68.1883 79.7483 68.2908 79.7483 68.3932C79.7483 68.8543 79.7483 69.2641 79.7483 69.7252C79.7483 69.9301 79.6457 69.9814 79.4917 69.8789C79.0812 69.6228 78.6193 69.4178 78.1062 69.3154C77.439 69.2129 76.8232 69.1617 76.2074 69.4178C75.5402 69.674 75.1297 70.1863 74.9244 70.9035C74.8218 71.4158 74.9244 71.8769 75.2323 72.2355C75.5403 72.6454 75.9508 72.9528 76.5153 73.1065C76.7719 73.1577 77.0285 73.2601 77.2851 73.2089C77.593 73.2089 77.9009 73.1577 78.2088 73.0552C78.6706 72.9015 79.0812 72.7478 79.4917 72.5429C79.5431 72.4917 79.5944 72.4917 79.697 72.4405C79.7997 72.3892 79.851 72.4405 79.851 72.5429C79.851 72.7478 79.851 72.9528 79.851 73.1577C79.7997 73.2602 79.7996 73.3114 79.7996 73.3626Z" fill="#F27621"/>
<path d="M2.77117 57.5835C3.59226 57.4811 4.31071 57.7884 5.08048 58.0446C5.1318 58.0958 5.18312 58.0958 5.18312 58.1983C5.18312 58.6081 5.18312 59.018 5.18312 59.4278C5.18312 59.5815 5.1318 59.5815 5.02916 59.5815C4.97785 59.5815 4.92653 59.5815 4.87521 59.5303C4.66994 59.4791 4.46466 59.3766 4.31071 59.3254C3.95148 59.1717 3.59226 59.1204 3.18171 59.018C2.8738 58.9667 2.61721 59.018 2.36062 59.1204C2.25799 59.1204 2.15535 59.2229 2.10403 59.2741C2.00139 59.4278 2.00139 59.6327 2.20667 59.7864C2.41194 59.9401 2.66853 60.0426 2.92512 60.1451C3.33567 60.2987 3.74621 60.4524 4.15676 60.6574C4.46466 60.8111 4.77257 61.0672 5.02916 61.2721C5.38839 61.5283 5.49103 61.9381 5.54234 62.3992C5.59366 62.7066 5.54234 63.014 5.49103 63.2701C5.38839 63.68 5.18312 63.9874 4.82389 64.2435C4.36203 64.5509 3.84885 64.7558 3.28435 64.7558C3.07908 64.7558 2.92512 64.8071 2.71985 64.8071C1.89876 64.7558 1.12899 64.6021 0.410534 64.1411C0.359216 64.0898 0.307897 64.0386 0.307897 63.9874C0.307897 63.5263 0.307897 63.014 0.307897 62.5529C0.307897 62.3992 0.359216 62.3992 0.51317 62.4504C0.821078 62.6554 1.12899 62.8603 1.4369 63.014C1.89876 63.2189 2.36062 63.3726 2.8738 63.3214C3.13039 63.3214 3.38698 63.2701 3.54094 63.0652C3.74621 62.8603 3.74621 62.6041 3.48962 62.4504C3.28435 62.2968 3.07907 62.1943 2.82248 62.0918C2.36062 61.8869 1.89876 61.7332 1.48821 61.5283C1.12899 61.3746 0.821078 61.1697 0.615806 60.8623C0.359216 60.6061 0.205261 60.2475 0.205261 59.8889C0.205261 59.684 0.205261 59.4791 0.205261 59.2741C0.256579 58.8131 0.461852 58.4032 0.821078 58.0958C1.38558 57.6347 2.00139 57.481 2.71985 57.481C2.61721 57.5835 2.71985 57.5835 2.77117 57.5835Z" fill="#F27621"/>
<path d="M57.8355 60.1451C58.0921 60.0426 58.3487 59.8889 58.6566 59.8377C59.0158 59.7864 59.3237 59.7864 59.6316 59.8889C60.504 60.1451 61.0172 60.7598 61.2225 61.682C61.3251 62.2455 61.2738 62.8091 61.1198 63.3726C61.0172 63.6288 60.9146 63.8337 60.7606 63.9874C60.4527 64.346 60.0935 64.6021 59.6829 64.6534C59.3237 64.7046 59.0158 64.8071 58.6566 64.7046C58.4 64.6534 58.1434 64.6021 57.8868 64.5509C57.8868 64.8071 57.8868 65.0632 57.8868 65.3706C57.8868 65.8317 57.8868 66.2928 57.8868 66.7538C57.8868 66.9588 57.8868 66.9588 57.7328 66.9588C57.3223 66.9588 56.8604 66.9588 56.4499 66.9588C56.3473 66.9588 56.2959 66.9075 56.2959 66.8051C56.2959 66.7538 56.2959 66.7026 56.2959 66.6001C56.2959 64.4484 56.2959 62.2968 56.2959 60.1451C56.2959 59.7864 56.2446 59.8377 56.6552 59.7864C57.0144 59.7864 57.3736 59.7864 57.7328 59.7864C57.7842 59.8889 57.7842 59.8889 57.8355 60.1451ZM57.7842 62.348C57.7842 62.6041 57.7842 62.9115 57.7842 63.1677C57.7842 63.2701 57.7842 63.3726 57.8868 63.4238C58.0921 63.5775 58.2973 63.68 58.5026 63.6288C58.8618 63.5775 59.2211 63.4238 59.375 63.0652C59.6316 62.6041 59.6316 62.0918 59.4263 61.5795C59.2724 61.2209 58.9645 60.9647 58.6053 60.9647C58.2973 60.9647 58.0408 61.0672 57.7842 61.2721C57.7328 61.3234 57.7328 61.3746 57.7328 61.4771C57.7842 61.8357 57.7842 62.0918 57.7842 62.348Z" fill="#F27621"/>
<path d="M122.034 59.9914C122.034 59.7864 122.034 59.5303 122.034 59.2741C122.034 58.813 122.034 58.3007 122.034 57.8397C122.034 57.6347 122.034 57.6347 122.188 57.6347C122.599 57.6347 123.061 57.6347 123.471 57.6347C123.574 57.6347 123.625 57.686 123.625 57.7884C123.625 57.8397 123.625 57.8909 123.625 57.9421C123.625 60.0938 123.625 62.2455 123.625 64.3972C123.625 64.7558 123.677 64.7046 123.317 64.7046C122.958 64.7046 122.599 64.7046 122.24 64.7046C122.034 64.7046 122.034 64.7046 121.983 64.4997C121.727 64.6534 121.47 64.7558 121.162 64.8071C120.7 64.8583 120.341 64.8071 119.93 64.6534C119.776 64.6021 119.622 64.5509 119.52 64.4484C119.109 64.0898 118.75 63.68 118.647 63.1164C118.545 62.5529 118.493 61.9381 118.699 61.3746C118.904 60.8111 119.263 60.35 119.776 60.0426C119.982 59.9401 120.187 59.8889 120.392 59.8377C120.546 59.7864 120.649 59.7864 120.803 59.7864C121.265 59.7864 121.624 59.8889 122.034 59.9914ZM122.034 62.2455C122.034 61.9381 122.034 61.682 122.034 61.3746C122.034 61.3234 121.983 61.2209 121.983 61.2209C121.778 61.1184 121.521 60.9647 121.265 61.016C120.905 61.016 120.598 61.1697 120.444 61.5283C120.187 61.9381 120.136 62.3992 120.29 62.8603C120.444 63.2701 120.649 63.6287 121.111 63.68C121.367 63.7312 121.573 63.6287 121.778 63.5263C121.983 63.4238 122.086 63.2701 122.086 63.014C122.034 62.7578 122.034 62.5017 122.034 62.2455Z" fill="#F27621"/>
<path d="M40.0281 59.9914C40.0281 59.3254 40.0281 58.6594 40.0281 58.0446C40.0281 57.9421 40.0281 57.8909 40.0281 57.7884C40.0281 57.686 40.0794 57.6347 40.1821 57.6347C40.6439 57.6347 41.1058 57.6347 41.5676 57.6347C41.6703 57.6347 41.7216 57.686 41.7216 57.7372C41.7216 57.7884 41.7216 57.8397 41.7216 57.9421C41.7216 60.0938 41.7216 62.2455 41.7216 64.3972C41.7216 64.7558 41.7729 64.7046 41.4137 64.7046C41.0545 64.7046 40.6439 64.7046 40.2847 64.7046C40.0794 64.7046 40.0794 64.7046 40.0794 64.4997C39.8228 64.6534 39.5662 64.7558 39.2583 64.8071C38.7965 64.9095 38.3859 64.8071 38.0267 64.6534C37.9241 64.6021 37.8214 64.5509 37.7188 64.4997C37.2056 64.1411 36.8464 63.68 36.6924 63.0652C36.5385 62.4504 36.5898 61.8869 36.7951 61.2721C36.8977 60.9135 37.103 60.6574 37.4109 60.4012C37.6675 60.145 37.9754 59.9914 38.2833 59.8889C38.6425 59.7864 39.0017 59.7352 39.361 59.8377C39.5149 59.8889 39.7715 59.9401 40.0281 59.9914ZM40.0281 62.2455C40.0281 62.0406 40.0281 61.8357 40.0281 61.6307C40.0281 61.1697 39.9768 61.1184 39.5662 61.016C39.5149 61.016 39.4636 61.016 39.4636 61.016C39.2583 60.9135 39.1044 61.016 38.9504 61.0672C38.7451 61.1184 38.5912 61.2721 38.4886 61.4258C38.1806 62.0406 38.1293 62.6554 38.4886 63.2189C38.5912 63.4238 38.7965 63.5263 39.0531 63.6287C39.3096 63.7312 39.5149 63.6287 39.7202 63.5263C39.9255 63.4238 40.0794 63.2701 40.0281 62.9627C39.9768 62.7578 40.0281 62.5017 40.0281 62.2455Z" fill="#F27621"/>
<path d="M18.5258 71.2622C18.5258 72.338 18.5258 73.4138 18.5258 74.4897C18.5258 74.5409 18.5258 74.6434 18.5258 74.6946C18.5258 74.7971 18.4745 74.7971 18.3719 74.7971H18.3205C17.91 74.7971 17.4481 74.7971 17.0376 74.7971C16.935 74.7971 16.8323 74.7971 16.8836 74.6434C16.8836 74.5409 16.8323 74.5409 16.781 74.5922C16.3705 74.8483 15.9086 74.8995 15.3954 74.8483C14.9849 74.7971 14.6256 74.6434 14.3177 74.3872C13.9072 74.0286 13.5993 73.5675 13.4966 73.004C13.4453 72.6966 13.394 72.4405 13.4453 72.0818C13.4966 71.7745 13.4966 71.5183 13.6506 71.2109C13.7532 71.006 13.8559 70.8011 14.0098 70.6474C14.2151 70.3912 14.4204 70.1863 14.7283 70.0326C14.9849 69.9301 15.2928 69.8277 15.5494 69.8277C15.9599 69.8277 16.3705 69.8277 16.781 69.9814L16.8836 69.9302C16.8836 69.8789 16.8836 69.7765 16.8836 69.7252C16.8836 69.1105 16.8836 68.4957 16.8836 67.8809C16.8836 67.676 16.8836 67.676 17.0889 67.676C17.4995 67.676 17.91 67.676 18.3205 67.676C18.4745 67.676 18.5258 67.676 18.5258 67.8809C18.5258 68.3932 18.5258 68.9568 18.5258 69.4691C18.5258 70.0326 18.5258 70.6474 18.5258 71.2622ZM16.8836 72.338C16.8836 72.1331 16.8836 71.9282 16.8836 71.7232C16.8836 71.2109 16.8836 71.1597 16.3705 71.0572C15.8573 70.9548 15.4467 71.2109 15.2928 71.6208C15.0875 72.0818 15.0875 72.5429 15.2928 73.0552C15.5494 73.7212 16.1652 73.9262 16.8323 73.4651C16.935 73.4138 16.935 73.3114 16.935 73.2089C16.8836 72.9015 16.8836 72.6454 16.8836 72.338Z" fill="#F27621"/>
<path d="M93.2963 64.4997C93.0397 64.6534 92.7831 64.7558 92.4752 64.8071C91.8594 64.9095 91.3462 64.8071 90.8844 64.4485C90.3712 64.0898 90.0633 63.5775 89.9606 62.9115C89.9093 62.6554 89.9093 62.3992 89.9093 62.1431C89.9093 61.6308 90.0119 61.1697 90.3198 60.7598C90.6791 60.2987 91.1409 59.9401 91.7568 59.8377C92.2699 59.7352 92.7318 59.7864 93.1937 59.9401C93.3476 59.9914 93.3476 59.9914 93.3476 59.8377C93.3476 59.2229 93.3476 58.6594 93.3476 58.0446C93.3476 57.9934 93.3476 57.8909 93.3476 57.8397C93.3476 57.686 93.3989 57.686 93.5016 57.686C93.9121 57.686 94.374 57.686 94.7845 57.686C94.8872 57.686 94.9385 57.7372 94.9385 57.8397C94.9385 57.8909 94.9385 57.9421 94.9385 58.0446C94.9385 60.1963 94.9385 62.2968 94.9385 64.4485C94.9385 64.4485 94.9385 64.4485 94.9385 64.4997C94.9385 64.8583 94.9898 64.8071 94.6306 64.8071C94.2713 64.8071 93.9121 64.8071 93.5529 64.8071C93.3476 64.7046 93.3476 64.7046 93.2963 64.4997ZM93.3476 62.2455C93.3476 61.9894 93.3476 61.7332 93.3476 61.5283C93.3989 61.2721 93.245 61.1697 93.0397 61.0672C92.5265 60.8623 91.9107 61.0672 91.7054 61.5795C91.6541 61.7844 91.6028 61.9894 91.6028 62.1431C91.5515 62.4504 91.6028 62.7578 91.7568 63.0652C91.9107 63.5263 92.5778 63.8849 93.1937 63.4751C93.3476 63.3726 93.4503 63.2701 93.4503 63.0652C93.2963 62.8091 93.3476 62.5017 93.3476 62.2455Z" fill="#F27621"/>
<path d="M28.7894 59.9914C28.7894 59.3254 28.7894 58.6594 28.7894 58.0446C28.7894 57.9421 28.7894 57.8909 28.7894 57.7884C28.7894 57.686 28.8408 57.6347 28.9434 57.6347C29.4053 57.6347 29.8671 57.6347 30.329 57.6347C30.4316 57.6347 30.4829 57.686 30.4829 57.7372C30.4829 57.7884 30.4829 57.8397 30.4829 57.9421C30.4829 60.0938 30.4829 62.2455 30.4829 64.3972C30.4829 64.7558 30.5343 64.7046 30.175 64.7046C29.8158 64.7046 29.4053 64.7046 29.046 64.7046C28.9434 64.7046 28.8408 64.7046 28.8408 64.6021C28.8408 64.6021 28.7381 64.5509 28.7381 64.6021C28.4815 64.7558 28.1736 64.8071 27.8657 64.8583C27.7631 64.8583 27.6604 64.8583 27.5578 64.8583C27.3012 64.8071 26.9933 64.7558 26.7367 64.6534C26.4288 64.5509 26.1722 64.2947 25.967 64.0386C25.7104 63.7312 25.5564 63.3726 25.4538 62.9627C25.4025 62.8091 25.4538 62.6554 25.4025 62.5017C25.4025 62.3992 25.3511 62.348 25.3511 62.2455C25.4025 61.8357 25.4025 61.3746 25.659 60.9647C26.0183 60.35 26.5315 59.9401 27.3012 59.8377C27.7631 59.7352 28.2763 59.8377 28.7894 59.9914ZM28.7894 62.2455C28.7894 61.9381 28.7894 61.6307 28.7894 61.3234C28.7894 61.2209 28.7894 61.1184 28.6868 61.0672C28.3276 60.9135 27.9684 60.8623 27.6604 61.016C27.5578 61.0672 27.4552 61.1184 27.4039 61.2209C26.9933 61.7844 26.9933 62.7066 27.4039 63.2701C27.6091 63.4751 27.8657 63.6287 28.1223 63.6287C28.3276 63.6287 28.5842 63.5263 28.7381 63.3726C28.7894 63.3214 28.8408 63.2701 28.8408 63.1677C28.7894 62.9115 28.7894 62.6041 28.7894 62.2455Z" fill="#F27621"/>
<path d="M28.1223 71.2109C28.1223 70.1351 28.1223 69.1105 28.1223 68.0346C28.1223 67.9834 28.1223 67.8809 28.1223 67.8297C28.1223 67.7272 28.1736 67.7272 28.2763 67.7272C28.3276 67.7272 28.3789 67.7272 28.4302 67.7272C29.8671 67.7272 31.3554 67.7272 32.7923 67.7272C32.8436 67.7272 32.8949 67.7272 32.9462 67.7272C33.0489 67.7272 33.1002 67.7785 33.1002 67.8809C33.1002 68.2908 33.1002 68.6494 33.1002 69.0592C33.1002 69.1617 33.0489 69.2129 32.9975 69.2129C32.9462 69.2129 32.8436 69.2129 32.7923 69.2129C31.9712 69.2129 31.2014 69.2129 30.3803 69.2129C30.329 69.2129 30.2264 69.2129 30.175 69.2129C30.1237 69.2129 30.0724 69.2642 30.0724 69.3154C30.0724 69.674 30.0724 70.0839 30.0724 70.4425C30.0724 70.4937 30.1237 70.5449 30.175 70.5449C30.2264 70.5449 30.329 70.5449 30.3803 70.5449C31.2014 70.5449 32.0225 70.5449 32.8949 70.5449C33.1515 70.5449 33.1002 70.5449 33.1002 70.8011C33.1002 71.1597 33.1002 71.4671 33.1002 71.8257C33.1002 72.0306 33.1002 72.0306 32.8949 72.0306C32.1251 72.0306 31.304 72.0306 30.5343 72.0306C30.3803 72.0306 30.2777 72.0306 30.1237 72.0306C30.1237 72.1843 30.0724 72.338 30.0724 72.4917C30.0724 73.2089 30.0724 73.9262 30.0724 74.6434C30.0724 74.8996 30.0724 74.8996 29.8158 74.8996C29.3539 74.8996 28.8921 74.8996 28.4302 74.8996C28.1223 74.8996 28.1736 74.9508 28.1736 74.6434C28.1223 73.4139 28.1223 72.2868 28.1223 71.2109Z" fill="#F27621"/>
<path d="M67.1754 72.1331C67.3807 71.672 67.5859 71.2621 67.7399 70.8523C67.8425 70.5961 67.9452 70.34 68.0478 70.0838C68.0991 69.9814 68.1504 69.9301 68.2531 69.9301C68.7149 69.9301 69.1255 69.9301 69.5873 69.9301C69.7926 69.9301 69.8439 69.9814 69.7413 70.1863C69.6387 70.4937 69.4847 70.7498 69.3821 71.0572C69.1255 71.5695 68.8689 72.1331 68.6636 72.6454C68.3557 73.3626 68.0478 74.0798 67.6886 74.7971C67.5859 75.0532 67.432 75.3606 67.278 75.6168C67.1241 75.9754 66.9701 76.2828 66.8162 76.6414C66.7648 76.6926 66.7648 76.7951 66.7135 76.8463C66.6622 76.9488 66.6109 76.9488 66.5083 76.9488C66.0464 76.9488 65.5332 76.9488 65.0713 76.9488C64.9687 76.9488 64.9174 76.8975 64.9174 76.7951C64.9687 76.6414 65.02 76.5389 65.0713 76.3852C65.3279 75.8217 65.5845 75.2582 65.8411 74.6946C65.9438 74.4897 66.0464 74.2848 66.149 74.0286C66.2003 73.9262 66.2003 73.8237 66.149 73.67C65.9951 73.3626 65.8411 73.0552 65.6872 72.7478C65.3279 72.0306 64.9687 71.2621 64.6608 70.5449C64.6095 70.3912 64.5068 70.2375 64.4555 70.0838C64.4042 69.9301 64.4042 69.9301 64.5582 69.9301C65.0713 69.9301 65.5332 69.9301 66.0464 69.9301C66.149 69.9301 66.2003 69.9814 66.2003 70.0326C66.4056 70.4937 66.5596 71.006 66.7648 71.4671C67.0214 71.672 67.1241 71.8769 67.1754 72.1331Z" fill="#F27621"/>
<path d="M66.2003 62.2455C66.2003 62.7066 66.2003 63.0652 66.2003 63.4238C66.2003 63.6288 66.303 63.68 66.4569 63.5775C66.5596 63.5263 66.6622 63.4238 66.7648 63.3726C66.8675 63.3214 66.9188 63.3214 66.9701 63.4751C66.9701 63.7312 66.9701 63.9361 66.9701 64.1923C66.9701 64.2948 66.9188 64.3972 66.8161 64.4485C66.5082 64.6022 66.2003 64.7046 65.8411 64.7558C65.5845 64.8071 65.3792 64.8071 65.1227 64.7558C64.9174 64.7046 64.7634 64.6534 64.6608 64.4485C64.6095 64.346 64.5582 64.346 64.4555 64.3972C64.0963 64.6021 63.6857 64.7046 63.2752 64.7558C62.8133 64.8071 62.4028 64.6534 62.0436 64.2948C61.7357 63.9874 61.6843 63.6288 61.7357 63.2189C61.787 62.7066 62.1462 62.4505 62.5054 62.2455C62.9673 61.9894 63.4292 61.8869 63.9423 61.682C64.045 61.6308 64.1476 61.6308 64.3016 61.5795C64.5582 61.4771 64.5582 61.4771 64.4555 61.2721C64.3529 61.0672 64.2502 61.016 64.045 60.9648C63.5318 60.8623 63.0699 61.0672 62.6081 61.3234C62.4541 61.4258 62.3002 61.5283 62.1462 61.6308C62.0436 61.682 61.9923 61.682 61.9923 61.5283C61.9923 61.1697 61.9923 60.8111 61.9923 60.4524C61.9923 60.2988 62.0949 60.2475 62.1975 60.1963C62.5054 60.0426 62.8133 59.9401 63.1212 59.8377C63.4805 59.7352 63.8397 59.684 64.1989 59.7352C64.6608 59.7864 65.1227 59.8377 65.5332 60.0426C65.8411 60.2475 66.0464 60.5037 66.0977 60.8623C66.2517 61.3746 66.149 61.8869 66.2003 62.2455ZM64.5582 62.5529C64.3529 62.6554 64.1476 62.7066 63.9423 62.8091C63.891 62.8603 63.7884 62.8603 63.7371 62.9115C63.6344 63.014 63.5318 63.1165 63.4805 63.2189C63.3265 63.5263 63.5318 63.7825 63.8397 63.7825C64.0963 63.7825 64.3016 63.68 64.4555 63.5263C64.5068 63.4751 64.5582 63.4238 64.5582 63.3726C64.5582 63.0652 64.5582 62.8091 64.5582 62.5529Z" fill="#F27621"/>
<path d="M35.5634 62.2455C35.5634 62.6041 35.5634 62.9628 35.5634 63.3214C35.5634 63.3726 35.5634 63.4238 35.5634 63.5263C35.6148 63.68 35.7174 63.7312 35.82 63.68C35.9227 63.6288 36.0253 63.5775 36.1279 63.5263C36.2819 63.4238 36.3332 63.4238 36.3332 63.6288C36.3332 63.7825 36.3332 63.8849 36.3332 64.0386C36.3332 64.4997 36.3332 64.4997 35.9227 64.7046C35.7174 64.8071 35.4608 64.8583 35.2555 64.9095C35.2042 64.9095 35.1529 64.9095 35.1016 64.9095C34.691 65.012 34.3831 64.9095 34.1265 64.6022C34.0752 64.5509 34.0239 64.4997 33.9213 64.5509C33.716 64.6534 33.5107 64.7558 33.3054 64.8071C32.9462 64.9095 32.5357 64.9608 32.1764 64.8583C31.7659 64.7558 31.458 64.4997 31.304 64.0898C31.2527 63.9361 31.2527 63.7825 31.2527 63.6288C31.2527 63.4238 31.2527 63.2189 31.3554 63.014C31.5093 62.7066 31.7146 62.5529 32.0225 62.3992C32.4844 62.1431 32.9975 61.9894 33.5107 61.8357C33.6647 61.7845 33.7673 61.7332 33.9213 61.7332C34.0239 61.682 34.0752 61.6308 34.0239 61.5283C33.9726 61.3234 33.8186 61.1697 33.6133 61.1185C33.4081 61.0672 33.1515 61.1185 32.9462 61.1697C32.5357 61.2721 32.1764 61.4771 31.8172 61.7845L31.7659 61.8357C31.6633 61.8869 31.6119 61.8357 31.6119 61.7332C31.6119 61.3746 31.6119 60.9648 31.6119 60.6061C31.6119 60.5549 31.6119 60.5037 31.7146 60.4525C32.0225 60.2475 32.3817 60.1451 32.6896 60.0426C33.1002 59.9401 33.4594 59.8889 33.8699 59.9401C34.3318 59.9914 34.7937 60.0426 35.1529 60.2988C35.5121 60.5549 35.7174 60.9135 35.7174 61.3234C35.6148 61.5283 35.5634 61.8869 35.5634 62.2455ZM33.9213 62.5017C33.6133 62.6554 33.3054 62.8091 33.0488 62.9628C32.8949 63.0652 32.8436 63.2702 32.8436 63.4238C32.8436 63.5775 32.9975 63.68 33.1515 63.7312C33.4594 63.7825 33.6647 63.6288 33.9213 63.4751C33.9213 63.4751 33.9726 63.4238 33.9726 63.3726C33.9213 63.1165 33.9213 62.8091 33.9213 62.5017Z" fill="#F27621"/>
<path d="M145.179 62.1943C145.179 62.5017 145.179 62.8603 145.179 63.1677C145.179 63.2189 145.179 63.2701 145.179 63.3726C145.179 63.6288 145.333 63.68 145.538 63.5775C145.641 63.5263 145.692 63.4751 145.743 63.4238C145.846 63.3726 145.949 63.4238 145.949 63.5775C145.949 63.7312 145.949 63.9361 145.949 64.0898C146 64.346 145.846 64.4997 145.641 64.5509C145.384 64.6534 145.179 64.7046 144.922 64.7558C144.666 64.8071 144.409 64.8583 144.153 64.7558C143.999 64.7046 143.896 64.6534 143.793 64.5509C143.588 64.346 143.588 64.346 143.331 64.4997C143.024 64.7046 142.664 64.7558 142.305 64.8071C141.689 64.8583 141.227 64.6534 140.868 64.0898C140.817 64.0386 140.817 63.9874 140.817 63.9361C140.714 63.4751 140.714 63.014 141.073 62.6041C141.176 62.4504 141.381 62.348 141.535 62.2968C141.997 62.0406 142.51 61.9381 142.972 61.7332C143.126 61.682 143.28 61.6308 143.383 61.6308C143.485 61.6308 143.485 61.5795 143.485 61.4771C143.485 61.2721 143.229 61.0672 143.024 61.016C142.562 60.9135 142.151 61.0672 141.792 61.2721C141.587 61.3746 141.381 61.5283 141.176 61.682C141.125 61.7332 141.073 61.7332 141.022 61.7332L140.971 61.6308C140.971 61.2721 140.971 60.9135 140.971 60.5549C140.971 60.4524 140.971 60.4012 141.073 60.35C141.535 60.0938 141.997 59.8889 142.562 59.8889C142.767 59.8889 142.972 59.8377 143.177 59.8377C143.537 59.8377 143.896 59.8889 144.255 60.0426C144.563 60.1451 144.82 60.35 144.974 60.6061C145.076 60.7598 145.076 60.9648 145.128 61.1697C145.179 61.4771 145.179 61.8357 145.179 62.1943ZM143.537 62.5017C143.28 62.6041 143.075 62.7066 142.87 62.8091C142.716 62.9115 142.562 62.9628 142.51 63.1677C142.408 63.4238 142.562 63.68 142.818 63.7312C143.024 63.7312 143.177 63.6288 143.383 63.5775C143.485 63.5263 143.537 63.4751 143.537 63.3726C143.537 63.0652 143.537 62.8091 143.537 62.5017Z" fill="#F27621"/>
<path d="M86.1118 62.1943C86.1118 62.5529 86.1118 62.8603 86.1118 63.2189C86.1118 63.2701 86.1118 63.3214 86.1118 63.3726C86.1118 63.6287 86.2657 63.7312 86.471 63.5775C86.5223 63.5263 86.6249 63.4751 86.6763 63.4751C86.7789 63.4238 86.8815 63.4751 86.8815 63.5775C86.8815 63.8337 86.8815 64.0386 86.8815 64.2947C86.8815 64.3972 86.8302 64.3972 86.7789 64.4484C86.5223 64.6534 86.1631 64.7046 85.8552 64.8071C85.6499 64.8583 85.3933 64.9095 85.1367 64.8583C84.9314 64.8071 84.7775 64.7558 84.6235 64.6021C84.5722 64.4997 84.4696 64.4997 84.3669 64.5509C84.059 64.7558 83.6485 64.8583 83.2893 64.9095C82.6734 64.9607 81.955 64.7046 81.7497 63.9874C81.5958 63.5263 81.6984 63.0652 82.0063 62.7066C82.1089 62.5529 82.3142 62.4504 82.4682 62.3992C82.93 62.1431 83.4432 62.0406 83.9051 61.8357C84.059 61.7844 84.213 61.7332 84.3156 61.7332C84.4183 61.7332 84.4183 61.6307 84.4183 61.5795C84.3669 61.3746 84.213 61.2209 84.0077 61.1184C83.7511 61.0672 83.5459 61.0672 83.2893 61.1697C82.8787 61.2721 82.4682 61.477 82.1603 61.7844L82.1089 61.8357C82.0063 61.8869 81.955 61.8357 81.955 61.7332C81.955 61.3746 81.955 60.9647 81.955 60.6061C81.955 60.5037 82.0063 60.4524 82.0576 60.4524C82.5195 60.1963 82.9814 60.0426 83.5459 59.9914C83.7511 59.9914 84.0077 59.9401 84.213 59.9401C84.6235 59.9914 85.0854 60.0426 85.4446 60.2475C85.8552 60.4524 86.0604 60.811 86.1118 61.2721C86.1118 61.4258 86.1118 61.7844 86.1118 62.1943ZM84.4696 62.5017C84.1617 62.6554 83.8538 62.8091 83.5972 62.9627C83.3919 63.1164 83.2379 63.3726 83.4432 63.5775C83.4945 63.68 83.5972 63.7312 83.6998 63.7312C83.9051 63.7824 84.059 63.68 84.2643 63.5775C84.4183 63.4751 84.5209 63.4238 84.4696 63.2189C84.4183 63.014 84.4696 62.8091 84.4696 62.5017Z" fill="#F27621"/>
<path d="M37.9754 72.2868C37.9754 72.6454 37.9754 72.9528 37.9754 73.3114C37.9754 73.3626 37.9754 73.4651 37.9754 73.5163C38.0267 73.67 38.078 73.7212 38.232 73.6188C38.3346 73.5675 38.4372 73.5163 38.5399 73.4651C38.6938 73.4138 38.7452 73.4138 38.7452 73.5675C38.7452 73.7212 38.7452 73.8749 38.7452 73.9774C38.7452 74.3872 38.7452 74.3872 38.3859 74.5409C37.9241 74.7458 37.5135 74.7971 37.0003 74.7971C36.7951 74.7971 36.5898 74.6946 36.4872 74.4897C36.4358 74.336 36.3332 74.3872 36.2819 74.4385C36.0253 74.5922 35.7174 74.6946 35.4095 74.7458C34.8963 74.8483 34.3831 74.7971 33.9212 74.4385C33.716 74.2335 33.5107 73.9774 33.562 73.67C33.562 73.4651 33.562 73.2602 33.6133 73.0552C33.6647 72.6966 33.9212 72.5429 34.1778 72.338C34.5371 72.0818 34.9989 71.9281 35.4608 71.7745C35.6661 71.7232 35.9227 71.672 36.1279 71.5695C36.3332 71.5183 36.3332 71.4671 36.2306 71.3134C36.1279 71.0572 35.9227 70.9548 35.6661 70.9035C35.2042 70.9035 34.845 71.006 34.4344 71.2621C34.2805 71.3646 34.1265 71.4671 33.9726 71.5695C33.9212 71.5695 33.8699 71.6208 33.8186 71.6208C33.7673 71.6208 33.7673 71.5183 33.7673 71.5183C33.7673 71.1597 33.7673 70.8523 33.7673 70.4937C33.7673 70.34 33.8186 70.2375 33.9726 70.1863C34.2805 70.0326 34.5884 69.9301 34.9476 69.8277C35.4095 69.7252 35.9227 69.7252 36.4358 69.7764C36.7951 69.7764 37.2056 69.9301 37.4622 70.1863C37.7701 70.4425 37.8727 70.7498 37.8727 71.1085C37.9754 71.5695 37.9754 71.9281 37.9754 72.2868ZM36.3332 72.5941C36.2306 72.6454 36.1792 72.6454 36.1279 72.6454C35.8713 72.7478 35.5634 72.8503 35.4095 73.1065C35.2555 73.3114 35.2555 73.4651 35.3582 73.6188C35.4608 73.7725 35.6661 73.8237 35.8713 73.7725C36.0253 73.7212 36.1792 73.67 36.2819 73.5675C36.3332 73.5163 36.3845 73.4651 36.3845 73.4138C36.3332 73.1577 36.3332 72.8503 36.3332 72.5941Z" fill="#F27621"/>
<path d="M61.1198 72.2868C61.1198 72.6454 61.1198 72.9528 61.1198 73.3114C61.1198 73.3626 61.1198 73.4138 61.1198 73.5163C61.1712 73.7212 61.2225 73.7725 61.3764 73.67C61.4791 73.6188 61.633 73.5675 61.7357 73.5163C61.787 73.5163 61.8383 73.5163 61.8383 73.6188C61.8383 73.8749 61.8383 74.1311 61.8383 74.3872C61.8383 74.4384 61.787 74.4897 61.7357 74.5409C61.4791 74.6434 61.2225 74.7971 60.9659 74.8483C60.7606 74.8995 60.504 74.8995 60.2474 74.8995C59.9395 74.8995 59.7342 74.8483 59.5803 74.5409C59.529 74.4385 59.4777 74.4897 59.4263 74.5409C59.1698 74.6946 58.8618 74.7971 58.5539 74.8483C58.0408 74.9508 57.5276 74.8995 57.0657 74.5409C56.8604 74.336 56.7065 74.0798 56.7065 73.7724C56.7065 73.5675 56.7065 73.3626 56.7065 73.2089C56.7578 72.8503 57.0657 72.6454 57.3223 72.4404C57.7842 72.1331 58.2973 72.0306 58.7592 71.8257C58.9132 71.7744 59.0671 71.7232 59.1698 71.7232C59.375 71.672 59.4263 71.6208 59.3237 71.4158C59.2211 71.1597 59.0158 71.0572 58.7592 71.0572C58.2973 71.006 57.9381 71.1597 57.5276 71.4158C57.3736 71.5183 57.2197 71.6208 57.0657 71.7232C57.0144 71.7232 56.9631 71.7744 56.9118 71.7744C56.8604 71.7744 56.8604 71.7232 56.8604 71.672C56.8604 71.3134 56.8604 70.9548 56.8604 70.5961C56.8604 70.4424 56.9118 70.3912 57.0144 70.34C57.3223 70.1863 57.6815 70.0326 58.0408 69.9814C58.5026 69.8789 59.0158 69.8789 59.4777 69.9301C59.8369 69.9301 60.2474 70.0838 60.504 70.34C60.8119 70.5449 60.9146 70.9035 60.9146 71.2621C61.1712 71.5695 61.1198 71.9281 61.1198 72.2868ZM59.4777 73.1064C59.4777 73.004 59.4777 72.8503 59.4777 72.7478C59.4777 72.6454 59.4777 72.5941 59.375 72.6454C59.1697 72.7478 58.9132 72.8503 58.7079 72.9528C58.6053 73.004 58.5539 73.1064 58.4513 73.2089C58.4 73.3114 58.2973 73.4651 58.4 73.6188C58.5026 73.7724 58.6053 73.8749 58.7592 73.8749C59.0158 73.8749 59.1697 73.7212 59.375 73.6188C59.529 73.5163 59.4263 73.3626 59.4263 73.2601C59.529 73.1577 59.4777 73.1064 59.4777 73.1064Z" fill="#F27621"/>
<path d="M131.682 72.2868C131.682 72.5941 131.682 72.9528 131.682 73.2601C131.682 73.3114 131.682 73.3626 131.682 73.4138C131.682 73.7212 131.785 73.7725 132.041 73.67C132.144 73.6188 132.195 73.5675 132.298 73.5163C132.401 73.4651 132.452 73.5163 132.452 73.6188C132.452 73.8749 132.452 74.0798 132.452 74.336C132.452 74.4385 132.401 74.4897 132.349 74.5409C131.836 74.7971 131.323 74.9508 130.759 74.8995C130.553 74.8995 130.297 74.8483 130.194 74.5921C130.143 74.4897 130.091 74.5409 130.04 74.5409C129.783 74.6946 129.476 74.7971 129.168 74.8483C128.603 74.9508 128.039 74.8995 127.628 74.4897C127.423 74.336 127.269 74.0798 127.32 73.8237C127.32 73.6188 127.32 73.4138 127.372 73.2089C127.423 72.8503 127.679 72.6454 127.987 72.4404C128.449 72.1331 128.962 72.0306 129.424 71.8257C129.578 71.7744 129.732 71.7232 129.886 71.7232C130.091 71.672 130.091 71.6208 130.04 71.4158C129.937 71.1084 129.732 71.0572 129.476 71.0572C128.911 71.0572 128.449 71.2621 128.039 71.5695C127.936 71.6208 127.885 71.7232 127.782 71.7744C127.679 71.8257 127.628 71.7744 127.628 71.672C127.628 71.3134 127.628 70.9548 127.628 70.5961C127.628 70.4424 127.731 70.3912 127.833 70.34C128.141 70.1863 128.501 70.0326 128.86 69.9814C129.322 69.8789 129.835 69.8789 130.297 69.9301C130.656 69.9301 131.015 70.0838 131.323 70.2887C131.631 70.4937 131.734 70.8523 131.734 71.2109C131.682 71.5695 131.682 71.9281 131.682 72.2868ZM130.04 73.0552C130.04 72.9528 130.04 72.7991 130.04 72.6966C130.04 72.6454 130.04 72.5941 129.937 72.5941C129.63 72.7478 129.27 72.7991 129.065 73.1064C128.911 73.3114 128.911 73.4651 129.014 73.6188C129.116 73.7724 129.322 73.8237 129.527 73.7724C129.63 73.7212 129.681 73.7212 129.783 73.67C129.989 73.5675 130.091 73.4651 130.04 73.2089C130.04 73.1577 130.04 73.1065 130.04 73.0552Z" fill="#F27621"/>
<path d="M119.058 72.2355C119.058 72.5942 119.058 72.9528 119.058 73.3114C119.058 73.3626 119.058 73.4139 119.058 73.5163C119.109 73.7725 119.212 73.7725 119.366 73.67C119.469 73.6188 119.571 73.5676 119.674 73.5163C119.828 73.4651 119.879 73.4651 119.879 73.6188C119.879 73.8237 119.879 74.0799 119.879 74.2848C119.879 74.3872 119.828 74.4385 119.725 74.5409C119.263 74.7971 118.75 74.9508 118.186 74.8996C117.929 74.8996 117.724 74.8483 117.57 74.5922C117.518 74.4897 117.467 74.5409 117.416 74.5409C117.313 74.5922 117.211 74.6946 117.057 74.6946C116.492 74.8996 115.928 75.002 115.363 74.7459C115.055 74.5922 114.85 74.3872 114.696 74.0799C114.696 74.0286 114.645 74.0286 114.645 73.9774C114.645 73.7212 114.645 73.4139 114.696 73.1577C114.747 72.7991 115.004 72.5942 115.312 72.4405C115.825 72.1331 116.441 71.9282 117.005 71.7745H117.057C117.159 71.7232 117.364 71.7745 117.364 71.5695C117.364 71.4159 117.211 71.1597 117.057 71.1085C116.851 71.006 116.595 71.006 116.389 71.0572C115.979 71.1597 115.568 71.3134 115.26 71.5695C115.158 71.672 115.004 71.7745 114.953 71.7232C114.799 71.672 114.901 71.5183 114.901 71.3646C114.901 71.1597 114.901 70.9035 114.901 70.6986C114.85 70.4425 115.004 70.34 115.209 70.2375C115.774 69.9814 116.338 69.8277 116.954 69.8789C117.364 69.8789 117.826 69.9302 118.237 70.0326C118.801 70.2375 119.109 70.6986 119.109 71.2109C119.058 71.5695 119.058 71.8769 119.058 72.2355ZM117.416 73.0552C117.416 72.9528 117.416 72.8503 117.416 72.7479C117.416 72.6454 117.416 72.5942 117.313 72.6454C117.108 72.7479 116.851 72.8503 116.646 72.9528C116.543 73.004 116.441 73.1577 116.389 73.2602C116.287 73.3626 116.338 73.5163 116.389 73.67C116.492 73.8237 116.595 73.9262 116.749 73.8749C116.954 73.8237 117.159 73.7725 117.313 73.6188C117.416 73.5163 117.364 73.3626 117.364 73.2089C117.416 73.1065 117.416 73.1065 117.416 73.0552Z" fill="#F27621"/>
<path d="M78.4141 62.3992C78.4654 62.7578 78.4141 63.1164 78.2088 63.475C78.0035 63.8849 77.6956 64.1923 77.2851 64.3972C76.9258 64.6021 76.5153 64.7558 76.1047 64.7558C75.9508 64.7558 75.7968 64.807 75.6429 64.807C75.2323 64.7558 74.8731 64.7558 74.4626 64.5509C74.3086 64.4484 74.1033 64.3972 73.9494 64.2947C73.4875 63.8849 73.077 63.4238 73.0257 62.7578C72.9743 62.348 72.9743 61.9381 73.077 61.5283C73.1796 61.016 73.4875 60.6061 73.8981 60.2987C74.3086 60.0426 74.7192 59.8889 75.2323 59.7864C76.0534 59.6327 76.8232 59.8377 77.4903 60.2987C78.0548 60.7086 78.4141 61.2721 78.3627 61.9893C78.4141 62.143 78.4141 62.1943 78.4141 62.3992ZM75.7455 60.8623C75.4889 60.811 75.2837 60.9647 75.0784 61.1697C74.9244 61.3746 74.8731 61.5795 74.8218 61.8357C74.7192 62.2967 74.7705 62.7578 74.9757 63.2189C75.1297 63.5263 75.3863 63.68 75.6942 63.7312C76.0534 63.7824 76.31 63.6287 76.5153 63.3214C76.7206 62.9627 76.7719 62.5529 76.7719 62.143C76.7719 61.8869 76.6692 61.682 76.6179 61.477C76.464 61.0672 76.1047 60.811 75.7455 60.8623Z" fill="#F27621"/>
<path d="M6.05552 62.2455C6.00421 61.8869 6.10684 61.4771 6.2608 61.1184C6.46607 60.7086 6.77398 60.4524 7.1332 60.2475C7.49243 60.0426 7.85166 59.9401 8.2622 59.8377C8.98066 59.7352 9.64779 59.8377 10.2636 60.1963C10.7768 60.4524 11.136 60.8111 11.3413 61.3746C11.3926 61.5283 11.3926 61.682 11.4439 61.7844C11.4439 61.8869 11.4952 62.0406 11.4952 62.1431C11.4952 62.1943 11.4952 62.2455 11.4952 62.348C11.4439 62.6554 11.3926 62.9628 11.3413 63.2701C11.29 63.5775 11.0847 63.8337 10.8281 64.0386C10.5202 64.346 10.161 64.5509 9.75043 64.7046C9.54516 64.7558 9.3912 64.8071 9.18593 64.8071C9.08329 64.8071 8.92934 64.8583 8.8267 64.8583C8.15957 64.8583 7.49243 64.7046 6.92793 64.2948C6.36343 63.8849 6.05552 63.3214 6.05552 62.5529C6.05552 62.4504 6.05552 62.3992 6.05552 62.2455ZM9.75043 62.2968C9.75043 61.9894 9.69911 61.682 9.54516 61.3746C9.3912 60.9135 8.92934 60.8111 8.51879 60.9135C8.2622 60.9648 8.10825 61.1184 8.00561 61.3234C7.85166 61.5795 7.80034 61.8869 7.74902 62.1943C7.74902 62.3992 7.80034 62.6041 7.80034 62.8091C7.85166 63.2701 8.05693 63.5263 8.46748 63.68C8.77538 63.8337 9.18593 63.68 9.3912 63.3726C9.64779 63.0652 9.69911 62.6554 9.75043 62.2968Z" fill="#F27621"/>
<path d="M86.0091 72.4404C86.0604 72.7991 85.9578 73.2089 85.7525 73.5675C85.4446 74.1823 84.8801 74.5409 84.2643 74.7458C83.8538 74.8995 83.3919 74.8995 82.93 74.8483C82.4169 74.7971 81.9037 74.6434 81.4931 74.2848C81.0826 73.9774 80.7747 73.5675 80.672 73.0552C80.5694 72.5941 80.5694 72.0818 80.672 71.6208C80.8773 70.8523 81.3905 70.4424 82.0576 70.1351C82.5195 69.9301 82.9814 69.9301 83.4432 69.8789C83.9051 69.8789 84.3669 69.9814 84.7775 70.2375C85.188 70.4425 85.5473 70.7498 85.8038 71.1597C85.9065 71.4158 86.0091 71.672 86.0091 71.9794C86.0091 72.0818 86.0091 72.2355 86.0091 72.4404ZM82.3655 72.338C82.3655 72.4405 82.3655 72.5429 82.3655 72.5941C82.4169 72.9528 82.4682 73.3114 82.7761 73.5675C83.2379 73.9262 83.8538 73.7212 84.0077 73.3626C84.1104 73.1065 84.213 72.8503 84.2643 72.5941C84.3156 72.338 84.2643 72.0818 84.213 71.8257C84.213 71.672 84.1104 71.4671 84.059 71.3134C83.9051 71.006 83.3919 70.8011 83.084 70.9035C82.7248 71.0572 82.5195 71.3134 82.4169 71.672C82.3655 71.9281 82.3655 72.1331 82.3655 72.338Z" fill="#F27621"/>
<path d="M103.919 70.4425C104.176 70.1863 104.484 70.0326 104.792 69.9301C105.459 69.7252 106.331 69.9814 106.793 70.5449C106.947 70.8011 107.101 71.0572 107.101 71.3646C107.101 72.4405 107.101 73.5163 107.101 74.5922C107.101 74.7971 107.101 74.7971 106.896 74.7971C106.485 74.7971 106.075 74.7971 105.664 74.7971C105.459 74.7971 105.459 74.7971 105.459 74.5922C105.459 73.67 105.459 72.7478 105.459 71.8257C105.459 71.7232 105.459 71.5695 105.407 71.4671C105.253 71.0572 104.792 70.9548 104.432 71.2109C104.278 71.3134 104.176 71.4671 104.022 71.6208C103.919 71.7232 103.919 71.8769 103.919 72.0306C103.919 72.8503 103.919 73.67 103.919 74.5409C103.919 74.5922 103.919 74.6946 103.919 74.7458C103.919 74.8483 103.868 74.8995 103.765 74.8995C103.303 74.8995 102.841 74.8995 102.38 74.8995C102.277 74.8995 102.226 74.8995 102.226 74.7971C102.226 74.7458 102.226 74.6946 102.226 74.5922C102.226 73.1577 102.226 71.7745 102.226 70.34C102.226 70.2888 102.226 70.2375 102.226 70.1351C102.226 70.0326 102.277 69.9814 102.328 70.0326C102.431 70.0326 102.585 70.0326 102.688 70.0326C102.995 70.0326 103.303 70.0326 103.611 70.0326C103.817 70.0326 103.817 70.0326 103.817 70.2375C103.919 70.2375 103.919 70.2888 103.919 70.4425Z" fill="#F27621"/>
<path d="M99.6084 74.336C99.4545 74.4385 99.3005 74.5409 99.1466 74.6434C98.6334 74.9508 98.0689 74.9508 97.5044 74.7971C96.9912 74.6434 96.632 74.2848 96.478 73.7725C96.4267 73.5676 96.3754 73.3626 96.3754 73.2089C96.3754 72.2355 96.3754 71.2109 96.3754 70.2376C96.3754 70.0326 96.3754 70.0326 96.5807 70.0326C96.9912 70.0326 97.4018 70.0326 97.8123 70.0326C97.9663 70.0326 98.0176 70.0326 98.0176 70.2376C98.0176 71.1085 98.0176 71.9794 98.0176 72.8503C98.0176 73.004 98.0689 73.1577 98.0689 73.3114C98.1715 73.7725 98.6334 73.9774 99.0439 73.7212C99.4032 73.5163 99.5571 73.2089 99.5571 72.7991C99.5571 71.9794 99.5571 71.2109 99.5571 70.3912C99.5571 70.34 99.5571 70.2375 99.5571 70.1863C99.5571 70.1351 99.6084 70.0839 99.6598 70.0839C100.122 70.0839 100.635 70.0839 101.097 70.0839C101.199 70.0839 101.199 70.1351 101.199 70.1863C101.199 70.2375 101.199 70.2888 101.199 70.3912C101.199 71.8257 101.199 73.2089 101.199 74.6434C101.199 74.6946 101.199 74.7459 101.199 74.8483C101.199 74.9508 101.148 75.002 101.097 75.002C100.635 75.002 100.173 75.002 99.7111 75.002C99.6084 75.002 99.6084 74.9508 99.6084 74.8483C99.6084 74.5409 99.6084 74.4385 99.6084 74.336Z" fill="#F27621"/>
<path d="M136.865 60.35C136.968 60.2988 137.071 60.2475 137.122 60.1963C137.584 59.8889 138.046 59.7352 138.61 59.8377C138.764 59.8889 138.969 59.8889 139.123 59.9914C139.688 60.2987 140.047 60.7598 140.047 61.4258C140.047 62.3992 140.047 63.4238 140.047 64.3972C140.047 64.4484 140.047 64.5509 140.047 64.6021C140.047 64.7046 139.996 64.7046 139.893 64.7046C139.688 64.7046 139.534 64.7046 139.329 64.7046C139.072 64.7046 138.815 64.7046 138.559 64.7046C138.405 64.7046 138.405 64.6534 138.405 64.5509C138.405 64.1923 138.405 63.7824 138.405 63.4238C138.405 62.8603 138.405 62.2455 138.405 61.682C138.405 61.2721 138.251 61.0672 137.84 60.9648C137.789 60.9648 137.789 60.9648 137.738 60.9648C137.327 61.0672 137.071 61.3234 136.865 61.682C136.814 61.7844 136.865 61.8357 136.865 61.9381C136.865 62.7578 136.865 63.5263 136.865 64.346C136.865 64.3972 136.865 64.4997 136.865 64.5509C136.865 64.6534 136.814 64.7046 136.711 64.7046C136.25 64.7046 135.788 64.7046 135.326 64.7046C135.223 64.7046 135.172 64.6534 135.223 64.6021C135.223 64.5509 135.223 64.4997 135.223 64.3972C135.223 63.014 135.223 61.6308 135.223 60.1963C135.223 60.1451 135.223 60.0938 135.223 59.9914C135.223 59.8889 135.275 59.8889 135.377 59.8889C135.582 59.8889 135.736 59.8889 135.942 59.8889C136.198 59.8889 136.455 59.8889 136.711 59.8889C136.865 59.8889 136.917 59.8377 136.917 60.0938C136.814 60.1451 136.865 60.2475 136.865 60.35Z" fill="#F27621"/>
<path d="M69.0742 60.35C69.1768 60.2475 69.2794 60.1963 69.3821 60.145C69.4334 60.0938 69.4847 60.0426 69.5873 59.9914C69.9979 59.8377 70.4084 59.7864 70.819 59.8377C71.3322 59.8889 71.6914 60.2475 71.9993 60.6061C72.1532 60.811 72.2046 61.0672 72.2046 61.3234C72.2046 62.3992 72.2046 63.4238 72.2046 64.4997C72.2046 64.7046 72.2046 64.7046 71.9993 64.7046C71.5887 64.7046 71.1782 64.7046 70.7677 64.7046C70.5624 64.7046 70.5624 64.7046 70.5624 64.4997C70.5624 63.8849 70.5624 63.3214 70.5624 62.7066C70.5624 62.348 70.5624 62.0406 70.5624 61.682C70.5624 61.3234 70.4084 61.1184 70.0492 61.016C69.8439 60.9647 69.6387 61.016 69.4847 61.1697C69.3821 61.2209 69.2794 61.3234 69.2281 61.4258C69.1255 61.5795 69.0228 61.7332 69.0228 61.9381C69.0228 62.7578 69.0228 63.5775 69.0228 64.3972C69.0228 64.4484 69.0228 64.5509 69.0228 64.6021C69.0228 64.7046 68.9715 64.7558 68.9202 64.7046C68.4583 64.7046 67.9965 64.7046 67.5346 64.7046C67.432 64.7046 67.432 64.6534 67.432 64.5509C67.432 64.4997 67.432 64.4484 67.432 64.3972C67.432 63.014 67.432 61.5795 67.432 60.1963C67.432 60.145 67.432 60.0938 67.432 60.0426C67.432 59.9401 67.4833 59.8889 67.5859 59.8889C68.0478 59.8889 68.4583 59.8889 68.9202 59.8889C69.0228 59.8889 69.0742 59.9401 69.0742 60.0426C69.0228 60.145 69.0742 60.2475 69.0742 60.35Z" fill="#F27621"/>
<path d="M23.1958 62.6554C22.7339 62.6554 22.2207 62.6554 21.7589 62.6554C21.5536 62.6554 21.5536 62.7066 21.6049 62.8603C21.7589 63.3726 22.272 63.7312 22.7339 63.7312C23.2471 63.7312 23.709 63.68 24.1195 63.4238C24.2221 63.3726 24.3248 63.2701 24.4274 63.2189C24.4787 63.1677 24.5814 63.1164 24.684 63.1164C24.7353 63.1164 24.7866 63.1164 24.7866 63.2189C24.7866 63.5263 24.7866 63.7824 24.7866 64.0898C24.7866 64.1923 24.684 64.2948 24.5814 64.346C24.1195 64.6021 23.6576 64.8071 23.0931 64.8071C23.0418 64.8071 22.9392 64.8071 22.8879 64.8071C22.7852 64.8071 22.6826 64.8583 22.58 64.8583C22.272 64.8071 22.0155 64.8071 21.7075 64.7558C20.9891 64.6021 20.5272 64.1923 20.168 63.5775C20.014 63.3214 19.9114 63.014 19.9114 62.7066C19.9114 62.6554 19.9114 62.5529 19.8601 62.5017C19.8601 62.4504 19.8088 62.3992 19.8088 62.348C19.8601 62.0918 19.8601 61.7844 19.9627 61.5283C20.2193 60.8111 20.6812 60.2987 21.3996 60.0426C21.7589 59.8889 22.1181 59.8377 22.5286 59.8889C23.1958 59.9401 23.8116 60.1451 24.2735 60.7086C24.7866 61.2721 24.8893 61.9381 24.8893 62.6041C24.8893 62.7578 24.7866 62.7578 24.684 62.7578C24.1195 62.6554 23.6576 62.6554 23.1958 62.6554ZM21.5023 61.682C22.0668 61.682 22.58 61.682 23.1445 61.682C23.2984 61.682 23.3497 61.6308 23.2984 61.4771C23.2471 61.3234 23.1445 61.1697 22.9905 61.0672C22.7852 60.9135 22.58 60.8623 22.3234 60.9135C22.0668 60.9135 21.8102 61.0672 21.7075 61.2721C21.6562 61.3746 21.6049 61.5283 21.5023 61.682Z" fill="#F27621"/>
<path d="M99.0952 62.6554C98.6334 62.6554 98.1202 62.6554 97.6583 62.6554C97.4531 62.6554 97.4531 62.6554 97.5044 62.8603C97.6583 63.4238 98.1715 63.7312 98.736 63.7312C98.9413 63.7312 99.1466 63.7312 99.3518 63.68C99.7111 63.6288 100.019 63.3726 100.378 63.2189C100.43 63.1677 100.481 63.1165 100.532 63.1165C100.635 63.1165 100.686 63.1165 100.686 63.2189C100.686 63.5263 100.686 63.7825 100.686 64.0898C100.686 64.1411 100.635 64.1923 100.583 64.2435C100.122 64.6022 99.6084 64.7558 99.0439 64.8071C98.89 64.8071 98.736 64.8583 98.5821 64.8583C98.2228 64.8583 97.8636 64.8071 97.5044 64.7046C96.7859 64.4997 96.2727 64.0898 95.9648 63.4751C95.8109 63.2189 95.7596 62.9115 95.7596 62.6042C95.7596 62.2455 95.7082 61.8869 95.8622 61.5283C96.2214 60.6061 96.8372 60.0426 97.8123 59.8889C98.4281 59.7865 99.0439 59.8889 99.5571 60.1963C100.122 60.5037 100.481 60.9648 100.635 61.6308C100.737 61.9382 100.686 62.2455 100.686 62.6042C100.686 62.7066 100.635 62.7578 100.532 62.7578C100.173 62.7578 99.8137 62.7578 99.4545 62.7578C99.3518 62.6554 99.2492 62.6554 99.0952 62.6554ZM98.3768 61.682C98.6334 61.682 98.89 61.682 99.1466 61.682C99.2492 61.682 99.3005 61.682 99.2492 61.5283C99.0952 61.1185 98.7873 60.8623 98.3768 60.8623C97.9662 60.8623 97.6583 61.0672 97.5557 61.4771C97.5044 61.6308 97.5557 61.6308 97.6583 61.6308C97.9149 61.682 98.1715 61.682 98.3768 61.682Z" fill="#F27621"/>
<path d="M116.389 62.6554C115.876 62.6554 115.414 62.6554 114.901 62.6554C114.747 62.6554 114.747 62.6554 114.799 62.8603C114.953 63.4751 115.466 63.7824 116.03 63.7824C116.235 63.7824 116.441 63.7824 116.646 63.7312C117.005 63.68 117.262 63.4751 117.57 63.3214C117.621 63.2701 117.672 63.2189 117.775 63.1677C117.929 63.1164 117.98 63.1677 118.032 63.3214C118.032 63.5263 118.032 63.7824 118.032 63.9874C118.032 64.1411 117.98 64.2435 117.878 64.2948C117.467 64.5509 117.005 64.7558 116.543 64.7558C116.389 64.7558 116.287 64.8071 116.133 64.8071C115.979 64.8071 115.876 64.8071 115.722 64.8071C115.466 64.7558 115.26 64.7046 115.004 64.7046C114.542 64.6534 114.183 64.3972 113.875 64.1411C113.567 63.8849 113.362 63.5775 113.259 63.2189C113.208 63.1164 113.156 62.9628 113.156 62.8603C113.105 62.1431 113.105 61.4771 113.516 60.8623C113.926 60.2987 114.439 59.8889 115.158 59.8377C115.363 59.8377 115.568 59.7864 115.774 59.7864C116.235 59.7864 116.646 59.8889 117.057 60.1451C117.57 60.5037 117.929 60.9647 118.083 61.5795C118.134 61.8869 118.134 62.1943 118.134 62.5017C118.134 62.6041 118.083 62.6554 117.98 62.6554C117.57 62.6554 117.108 62.6554 116.697 62.6554C116.543 62.6554 116.441 62.6554 116.389 62.6554ZM116.543 61.682C116.441 61.3234 116.338 61.0672 115.979 60.9135C115.825 60.8623 115.722 60.8623 115.568 60.8623C115.209 60.8623 114.901 61.1184 114.799 61.4771C114.799 61.5795 114.799 61.6308 114.953 61.6308C115.466 61.682 116.03 61.682 116.543 61.682Z" fill="#F27621"/>
<path d="M22.6826 72.6454C22.1694 72.6454 21.7076 72.6454 21.1944 72.6454C21.0404 72.6454 21.0917 72.6966 21.0917 72.7991C21.1944 73.2089 21.3996 73.5163 21.8102 73.67C22.2207 73.8237 22.6313 73.8237 23.0931 73.7212C23.4524 73.6188 23.709 73.4139 24.0169 73.2602C24.0682 73.2089 24.1195 73.2089 24.1708 73.1577C24.2221 73.1577 24.3248 73.1577 24.3248 73.2602C24.3248 73.5675 24.3248 73.8237 24.3248 74.1311C24.3248 74.1823 24.2735 74.2335 24.2735 74.2335C23.8629 74.5409 23.4524 74.7459 22.8879 74.7971C22.6313 74.8483 22.3234 74.8483 22.0668 74.8483C21.6049 74.8483 21.1431 74.7971 20.7325 74.5922C20.0141 74.2336 19.5009 73.7212 19.3982 72.8503C19.3982 72.6454 19.3469 72.4405 19.3469 72.2355C19.3469 71.5695 19.5522 71.006 20.0141 70.5449C20.4759 70.0838 21.0404 69.8277 21.7076 69.8277C22.1181 69.8277 22.4773 69.8277 22.8366 69.9814C23.4524 70.2375 23.9142 70.6474 24.1708 71.2622C24.3248 71.6208 24.3761 72.0306 24.3761 72.4405C24.3761 72.5942 24.3248 72.5942 24.1708 72.5942C23.709 72.6454 23.1958 72.6454 22.6826 72.6454ZM21.9641 71.7745C22.2207 71.7745 22.426 71.7745 22.6826 71.7745C22.8366 71.7745 22.8879 71.7232 22.8366 71.5695C22.7339 71.2109 22.3747 70.9035 21.9641 70.9035C21.5536 70.9035 21.1944 71.2109 21.0917 71.6208C21.0917 71.7232 21.0917 71.7745 21.1944 71.7745C21.451 71.7745 21.7076 71.7745 21.9641 71.7745Z" fill="#F27621"/>
<path d="M55.2183 60.7598C55.2183 60.9135 55.2183 61.0672 55.2183 61.2209C55.2183 61.3234 55.1669 61.3746 55.0643 61.3234C54.8077 61.2209 54.6024 61.1184 54.3458 61.016C54.0893 60.9135 53.7813 60.8623 53.4734 60.8623C53.3708 60.8623 53.3195 60.9135 53.2168 60.9135C53.0629 60.9647 53.0629 61.1184 53.2168 61.2209C53.3708 61.3234 53.5761 61.4258 53.73 61.477C54.0893 61.6307 54.4485 61.7844 54.8077 61.9894C55.3209 62.348 55.5262 62.9115 55.4235 63.5775C55.2696 64.2435 54.9103 64.5509 54.2945 64.6534C53.9866 64.7046 53.6787 64.8071 53.4221 64.7558C52.9089 64.7046 52.3958 64.6534 51.9339 64.4484C51.7799 64.3972 51.7286 64.2947 51.7286 64.141C51.7286 63.8849 51.7286 63.5775 51.7286 63.3214C51.7286 63.1677 51.7799 63.1164 51.9339 63.1677C52.0878 63.2189 52.1905 63.2701 52.3444 63.3214C52.5497 63.4238 52.8063 63.475 53.0116 63.5263C53.2168 63.5775 53.4221 63.6287 53.5761 63.5263H53.6274C53.73 63.475 53.884 63.4238 53.884 63.3214C53.9353 63.2189 53.7813 63.1677 53.6787 63.1164C53.5248 63.014 53.4221 62.9627 53.2682 62.9115C52.8063 62.7578 52.3958 62.5529 51.9852 62.2455C51.8313 62.143 51.7286 61.9894 51.6773 61.8357C51.472 61.1697 51.5747 60.4012 52.3958 60.0426C52.9603 59.7864 53.5248 59.684 54.0893 59.7864C54.3972 59.8377 54.6538 59.8889 54.9617 59.9913C55.1669 60.0426 55.1669 60.0938 55.1669 60.2987C55.2183 60.5037 55.2183 60.6061 55.2183 60.7598Z" fill="#F27621"/>
<path d="M111.052 72.2868C111.052 71.9282 111.052 71.5695 111.052 71.2109C111.052 71.1085 111.001 71.0572 110.898 71.0572C110.796 71.0572 110.744 71.0572 110.642 71.0572C110.539 71.0572 110.385 71.1085 110.385 71.006C110.334 70.8523 110.334 70.7498 110.437 70.5962C110.796 70.2375 111.104 69.8277 111.463 69.4691C111.668 69.2129 111.925 68.9568 112.13 68.7006C112.233 68.5469 112.335 68.4445 112.541 68.4957C112.643 68.4957 112.643 68.5469 112.643 68.6494C112.643 68.9055 112.643 69.2129 112.643 69.4691C112.643 69.6228 112.643 69.7765 112.643 69.9302C112.797 69.9302 112.951 69.9814 113.105 69.9814C113.464 69.9814 113.772 69.9814 114.131 69.9814C114.285 69.9814 114.285 70.0326 114.285 70.1351C114.285 70.3912 114.285 70.6474 114.285 70.9035C114.285 71.1085 114.285 71.1085 114.08 71.1085C113.67 71.1085 113.259 71.1085 112.849 71.1085C112.489 71.1085 112.541 71.0572 112.541 71.4158C112.541 71.9282 112.541 72.4405 112.541 72.9528C112.541 73.1577 112.592 73.2602 112.695 73.4139C112.746 73.5163 112.9 73.6188 113.002 73.6188C113.31 73.6188 113.618 73.6188 113.875 73.4651C113.875 73.4651 113.926 73.4651 113.978 73.4139C114.183 73.3114 114.234 73.3626 114.234 73.5675C114.234 73.8237 114.234 74.1311 114.234 74.3872C114.234 74.5409 114.183 74.5922 114.029 74.6434C113.516 74.8483 113.002 74.8996 112.489 74.8483C112.027 74.7971 111.566 74.6946 111.258 74.2848C111.155 74.1823 111.052 74.0286 111.001 73.8749C110.898 73.6188 110.847 73.4139 110.847 73.1577C111.052 72.8503 111.052 72.5942 111.052 72.2868Z" fill="#F27621"/>
<path d="M131.631 60.7598C131.631 60.9135 131.631 61.0672 131.631 61.2209C131.631 61.3234 131.58 61.3746 131.477 61.3746C131.426 61.3746 131.374 61.3233 131.323 61.3233C131.015 61.1697 130.707 61.1184 130.348 61.0672C130.04 61.0672 129.732 61.1697 129.476 61.3233C129.219 61.477 129.116 61.7332 129.065 62.0406C128.962 62.809 129.322 63.4238 130.091 63.5775C130.348 63.6287 130.605 63.5775 130.861 63.5263C131.066 63.475 131.323 63.3726 131.528 63.3214C131.682 63.2701 131.734 63.2701 131.734 63.4238C131.734 63.7312 131.734 64.0386 131.734 64.346C131.734 64.4997 131.682 64.5509 131.58 64.6021C131.272 64.7046 130.964 64.8071 130.605 64.8071C130.451 64.8071 130.297 64.8583 130.143 64.8583C129.783 64.8583 129.373 64.8071 129.014 64.7046C128.193 64.4484 127.628 63.9874 127.372 63.1677C127.218 62.7578 127.218 62.2967 127.32 61.8357C127.372 61.6307 127.423 61.4258 127.474 61.2721C127.833 60.5037 128.449 60.0426 129.27 59.8889C129.63 59.8377 129.989 59.7864 130.399 59.8377C130.759 59.9401 131.169 59.9914 131.528 60.0938C131.631 60.145 131.631 60.145 131.631 60.2475C131.58 60.4012 131.631 60.5549 131.631 60.7598Z" fill="#F27621"/>
<path d="M16.4218 60.7598C16.4218 60.9135 16.4218 61.0672 16.4218 61.2209C16.4218 61.3234 16.3705 61.3746 16.2678 61.3746C16.2165 61.3746 16.1139 61.3234 16.0626 61.2721C15.7546 61.1184 15.4467 61.016 15.0875 61.0672C14.4204 61.1697 14.0611 61.3234 13.8559 62.0406C13.7532 62.5017 13.9072 63.1164 14.4204 63.3726C14.6256 63.4751 14.8822 63.5263 15.0875 63.5775C15.2415 63.5775 15.4467 63.5263 15.6007 63.4751C15.8573 63.4238 16.1139 63.3214 16.3191 63.2189C16.4731 63.1677 16.4731 63.1677 16.4731 63.3214C16.4731 63.68 16.4731 63.9874 16.4731 64.346C16.4731 64.4484 16.4218 64.4484 16.3191 64.4997C15.9599 64.6021 15.6007 64.7046 15.2415 64.7558C15.0875 64.7558 14.8822 64.8071 14.7283 64.8071C14.3177 64.7558 13.8559 64.7558 13.4966 64.5509C12.9835 64.346 12.5729 64.0386 12.3163 63.5263C12.1111 63.1164 12.0084 62.7066 12.0084 62.2455C12.0084 61.7332 12.1111 61.2209 12.4703 60.811C12.7782 60.4524 13.1374 60.145 13.5993 59.9914C14.0611 59.8377 14.523 59.7352 14.9849 59.7864C15.4467 59.8377 15.9086 59.8889 16.3191 60.0938C16.4218 60.145 16.4218 60.145 16.4218 60.2475C16.4218 60.4012 16.4218 60.5549 16.4218 60.7598Z" fill="#F27621"/>
<path d="M51.5747 71.2109C51.5747 70.1351 51.5747 69.0592 51.5747 67.9834C51.5747 67.9321 51.5747 67.8297 51.5747 67.7785C51.5747 67.676 51.626 67.676 51.6773 67.676C51.8313 67.676 51.9852 67.676 52.1392 67.676C52.4471 67.676 52.7037 67.676 53.0116 67.676C53.1142 67.676 53.1656 67.7272 53.1656 67.8297C53.1656 67.8809 53.1656 67.9321 53.1656 68.0346C53.1656 70.1863 53.1656 72.338 53.1656 74.4897C53.1656 74.8483 53.2169 74.7971 52.8576 74.7971C52.4984 74.7971 52.0879 74.7971 51.7286 74.7971C51.5234 74.7971 51.5234 74.7971 51.5234 74.5922C51.5234 74.0799 51.5234 73.6188 51.5234 73.1065C51.5747 72.4917 51.5747 71.8769 51.5747 71.2109Z" fill="#F27621"/>
<path d="M121.983 70.8523C122.188 70.6474 122.342 70.3912 122.548 70.1863C122.958 69.7765 123.625 69.7252 124.087 70.0326C124.138 70.0839 124.19 70.0839 124.241 70.1351C124.395 70.2375 124.446 70.34 124.395 70.5449C124.292 70.9036 124.138 71.2622 124.036 71.672C123.985 71.7745 123.933 71.7745 123.882 71.7232C123.728 71.672 123.574 71.5696 123.42 71.5183C123.061 71.3134 122.599 71.4671 122.445 71.8257C122.291 72.0819 122.137 72.3892 122.034 72.6454C121.983 72.6966 121.983 72.7991 121.983 72.9016C121.983 73.4651 121.983 74.0286 121.983 74.5922C121.983 74.7971 121.983 74.7971 121.778 74.7971C121.367 74.7971 121.008 74.7971 120.598 74.7971C120.29 74.7971 120.341 74.7971 120.341 74.5409C120.341 73.8237 120.341 73.1065 120.341 72.4405C120.341 71.672 120.341 70.9548 120.341 70.1863C120.341 69.9302 120.341 69.9814 120.598 69.9814C121.008 69.9814 121.419 69.9814 121.829 69.9814C121.932 69.9814 121.983 70.0326 121.983 70.1351C121.983 70.34 121.983 70.5962 121.983 70.8523Z" fill="#F27621"/>
<path d="M80.9286 61.1697C80.9286 62.2455 80.9286 63.2701 80.9286 64.346C80.9286 64.3972 80.9286 64.4997 80.9286 64.5509C80.9286 64.6534 80.8773 64.6534 80.7747 64.6534C80.5694 64.6534 80.3128 64.6534 80.1076 64.6534C79.851 64.6534 79.6457 64.6534 79.3891 64.6534C79.2865 64.6534 79.2351 64.6022 79.2351 64.4997C79.2351 64.4485 79.2351 64.3972 79.2351 64.2948C79.2351 62.1431 79.2351 60.0426 79.2351 57.8909C79.2351 57.5323 79.1838 57.5835 79.5431 57.5835C79.9023 57.5835 80.3128 57.5835 80.672 57.5835C80.826 57.5835 80.8773 57.5835 80.8773 57.7884C80.8773 58.4032 80.8773 59.018 80.8773 59.684C80.9286 60.1963 80.9286 60.7086 80.9286 61.1697Z" fill="#F27621"/>
<path d="M126.499 72.3892C126.499 73.1065 126.499 73.8237 126.499 74.5409C126.499 74.7971 126.499 74.7971 126.243 74.7971C125.832 74.7971 125.473 74.7971 125.062 74.7971C124.857 74.7971 124.857 74.7971 124.857 74.5922C124.857 73.7725 124.857 72.9528 124.857 72.1331C124.857 71.4671 124.857 70.8011 124.857 70.1863C124.857 69.9302 124.857 69.9814 125.114 69.9814C125.524 69.9814 125.935 69.9814 126.345 69.9814C126.55 69.9814 126.55 69.9814 126.55 70.1863C126.499 70.8523 126.499 71.6208 126.499 72.3892Z" fill="#F27621"/>
<path d="M109.821 72.3892C109.821 73.1065 109.821 73.8237 109.821 74.5409C109.821 74.7971 109.821 74.7971 109.564 74.7971C109.154 74.7971 108.794 74.7971 108.384 74.7971C108.179 74.7971 108.179 74.7971 108.179 74.5922C108.179 73.7725 108.179 72.9528 108.179 72.1331C108.179 71.4671 108.179 70.8011 108.179 70.1863C108.179 69.9302 108.179 69.9814 108.435 69.9814C108.846 69.9814 109.256 69.9814 109.667 69.9814C109.872 69.9814 109.872 69.9814 109.872 70.1863C109.821 70.8523 109.821 71.6208 109.821 72.3892Z" fill="#F27621"/>
<path d="M55.9881 72.3892C55.9881 73.1065 55.9881 73.8237 55.9881 74.5922C55.9881 74.8483 55.9881 74.8483 55.7315 74.8483C55.3209 74.8483 54.9617 74.8483 54.5511 74.8483C54.2946 74.8483 54.2946 74.8483 54.2946 74.5922C54.2946 73.5163 54.2946 72.4405 54.2946 71.3646C54.2946 70.9548 54.2946 70.5449 54.2946 70.1351C54.2946 70.0326 54.3459 69.9814 54.4485 69.9814C54.8591 69.9814 55.3209 69.9814 55.7315 69.9814C55.8854 69.9814 55.8854 69.9814 55.8854 70.1863C55.9881 70.8523 55.9881 71.6208 55.9881 72.3892Z" fill="#F27621"/>
<path d="M48.8548 72.338C48.8548 71.6208 48.8548 70.9035 48.8548 70.1351C48.8548 69.8789 48.8548 69.9301 49.1114 69.9301C49.522 69.9301 49.9325 69.9301 50.3431 69.9301C50.4457 69.9301 50.497 69.9814 50.497 70.0838C50.497 70.2375 50.497 70.3912 50.497 70.4937C50.497 71.8257 50.497 73.1065 50.497 74.4385C50.497 74.4897 50.497 74.5922 50.497 74.6434C50.497 74.7458 50.4457 74.7458 50.3431 74.7458C50.1891 74.7458 49.9838 74.7458 49.8299 74.7458C49.5733 74.7458 49.3167 74.7458 49.0601 74.7458C48.8548 74.7458 48.8548 74.7458 48.8548 74.5409C48.8548 73.9774 48.8548 73.3626 48.8548 72.7991C48.8548 72.6966 48.8548 72.4917 48.8548 72.338Z" fill="#F27621"/>
<path d="M17.3455 62.2967C17.3455 61.5795 17.3455 60.8623 17.3455 60.145C17.3455 59.9401 17.3455 59.9401 17.5508 59.9401C17.9613 59.9401 18.3206 59.9401 18.7311 59.9401C18.9877 59.9401 18.9877 59.9401 18.9877 60.145C18.9877 61.016 18.9877 61.8869 18.9877 62.7066C18.9877 63.2701 18.9877 63.8849 18.9877 64.4484C18.9877 64.7046 18.9877 64.6534 18.7311 64.6534C18.3206 64.6534 17.9613 64.6534 17.5508 64.6534C17.3455 64.6534 17.3455 64.6534 17.3455 64.4484C17.3455 63.7312 17.3455 63.014 17.3455 62.2967Z" fill="#F27621"/>
<path d="M126.396 62.2967C126.396 63.014 126.396 63.7312 126.396 64.4997C126.396 64.7046 126.396 64.7046 126.191 64.7046C125.781 64.7046 125.37 64.7046 124.96 64.7046C124.754 64.7046 124.754 64.7046 124.754 64.4997C124.754 63.9874 124.754 63.4238 124.754 62.9115C124.754 61.9894 124.754 61.0672 124.754 60.1963C124.754 59.9401 124.754 59.9401 125.011 59.9401C125.37 59.9401 125.781 59.9401 126.14 59.9401C126.448 59.9401 126.448 59.8889 126.448 60.2475C126.396 60.9135 126.396 61.5795 126.396 62.2967Z" fill="#F27621"/>
<path d="M132.452 62.2968C132.452 61.5795 132.452 60.8623 132.452 60.0938C132.452 59.8889 132.452 59.8889 132.657 59.8889C133.068 59.8889 133.427 59.8889 133.838 59.8889C134.094 59.8889 134.094 59.8889 134.094 60.0938C134.094 60.7598 134.094 61.4258 134.094 62.1431C134.094 62.9115 134.094 63.68 134.094 64.4485C134.094 64.7046 134.094 64.7046 133.838 64.7046C133.427 64.7046 133.068 64.7046 132.657 64.7046C132.401 64.7046 132.401 64.7046 132.401 64.4485C132.452 63.7312 132.452 63.014 132.452 62.2968Z" fill="#F27621"/>
<path d="M70.1005 59.4278C69.69 59.479 69.3308 59.2741 68.9715 59.1717C68.8689 59.1204 68.7663 59.1204 68.6123 59.0692C68.407 59.018 68.3044 59.018 68.2018 59.2229C68.1504 59.3254 68.0478 59.3766 67.9452 59.3766C67.7912 59.3766 67.5859 59.3766 67.432 59.3766C67.3807 59.3766 67.3293 59.3766 67.3293 59.2741C67.3293 58.9155 67.3807 58.5569 67.6886 58.3007C67.8938 58.0958 68.0991 57.8909 68.407 57.8909C68.7663 57.8397 69.1255 57.9421 69.4847 58.0958C69.6387 58.1983 69.8439 58.2495 70.0492 58.352C70.3058 58.4544 70.4598 58.4032 70.5624 58.147C70.665 57.9421 70.7677 57.8909 70.9216 57.8909C70.9729 57.8909 71.0243 57.8909 71.0756 57.8909C71.4348 57.8909 71.4348 57.8397 71.3835 58.2495C71.3322 58.6594 71.2295 59.018 70.9216 59.2741C70.6137 59.3766 70.3571 59.4278 70.1005 59.4278Z" fill="#F27621"/>
<path d="M55.167 67.6248C55.6801 67.6248 56.0394 68.0346 56.0394 68.5469C56.0394 69.1105 55.6288 69.4178 55.1156 69.4178C54.6538 69.4178 54.1919 69.008 54.2432 68.4957C54.2432 68.0346 54.5511 67.6248 55.167 67.6248Z" fill="#F27621"/>
<path d="M109 67.6248C109.513 67.6248 109.872 68.0346 109.872 68.5469C109.872 69.1105 109.462 69.4178 108.948 69.4178C108.486 69.4178 108.025 69.008 108.076 68.4957C108.076 68.0346 108.384 67.6248 109 67.6248Z" fill="#F27621"/>
<path d="M126.55 68.4957C126.55 69.1104 126.14 69.4178 125.678 69.4178C125.114 69.4178 124.806 69.0592 124.754 68.5469C124.754 68.2908 124.857 68.0346 125.011 67.8809C125.216 67.676 125.421 67.6248 125.678 67.6248C126.191 67.6248 126.55 68.0346 126.55 68.4957Z" fill="#F27621"/>
<path d="M133.324 59.3766C132.811 59.3766 132.401 59.018 132.401 58.5057C132.401 58.0446 132.863 57.5323 133.324 57.5835C133.838 57.6347 134.197 57.9934 134.248 58.4544C134.248 59.018 133.786 59.4278 133.324 59.3766Z" fill="#F27621"/>
<path d="M18.1153 59.3766C17.5508 59.3766 17.2942 59.0692 17.2429 58.4032C17.2429 57.9421 17.6534 57.5323 18.1153 57.5835C18.5771 57.5835 19.039 57.8909 18.9877 58.5057C19.039 59.018 18.6798 59.3766 18.1153 59.3766Z" fill="#F27621"/>
<path d="M50.5483 68.4957C50.5996 68.9568 50.2404 69.4178 49.6759 69.4178C49.2141 69.4178 48.7522 69.1104 48.8035 68.4957C48.8548 67.9834 49.1627 67.6248 49.6759 67.6248C50.1891 67.6248 50.5483 67.9834 50.5483 68.4957Z" fill="#F27621"/>
<path d="M124.652 58.4544C124.549 57.8909 125.062 57.5835 125.524 57.5835C125.729 57.5835 125.986 57.6348 126.14 57.8397C126.294 58.0446 126.396 58.2495 126.396 58.5057C126.396 59.018 126.037 59.3766 125.473 59.3766C124.96 59.3766 124.652 59.018 124.652 58.4544Z" fill="#F27621"/>
</g>
<defs>
<clipPath id="clip0_1_6175">
<rect width="146" height="77" fill="white"/>
</clipPath>
</defs>
</svg>
