<svg width="146" height="77" viewBox="0 0 146 77" fill="none" xmlns="http://www.w3.org/2000/svg">
<g clip-path="url(#clip0_33_885)">
<path d="M73.0256 23.1563C72.8204 23.1563 72.6151 23.1563 72.4611 23.1563C71.8453 23.1563 71.2808 23.1051 70.665 23.1051C70.2031 23.0538 69.69 23.0538 69.2281 23.0026C68.7149 22.9514 68.2017 22.8489 67.6885 22.7464C66.9188 22.644 66.2003 22.4903 65.4306 22.3366C64.4555 22.1317 63.4805 21.8755 62.5054 21.5169C61.7357 21.2608 61.0172 21.0046 60.2987 20.646C59.1697 20.1337 58.1434 19.5701 57.117 18.8529C56.6038 18.4943 56.142 18.1869 55.7314 17.7258C55.5262 17.5209 55.2696 17.316 55.0643 17.1111C54.2432 16.2401 53.5761 15.318 53.1142 14.2421C52.9089 13.7298 52.755 13.2687 52.6523 12.7052C52.5497 12.0904 52.5497 11.4757 52.601 10.8609C52.601 10.5023 52.7037 10.1437 52.8063 9.83627C52.9089 9.37519 53.1142 8.91411 53.3195 8.50426C53.6274 7.88949 53.9866 7.27472 54.4485 6.76242C54.9103 6.25011 55.3722 5.7378 55.8854 5.27672C56.5012 4.71318 57.1683 4.30333 57.8355 3.84226C58.6052 3.32995 59.4263 2.9201 60.2987 2.51025C61.2738 2.04918 62.3515 1.69056 63.3778 1.38317C64.1989 1.12702 64.9687 0.922096 65.7898 0.768403C66.2003 0.717173 66.6622 0.56348 67.0727 0.461018C67.2267 0.409787 67.432 0.409787 67.5859 0.409787C67.9965 0.358556 68.407 0.256095 68.8176 0.204864C69.0741 0.153633 69.3821 0.153633 69.69 0.153633C70.0492 0.102402 70.4084 0.0511712 70.819 0.0511712C70.8703 0.0511712 70.8703 0.0511712 70.9216 0.0511712C71.8453 0.0511712 72.7177 -0.0512905 73.6415 -5.96521e-05C74.206 -5.96521e-05 74.8218 -5.96503e-05 75.3863 0.0511712C75.8481 0.102402 76.31 0.153633 76.8232 0.153633C77.2337 0.204864 77.6443 0.256095 78.0035 0.307326C78.3627 0.358556 78.6706 0.409787 79.0299 0.461018C79.3378 0.512249 79.697 0.56348 80.0049 0.665942C80.3641 0.768403 80.7747 0.819634 81.1339 0.922096C81.8524 1.12702 82.5708 1.28071 83.2893 1.53687C84.059 1.79302 84.8288 2.04918 85.5473 2.35656C86.3683 2.71518 87.1381 3.07379 87.8566 3.53487C88.1645 3.73979 88.5237 3.89349 88.8316 4.09841C89.1908 4.35456 89.5501 4.66195 89.9606 4.9181C90.4738 5.32795 90.9357 5.7378 91.3975 6.25011C91.8594 6.71118 92.2699 7.22349 92.5778 7.83826C92.9371 8.45303 93.245 9.11904 93.4502 9.83627C93.5016 10.1437 93.5529 10.451 93.6555 10.7584C93.7582 11.0658 93.7068 11.4244 93.7068 11.783C93.7068 12.1417 93.6555 12.5003 93.6042 12.8589C93.4502 13.5249 93.245 14.1397 92.9371 14.7544C92.6292 15.3692 92.2699 15.9327 91.8081 16.445C91.3975 16.9061 90.9357 17.4184 90.4738 17.8283C89.858 18.3918 89.1908 18.8529 88.4724 19.314C88.0618 19.5701 87.6513 19.8263 87.2408 20.0312C86.8815 20.2361 86.471 20.4411 86.0604 20.5948C85.2393 20.9534 84.3669 21.312 83.4945 21.5681C82.6734 21.8243 81.8523 22.0804 81.0313 22.2854C80.4668 22.4391 79.9536 22.5415 79.3891 22.5928C78.8246 22.6952 78.2601 22.7464 77.6956 22.8489C77.285 22.9001 76.9258 22.9514 76.5153 22.9514C76.2074 22.9514 75.8995 23.0026 75.5915 23.0538C75.5402 23.0538 75.5402 23.0538 75.4889 23.0538C74.6165 23.1563 73.7954 23.1563 73.0256 23.1563ZM56.8091 8.04319C56.6552 8.14565 56.5012 8.19688 56.3473 8.29934C55.8341 8.5555 55.3722 8.86288 54.859 9.11903C54.8077 9.17027 54.8077 9.17027 54.8077 9.2215C55.013 9.58011 55.2696 9.98996 55.4748 10.3486C55.8854 11.0658 56.2959 11.783 56.7065 12.5003C57.117 13.2175 57.5789 13.986 57.9894 14.7032C58.0921 14.9081 58.246 15.0618 58.3487 15.2667C58.4 15.3692 58.4513 15.3692 58.5539 15.318C58.6052 15.318 58.6053 15.2667 58.6566 15.2667C59.0158 15.0618 59.375 14.8569 59.7342 14.652C59.9395 14.5495 60.0935 14.447 60.2987 14.2934C60.3501 14.2934 60.4014 14.2421 60.3501 14.1397C60.0422 13.6274 59.7342 13.115 59.4777 12.654C59.4263 12.6027 59.4263 12.5515 59.529 12.5003C59.8882 12.2953 60.1961 12.0904 60.5553 11.8855C60.9146 11.6806 61.2738 11.4757 61.633 11.2707C61.9922 11.0658 62.3002 10.8609 62.6594 10.7072C62.762 10.656 62.8133 10.656 62.9673 10.7072C63.3778 10.9633 63.7884 11.2195 64.1989 11.4757C64.8147 11.8855 65.4819 12.1929 66.149 12.5003C66.8675 12.8077 67.5859 13.0638 68.3044 13.2687C69.0228 13.4737 69.7413 13.6786 70.4597 13.7298C70.6137 13.7298 70.819 13.781 70.9729 13.8323C71.0755 13.8323 71.1782 13.8835 71.1782 14.0372C71.1782 15.1643 71.1782 16.2914 71.1782 17.3672C71.1782 17.5721 71.1782 17.5721 70.9729 17.5721C70.511 17.5721 69.9979 17.5721 69.536 17.5721C69.2794 17.5721 69.2794 17.5721 69.2794 17.8283C69.2794 18.3918 69.2794 18.9554 69.2794 19.4677C69.2794 19.8775 69.2281 19.8263 69.6386 19.8263C71.8453 19.8263 74.052 19.8263 76.2074 19.8263C76.2587 19.8263 76.31 19.8263 76.4126 19.8263C76.5153 19.8263 76.5666 19.7751 76.5666 19.6726C76.5666 19.0066 76.5666 18.3406 76.5666 17.7258C76.5666 17.5721 76.5153 17.5721 76.4126 17.5721C76.156 17.5721 75.8994 17.5721 75.6942 17.5721C75.3863 17.5721 75.0784 17.5721 74.8218 17.5721C74.6678 17.5721 74.6165 17.5209 74.6678 17.4184C74.6678 17.3672 74.6678 17.316 74.6678 17.316C74.6678 16.2401 74.6678 15.2155 74.6678 14.1397C74.6678 14.0884 74.6678 14.0372 74.6678 13.986C74.6678 13.8835 74.7191 13.8835 74.7704 13.8323C75.2323 13.781 75.6942 13.7298 76.1047 13.6274C76.6179 13.5249 77.1311 13.4224 77.6443 13.2687C78.2088 13.115 78.7219 12.9101 79.2864 12.7052C79.7996 12.5003 80.3128 12.2441 80.826 11.988C81.2878 11.7318 81.7497 11.4757 82.2116 11.117C82.4168 10.9633 82.6221 10.8097 82.8274 10.7072C82.8787 10.656 82.9813 10.6047 83.084 10.7072C83.2379 10.8097 83.3919 10.9121 83.5458 10.9633C84.1617 11.322 84.8288 11.6806 85.4446 12.0904C85.6499 12.2441 85.9065 12.3466 86.1118 12.5003C86.1631 12.5515 86.2144 12.5515 86.1631 12.654C85.8552 13.1663 85.5473 13.6786 85.2393 14.1909C85.188 14.2421 85.188 14.2934 85.2907 14.3446C85.5473 14.4983 85.8038 14.652 86.1118 14.8057C86.4197 14.9594 86.7276 15.1643 87.0355 15.318C87.1381 15.3692 87.2408 15.3692 87.2921 15.2667C87.4973 14.9081 87.7026 14.6007 87.8566 14.2934C88.1132 13.8323 88.4211 13.3712 88.6777 12.9101C88.9856 12.3466 89.3448 11.783 89.6527 11.2195C89.8067 10.9121 90.0119 10.6047 90.1659 10.2973C90.3198 9.98996 90.5251 9.68257 90.6791 9.37519C90.7817 9.17027 90.7817 9.17027 90.5764 9.01657C90.3712 8.91411 90.2172 8.81165 90.0119 8.70919C89.6014 8.45303 89.1908 8.24811 88.7803 7.99196C88.6263 8.24811 88.4724 8.50426 88.3184 8.76042C88.1645 9.01657 88.0105 9.32396 87.8566 9.58011C87.8052 9.63134 87.7539 9.63134 87.7026 9.63134C87.5487 9.52888 87.3434 9.42642 87.1894 9.37519C86.6763 9.0678 86.1631 8.76042 85.7012 8.50426C85.2393 8.24811 84.7775 7.99196 84.3156 7.7358C83.8024 7.42842 83.2893 7.12103 82.8274 6.86488C82.5708 6.71118 82.5708 6.76242 82.3142 6.91611C81.955 7.22349 81.5958 7.47965 81.2365 7.78703C80.826 8.09442 80.4154 8.35057 80.0049 8.60673C79.4917 8.91411 78.9785 9.11903 78.4654 9.37519C77.6443 9.78504 76.8232 10.0412 75.9508 10.2461C75.4889 10.3486 74.9757 10.451 74.5139 10.5023C74.0007 10.5535 73.4875 10.6047 72.923 10.6047C72.5638 10.6047 72.1532 10.656 71.794 10.5535C71.5887 10.5023 71.3321 10.5535 71.0755 10.5023C70.5624 10.451 70.1005 10.3486 69.6386 10.2461C68.9202 10.0924 68.253 9.8875 67.5859 9.58011C66.9701 9.32396 66.3543 9.01657 65.7898 8.70919C64.9687 8.29934 64.2502 7.78703 63.5318 7.17226C63.3778 7.01857 63.2239 6.91611 63.0699 6.81365C63.0186 6.76242 62.9673 6.76242 62.916 6.81365C62.6594 6.91611 62.4541 7.0698 62.1975 7.17226C61.4277 7.63334 60.658 8.04319 59.8882 8.50426C59.2211 8.86288 58.5539 9.27273 57.8868 9.63134C57.7842 9.68257 57.7328 9.73381 57.6815 9.58011C57.4249 9.06781 57.117 8.5555 56.8091 8.04319ZM78.3114 8.5555C78.4654 8.5555 78.6193 8.60673 78.7733 8.5555C79.2351 8.4018 79.6457 8.24811 79.9536 7.88949C80.4668 7.37719 80.6207 6.76242 80.5694 6.04518C80.5181 5.68657 80.4668 5.37918 80.2615 5.0718C80.1075 4.81564 79.9023 4.55949 79.6457 4.4058C79.0299 3.99595 78.414 3.84226 77.6956 4.04718C77.285 4.14964 76.8745 4.35456 76.5666 4.66195C76.156 5.12303 75.8994 5.68657 75.8994 6.35257C75.8994 6.96734 76.1047 7.47965 76.5666 7.94073C77.1311 8.29934 77.6443 8.5555 78.3114 8.5555ZM67.4833 8.5555C68.8176 8.5555 69.7926 7.53088 69.8439 6.30134C69.8439 4.96934 68.8175 3.99595 67.5859 3.94472C66.2003 3.89349 65.174 4.96933 65.174 6.25011C65.174 7.47965 66.149 8.5555 67.4833 8.5555ZM72.8717 9.63134C73.6415 9.68257 74.1546 9.37519 74.6165 8.96534C75.0784 8.50426 75.2836 7.94073 75.2836 7.32595C75.2836 6.71118 75.0784 6.09641 74.6165 5.68657C74.2059 5.27672 73.6928 5.0718 73.077 5.02057C71.6914 5.02057 70.7163 6.04518 70.7163 7.32595C70.665 8.60673 71.5887 9.63134 72.8717 9.63134Z" fill="white"/>
<path d="M125.678 32.6853C125.268 32.6853 124.908 32.6853 124.498 32.6853C123.317 32.6853 122.137 32.6853 121.008 32.6853C120.803 32.6853 120.7 32.7366 120.598 32.9415C120.29 33.4538 119.93 34.0173 119.623 34.5296C119.315 35.0419 119.007 35.5543 118.647 36.0666C118.391 36.4764 118.134 36.8863 117.878 37.2961C117.57 37.8084 117.262 38.3207 116.954 38.7818C116.646 39.2941 116.338 39.8064 115.979 40.3187C115.876 40.4724 115.825 40.6261 115.825 40.831C115.825 44.366 115.825 47.9009 115.825 51.3846C115.825 51.7944 115.876 51.7432 115.466 51.7432C112.695 51.7432 109.923 51.7432 107.152 51.7432C107.101 51.7432 107.05 51.7432 106.947 51.7432C106.793 51.7432 106.742 51.692 106.793 51.5895C106.793 51.4871 106.793 51.4358 106.793 51.3334C106.793 47.7984 106.793 44.2635 106.793 40.7798C106.793 40.5237 106.69 40.2675 106.536 40.0626C106.177 39.6015 105.869 39.1404 105.51 38.6793C104.997 37.9621 104.535 37.2961 104.022 36.5789C103.611 36.0153 103.201 35.4518 102.841 34.8883C102.38 34.2223 101.866 33.6075 101.456 32.9415C101.251 32.6341 101.045 32.5829 100.686 32.5829C95.9136 32.5829 91.1923 32.5829 86.4197 32.5829C86.0092 32.5829 86.0605 32.5316 86.0605 32.9415C86.0605 34.0173 86.0605 35.1444 86.0605 36.2203C86.0605 36.2715 86.0605 36.374 86.0605 36.4252C86.0605 36.5276 86.1118 36.5276 86.2144 36.5276C86.3171 36.5276 86.3684 36.5276 86.471 36.5276C89.0369 36.5276 91.6028 36.5276 94.2201 36.5276C94.3227 36.5276 94.374 36.5276 94.4767 36.5276C94.5793 36.5276 94.6306 36.5789 94.6306 36.6813C94.6306 36.7326 94.6306 36.7838 94.6306 36.8863C94.6306 38.5256 94.6306 40.165 94.6306 41.8557C94.6306 41.9069 94.6306 41.9581 94.6306 42.0606C94.6306 42.163 94.5793 42.2143 94.528 42.2143C94.4253 42.2143 94.374 42.2143 94.2714 42.2143C91.6542 42.2143 89.0882 42.2143 86.471 42.2143C86.0605 42.2143 86.1118 42.163 86.1118 42.5729C86.1118 45.493 86.1118 48.4132 86.1118 51.3846C86.1118 51.4358 86.1118 51.5383 86.1118 51.5895C86.1118 51.692 86.0605 51.7944 85.9578 51.7432C85.9065 51.7432 85.8552 51.7432 85.7526 51.7432C83.084 51.7432 80.4155 51.7432 77.6956 51.7432C77.2851 51.7432 77.3364 51.7944 77.3364 51.3846C77.3364 43.4438 77.3364 35.503 77.3364 27.5622C77.3364 27.1524 77.2851 27.2036 77.6956 27.2036C87.6513 27.2036 97.5557 27.2036 107.511 27.2036C107.563 27.2036 107.614 27.2036 107.717 27.2036C107.768 27.2036 107.819 27.2036 107.871 27.3061C108.281 27.9721 108.743 28.6381 109.205 29.3041C109.872 30.2775 110.488 31.2509 111.155 32.2243C111.514 32.7366 111.822 33.2489 112.181 33.8124C112.284 33.9661 112.335 33.9661 112.438 33.8124C112.592 33.5563 112.746 33.3513 112.9 33.0952C113.31 32.4292 113.721 31.7632 114.131 31.0972C114.491 30.4824 114.85 29.9189 115.209 29.3041C115.517 28.7918 115.876 28.2795 116.184 27.7672C116.287 27.6135 116.389 27.511 116.441 27.3573C116.492 27.2549 116.595 27.2036 116.697 27.2036C116.749 27.2036 116.851 27.2036 116.903 27.2036C122.548 27.2036 128.141 27.2036 133.786 27.2036C133.94 27.2036 134.043 27.1524 134.197 27.1524C134.556 27.1012 134.864 27.0499 135.223 26.9987C135.531 26.9475 135.89 26.8962 136.198 26.8962C136.404 26.8962 136.609 26.8962 136.763 26.8962C136.968 26.8962 137.173 26.8962 137.379 26.8962C137.84 26.8962 138.302 26.9475 138.764 26.9987C139.021 27.0499 139.277 27.0499 139.534 27.0499C139.739 27.0499 139.996 27.1012 140.201 27.1524C140.458 27.2036 140.766 27.2549 141.022 27.3061C141.535 27.4085 141.997 27.511 142.51 27.6647C143.126 27.8696 143.742 28.0745 144.307 28.3307C144.717 28.4844 145.076 28.7406 145.538 28.8942C145.846 28.9967 145.897 29.2016 145.897 29.509C145.897 31.6607 145.897 33.8636 145.897 36.0153C145.897 36.0666 145.897 36.1178 145.897 36.2203C145.641 36.0666 145.333 35.9641 145.128 35.8104C144.358 35.3493 143.537 34.9395 142.716 34.5809C142.305 34.4272 141.895 34.2223 141.484 34.1198C141.073 33.9661 140.612 33.9149 140.15 33.8124C139.534 33.7099 138.918 33.7612 138.302 33.7612C137.943 33.7612 137.533 33.8636 137.173 33.9661C136.711 34.0686 136.25 34.2735 135.788 34.4784C135.48 34.6321 135.223 34.8883 134.915 35.0932C134.761 35.1956 134.607 35.3493 134.453 35.4518C133.992 35.8616 133.684 36.374 133.427 36.9375C133.17 37.501 132.965 38.1158 132.863 38.7306C132.811 39.0892 132.76 39.499 132.76 39.8577C132.76 40.7798 132.914 41.6507 133.273 42.4704C133.581 43.2389 134.043 43.8537 134.659 44.366C135.275 44.9295 136.044 45.2881 136.865 45.5443C137.327 45.698 137.84 45.8004 138.354 45.8517C139.072 45.9541 139.791 46.0054 140.509 45.9541C140.92 45.9541 141.33 45.8517 141.741 45.7492C142.664 45.5443 143.588 45.1857 144.46 44.827C144.974 44.6221 145.538 44.4172 146.051 44.2123C146.103 44.161 146.154 44.2123 146.154 44.2635C146.154 44.3147 146.154 44.4172 146.154 44.4684C146.154 46.4664 146.154 48.4644 146.154 50.5137V50.5649C146.154 50.7698 146.154 50.7698 145.949 50.8723C145.282 51.1284 144.666 51.3846 143.999 51.5895C143.434 51.7944 142.818 51.9481 142.202 52.0506C141.843 52.1018 141.484 52.1531 141.125 52.2043C141.125 52.2043 141.125 52.2043 141.073 52.2043C140.714 52.2043 140.355 52.2555 139.996 52.2555C139.277 52.3068 138.559 52.3068 137.84 52.3068C137.686 52.3068 137.481 52.4092 137.327 52.358C136.865 52.2555 136.404 52.358 135.942 52.2555C135.685 52.2043 135.428 52.2043 135.172 52.2043C134.967 52.1531 134.71 52.1531 134.505 52.1018C133.889 51.9481 133.273 51.8457 132.709 51.6408C131.99 51.3846 131.272 51.0772 130.553 50.7186C129.937 50.36 129.322 50.0014 128.706 49.5403C128.244 49.1817 127.782 48.7718 127.32 48.362C127.012 48.0546 126.756 47.7472 126.499 47.3886C126.243 47.03 125.935 46.7226 125.729 46.364C125.421 45.9541 125.165 45.493 124.96 45.032C124.652 44.4684 124.395 43.9049 124.19 43.3413C124.036 42.829 123.933 42.3167 123.779 41.8044C123.677 41.4458 123.677 41.0872 123.574 40.7286C123.574 40.6773 123.574 40.6261 123.574 40.5237C123.574 40.3187 123.574 40.1138 123.574 39.9089C123.574 39.704 123.574 39.499 123.574 39.2941C123.574 38.6793 123.677 38.1158 123.728 37.501C123.831 36.7838 124.036 36.0666 124.292 35.3493C124.498 34.837 124.652 34.2735 124.96 33.8124C125.216 33.5563 125.421 33.1464 125.678 32.6853Z" fill="white"/>
<path d="M47.4692 35.4519C47.7258 35.0933 48.0337 34.8371 48.239 34.5297C48.7522 33.9149 49.368 33.4539 50.0351 33.0953C50.497 32.8391 50.9589 32.6342 51.4207 32.378C51.78 32.2243 52.1392 32.1731 52.4984 32.1731C52.7037 32.1731 52.9603 32.1731 53.1655 32.1731C53.5248 32.2243 53.8327 32.2756 54.1919 32.2756C54.4998 32.2756 54.7564 32.3268 55.0643 32.4293C55.9367 32.6342 56.7065 32.9928 57.3736 33.5563C57.9381 34.0686 58.4513 34.5809 58.7592 35.2982C58.7592 35.3494 58.8105 35.4006 58.8105 35.4519C58.8619 35.5543 58.9132 35.5543 58.9645 35.4519C59.1698 35.2469 59.375 35.042 59.5803 34.8371C60.0935 34.3248 60.658 33.8125 61.2738 33.4539C61.9923 32.9928 62.762 32.6342 63.6344 32.4805C64.045 32.4293 64.4555 32.378 64.9174 32.378C65.0714 32.378 65.2766 32.3268 65.4306 32.3268C65.8411 32.3268 66.2517 32.3268 66.6622 32.378C67.3807 32.4805 68.1504 32.5829 68.8176 32.8903C69.2794 33.0953 69.69 33.3002 70.1005 33.6076C70.665 34.0686 71.1269 34.6322 71.4861 35.2982C71.8453 35.9642 72.0506 36.7326 72.2046 37.5011C72.3072 38.0646 72.3585 38.6282 72.4098 39.1917C72.5125 40.37 72.4612 41.5996 72.4612 42.7779C72.4612 43.9562 72.4612 45.1857 72.4612 46.364C72.4612 48.0547 72.4612 49.7453 72.4612 51.3847C72.4612 51.7433 72.5125 51.6921 72.1533 51.6921C69.7926 51.6921 67.432 51.6921 65.02 51.6921C64.9687 51.6921 64.9174 51.6921 64.8148 51.6921C64.7121 51.6921 64.6608 51.6408 64.6608 51.5384C64.6608 51.4359 64.6608 51.3847 64.6608 51.2822C64.6608 47.5936 64.6608 43.8537 64.6608 40.1651C64.6608 39.6528 64.4555 39.243 64.1476 38.8843C63.891 38.577 63.5831 38.372 63.1726 38.2696C63.0699 38.2696 63.0186 38.2183 62.916 38.2183C62.7107 38.2183 62.5568 38.2183 62.3515 38.2183C61.5817 38.1671 61.0685 38.5257 60.6067 39.0893C60.3501 39.3454 60.1448 39.6528 59.9395 39.9602C59.8882 40.0627 59.8369 40.1139 59.8369 40.2163C59.8369 40.3188 59.8369 40.4725 59.8369 40.575C59.8369 44.1611 59.8369 47.7473 59.8369 51.3334C59.8369 51.7433 59.8882 51.6921 59.4777 51.6921C57.2197 51.6921 54.9617 51.6921 52.7037 51.6921C52.3445 51.6921 52.3958 51.7433 52.3958 51.3847C52.3958 47.6961 52.3958 44.0074 52.3958 40.2676C52.3958 39.4991 52.0365 38.9356 51.3694 38.577C51.2155 38.4745 51.0615 38.4233 50.9076 38.3208C50.7536 38.2183 50.5483 38.1671 50.3944 38.2183C50.0865 38.2183 49.8299 38.1671 49.522 38.2696C49.1627 38.372 48.9061 38.5257 48.5982 38.7306C48.1877 39.038 47.8798 39.4479 47.5719 39.8577C47.5206 39.9602 47.4692 40.0627 47.4692 40.1651C47.4692 40.4213 47.4692 40.6262 47.4692 40.8823C47.4692 43.7 47.4692 46.5177 47.4692 49.3867C47.4692 50.1039 47.4179 50.8724 47.4179 51.5896C47.4179 51.6921 47.3666 51.7433 47.264 51.7433C47.0587 51.7433 46.8534 51.7433 46.6995 51.7433C45.3652 51.7433 43.9796 51.7945 42.6453 51.7433C41.8242 51.6921 41.0032 51.6921 40.1821 51.6921C40.0794 51.6921 40.0281 51.6408 40.0281 51.5384C40.0281 51.4871 40.0281 51.3847 40.0281 51.3334C40.0281 45.2882 40.0281 39.243 40.0281 33.1977C40.0281 32.7879 39.9768 32.8391 40.3873 32.8391C42.6453 32.8391 44.9547 32.8391 47.2126 32.8391C47.5719 32.8391 47.5206 32.7879 47.5206 33.1465C47.4692 33.8637 47.4692 34.6322 47.4692 35.4519Z" fill="white"/>
<path d="M33.716 43.3413C32.8436 43.3413 31.9712 43.3926 31.0474 43.3413C30.0724 43.2901 29.046 43.2901 28.071 43.2901C27.0959 43.2901 26.1209 43.2901 25.0945 43.2901C24.9919 43.2901 24.8379 43.2901 24.7353 43.2901C24.7353 43.3926 24.7353 43.495 24.7866 43.5975C24.8379 44.0073 24.9919 44.4172 25.0945 44.827C25.2485 45.2881 25.5564 45.7492 25.9156 46.1078C26.2235 46.4152 26.6341 46.6201 27.0446 46.7738C27.4038 46.9275 27.7631 46.9787 28.1736 47.03C29.046 47.1837 29.9184 47.1324 30.7908 47.1324C31.1501 47.1324 31.5093 47.03 31.8685 46.9787C32.5357 46.8763 33.2028 46.6201 33.8699 46.4152C34.4344 46.2103 34.9989 45.9541 35.5634 45.7492C35.8713 45.6467 36.1279 45.5443 36.4358 45.3906C36.5385 45.3393 36.5385 45.3906 36.5385 45.493C36.5385 45.5443 36.5385 45.5955 36.5385 45.6467C36.5385 47.0812 36.5385 48.5157 36.5385 49.9501C36.5385 50.155 36.4871 50.3087 36.2819 50.4112C36.0766 50.5137 35.82 50.6673 35.6147 50.7698C34.8963 51.1284 34.1265 51.4358 33.3567 51.5895C33.1515 51.6407 32.8949 51.7432 32.6896 51.7944C32.3817 51.8457 32.0738 51.9481 31.7659 51.9994C31.304 52.0506 30.8935 52.0506 30.4316 52.153C29.9184 52.2555 29.4053 52.2043 28.8921 52.2043C28.5842 52.2043 28.2763 52.2043 28.0197 52.2043C27.5065 52.2043 27.0446 52.153 26.5314 52.1018C25.9156 52.0506 25.3511 51.9481 24.7866 51.7944C24.3248 51.6407 23.8116 51.487 23.3497 51.2821C22.8365 51.0772 22.3747 50.821 21.9128 50.5649C21.5023 50.3087 21.143 50.0013 20.7838 49.7452C20.6299 49.6427 20.5272 49.5403 20.3733 49.4378C19.9114 49.028 19.5009 48.5157 19.1416 48.0033C18.885 47.6447 18.5771 47.2349 18.4232 46.7738C18.2692 46.4152 18.1153 46.0566 17.9613 45.698C17.756 45.1344 17.6534 44.5709 17.6021 44.0073C17.5508 43.4438 17.4995 42.9315 17.4995 42.3679C17.4995 41.9581 17.5508 41.5483 17.6021 41.0872C17.6534 40.7286 17.7047 40.3699 17.8074 40.0113C17.91 39.5502 18.064 39.0892 18.2179 38.6281C18.3205 38.2695 18.5258 37.9621 18.6798 37.6547C19.039 36.9887 19.3982 36.3739 19.9627 35.8616C20.0654 35.7592 20.168 35.6055 20.3219 35.4518C20.8864 34.9395 21.5023 34.4272 22.1694 34.0685C22.8365 33.6587 23.555 33.4025 24.3248 33.1976C24.7353 33.0952 25.1458 33.0439 25.5564 32.9927C25.8643 32.9415 26.1209 32.9415 26.4288 32.9415C26.8907 32.8902 27.3525 32.9415 27.7631 32.9415C28.2249 32.9927 28.7381 33.0439 29.2 33.1464C29.5592 33.2489 29.9697 33.3001 30.329 33.4025C30.6369 33.505 30.9448 33.6587 31.2014 33.7612C31.9198 34.0173 32.5357 34.4272 33.1002 34.837C33.4594 35.0932 33.7673 35.4518 34.0752 35.7592C34.5884 36.2715 34.9989 36.835 35.3582 37.4498C35.82 38.2182 36.1279 39.0379 36.2819 39.9089C36.3845 40.3699 36.4358 40.831 36.4871 41.2921C36.5385 41.9581 36.4871 42.5729 36.5385 43.2389C36.5385 43.4438 36.5385 43.4438 36.3332 43.4438C35.5121 43.3413 34.6397 43.3413 33.716 43.3413ZM27.1986 40.5236C27.8657 40.5236 28.5842 40.5236 29.2513 40.5236C29.3026 40.5236 29.4053 40.5236 29.4566 40.5236C29.5079 40.5236 29.5079 40.4724 29.5079 40.4212C29.4566 40.0626 29.4053 39.7039 29.4053 39.3453C29.4053 38.9355 29.3026 38.5256 29.1487 38.1158C28.9434 37.5522 28.5842 37.1424 28.0197 36.9887C27.5065 36.8862 26.9933 36.835 26.5314 36.9887C25.8643 37.1424 25.4538 37.5522 25.1972 38.167C25.0432 38.4744 24.9919 38.833 24.9406 39.1916C24.8893 39.5503 24.8379 39.9089 24.8379 40.2675C24.8379 40.4724 24.8379 40.4724 25.0432 40.4724C25.7617 40.5236 26.4801 40.5236 27.1986 40.5236Z" fill="white"/>
<path d="M13.9585 38.8841C13.7532 38.7817 13.548 38.6792 13.394 38.5768C12.4703 38.0132 11.5466 37.6034 10.5202 37.3984C10.3149 37.3472 10.0583 37.3472 9.85306 37.3472C9.54516 37.3472 9.23725 37.3472 8.87802 37.3472C8.2622 37.3472 7.90298 37.6546 7.74902 38.1669C7.64639 38.4743 7.64638 38.7305 7.64638 38.9866C7.64638 39.2428 7.80034 39.3965 8.00561 39.5501C8.41616 39.8575 8.8267 40.1137 9.33988 40.2674C9.59647 40.3698 9.85306 40.4723 10.0583 40.626C10.6742 40.8822 11.2387 41.1383 11.8545 41.4457C12.419 41.7018 12.9321 42.0605 13.394 42.4703C13.8046 42.8289 14.1638 43.1875 14.4717 43.6486C14.7796 44.1097 14.9849 44.6732 15.1388 45.2368C15.2928 45.8003 15.2928 46.4151 15.2415 46.9786C15.1901 47.4909 15.0875 48.0545 14.8309 48.5155C14.6256 48.8742 14.4717 49.2328 14.2151 49.5402C14.0098 49.7451 13.8559 50.0012 13.6506 50.2062C13.394 50.4111 13.1887 50.616 12.8808 50.8209C12.7269 50.9234 12.5216 51.0771 12.3677 51.1796C11.9058 51.3845 11.4952 51.6406 11.0334 51.7943C10.6228 51.948 10.2123 52.0505 9.75043 52.1529C9.28856 52.2554 8.77538 52.3066 8.31352 52.3579C7.74902 52.4091 7.18452 52.4091 6.62002 52.4091C6.2608 52.4091 5.90157 52.3579 5.54234 52.3066C5.33707 52.3066 5.18312 52.2554 4.97784 52.2554C4.66994 52.2042 4.41334 52.2042 4.10544 52.1017C3.38698 51.948 2.66853 51.7943 2.00139 51.5382C1.38558 51.3332 0.821077 51.1283 0.256578 50.8722C0.0513057 50.7697 -1.24611e-05 50.6672 -1.24611e-05 50.5136C-1.24611e-05 49.95 -0.0513306 49.3352 -1.24611e-05 48.7717C0.102624 47.6446 -1.24611e-05 46.5175 0.0513056 45.3905C0.0513056 45.3392 0.0513056 45.3392 0.0513056 45.288C0.564487 45.5954 1.07767 45.8515 1.59085 46.1589C2.25798 46.5688 2.92512 46.9786 3.64357 47.3372C4.10544 47.5422 4.61862 47.6959 5.1318 47.7983C5.28575 47.8495 5.43971 47.7983 5.54234 47.7983C5.6963 47.7983 5.90157 47.8495 6.05552 47.7983C6.8253 47.6959 7.18452 47.286 7.23584 46.6712C7.28716 46.2102 7.18452 45.8003 6.87661 45.4417C6.5687 45.0831 6.2608 44.8269 5.85025 44.622C5.08048 44.2122 4.36203 43.8023 3.59225 43.3925C2.92512 43.0338 2.25798 42.624 1.69348 42.1629C1.12899 41.7018 0.667123 41.1895 0.307896 40.5235C0.102624 40.1649 -1.24611e-05 39.7551 -0.0513306 39.294C-1.24611e-05 38.9354 -1.24611e-05 38.5768 -1.24611e-05 38.2694C0.0513056 37.1423 0.359214 36.1177 1.02635 35.1955C1.48821 34.5295 2.10403 34.0684 2.82248 33.7098C3.48962 33.3512 4.20807 33.0951 4.92653 32.9414C5.28575 32.8389 5.64498 32.8389 6.00421 32.7877C6.67134 32.6852 7.38979 32.7364 8.10825 32.7364C8.57011 32.7364 9.03197 32.8389 9.54516 32.8901C9.90438 32.9414 10.2123 33.0438 10.5715 33.0951C11.1873 33.1975 11.7518 33.4024 12.3163 33.5561C12.8808 33.7098 13.394 33.966 13.9585 34.2221C14.0611 34.2734 14.1125 34.3246 14.1125 34.4271C14.0098 35.9128 14.0098 37.3472 13.9585 38.8841Z" fill="white"/>
<path d="M110.18 60.6061C109.975 60.811 109.821 61.016 109.667 61.1697C109.461 61.4258 109.256 61.6307 109.051 61.8869C108.897 62.0918 108.692 62.2967 108.538 62.5017C108.435 62.6041 108.127 62.6041 108.025 62.5017C107.665 62.0918 107.357 61.682 106.998 61.2721C106.844 61.0672 106.639 60.8623 106.434 60.6061C106.434 60.7598 106.434 60.8623 106.434 60.9647C106.434 62.0918 106.434 63.2189 106.434 64.346C106.434 64.3972 106.434 64.4997 106.434 64.5509C106.434 64.6534 106.382 64.7046 106.28 64.7046C105.767 64.7046 105.202 64.7046 104.689 64.7046C104.586 64.7046 104.535 64.6534 104.535 64.6021C104.535 64.5509 104.535 64.4997 104.535 64.3972C104.535 62.2455 104.535 60.0938 104.535 57.9421C104.535 57.5835 104.484 57.6347 104.843 57.6347C105.151 57.6347 105.51 57.686 105.818 57.6347C106.126 57.5835 106.28 57.7884 106.434 57.9421C106.639 58.1983 106.844 58.4544 107.05 58.6593C107.255 58.8643 107.409 59.1204 107.614 59.3253C107.768 59.5303 107.973 59.7352 108.127 59.9401C108.23 60.0426 108.281 60.0426 108.384 59.9401C108.486 59.7864 108.589 59.684 108.692 59.5303C109 59.1717 109.359 58.7618 109.667 58.4032C109.872 58.147 110.077 57.9421 110.283 57.686C110.334 57.5835 110.437 57.5835 110.539 57.5835C110.95 57.5835 111.412 57.5835 111.822 57.5835C111.976 57.5835 111.976 57.5835 111.976 57.7884C111.976 58.8643 111.976 59.8889 111.976 60.9647C111.976 62.143 111.976 63.2701 111.976 64.4484C111.976 64.7046 111.976 64.7046 111.719 64.6534C111.258 64.6534 110.796 64.6534 110.334 64.6534C110.077 64.6534 110.077 64.6534 110.077 64.3972C110.077 63.2189 110.077 62.0918 110.077 60.9135C110.18 60.8623 110.18 60.7598 110.18 60.6061Z" fill="white"/>
<path d="M45.6218 61.1697C45.6218 60.0938 45.6218 59.0692 45.6218 57.9934C45.6218 57.9421 45.6218 57.8909 45.6218 57.8397C45.6218 57.6348 45.6218 57.6348 45.827 57.6348C45.8784 57.6348 45.8784 57.6348 45.9297 57.6348C47.4692 57.6348 49.0088 57.6348 50.5483 57.6348C50.5996 57.6348 50.6509 57.6348 50.7536 57.6348C50.8562 57.6348 50.8562 57.686 50.8562 57.7372C50.8562 57.9421 50.8562 58.1983 50.8562 58.4032C50.8562 58.5569 50.8562 58.7106 50.8562 58.8643C50.8562 59.0692 50.8562 59.0692 50.6509 59.0692C50.3943 59.0692 50.0864 59.0692 49.8298 59.0692C49.1627 59.0692 48.4443 59.0692 47.7771 59.0692C47.5719 59.0692 47.5719 59.0692 47.5719 59.2742C47.5719 59.5303 47.5719 59.8377 47.5719 60.0938C47.5719 60.2988 47.5719 60.2988 47.7771 60.2988C48.3929 60.2988 49.0088 60.2988 49.6759 60.2988C49.9838 60.2988 50.2404 60.2988 50.5483 60.2988C50.6509 60.2988 50.7023 60.35 50.7023 60.4525C50.7023 60.8111 50.7023 61.2209 50.7023 61.5795C50.7023 61.7332 50.7023 61.7332 50.497 61.7332C49.6246 61.7332 48.8035 61.7332 47.9311 61.7332C47.8798 61.7332 47.7771 61.7332 47.7258 61.7332C47.6232 61.7332 47.5719 61.7845 47.5719 61.8869C47.5719 62.2968 47.5719 62.6554 47.5719 63.0652C47.5719 63.2189 47.6232 63.2189 47.7771 63.2189C48.239 63.2189 48.7522 63.2189 49.214 63.2189C49.7272 63.2189 50.2404 63.2189 50.7536 63.2189C50.9588 63.2189 50.9588 63.2189 50.9588 63.4239C50.9588 63.7825 50.9588 64.1411 50.9588 64.4997C50.9588 64.6534 50.9588 64.6534 50.7536 64.6534C50.343 64.6534 49.8812 64.6534 49.4706 64.6534C48.3416 64.6534 47.1613 64.6534 46.0323 64.6534C45.981 64.6534 45.8784 64.6534 45.827 64.6534C45.7244 64.6534 45.6731 64.6022 45.6731 64.4997C45.6731 64.1923 45.6731 63.9362 45.6731 63.6288C45.6218 62.8603 45.6218 62.0406 45.6218 61.1697Z" fill="white"/>
<path d="M40.7979 70.3911C40.9005 70.2887 41.0031 70.2374 41.1058 70.1862C41.4137 69.9813 41.8242 69.8276 42.1835 69.8788C42.4914 69.8788 42.7993 69.8276 43.1072 69.9813C43.4664 70.135 43.723 70.3399 43.9796 70.6473L44.0309 70.6985C44.2362 70.5448 44.3901 70.3911 44.5441 70.2374C44.698 70.135 44.9033 69.9813 45.1086 69.9301C45.2625 69.8788 45.4165 69.8788 45.5705 69.8276C45.7244 69.8276 45.8784 69.8276 45.981 69.8276C46.8021 69.7764 47.4692 70.3911 47.6745 71.1084C47.6745 71.1596 47.6745 71.2621 47.6745 71.3133C47.6745 72.3891 47.6745 73.4138 47.6745 74.4896C47.6745 74.7458 47.6745 74.6945 47.4179 74.6945C47.0074 74.6945 46.6481 74.6945 46.2376 74.6945C46.0323 74.6945 46.0323 74.6945 46.0323 74.4896C46.0323 73.8236 46.0323 73.1576 46.0323 72.4916C46.0323 72.2355 46.0323 72.0305 46.0323 71.7744C46.0323 71.467 45.8784 71.2621 45.6731 71.0571C45.5191 70.9034 45.2625 70.9034 45.1086 70.9547C44.7494 71.0571 44.4415 71.3133 44.2362 71.6719C44.1849 71.7231 44.1849 71.8256 44.1849 71.9281C44.1849 72.7478 44.1849 73.5675 44.1849 74.3359C44.1849 74.3872 44.1849 74.4896 44.1849 74.5408C44.1849 74.6433 44.1335 74.6433 44.0822 74.6433C43.9283 74.6433 43.7743 74.6433 43.6204 74.6433C43.3125 74.6433 43.0559 74.6433 42.748 74.6433C42.5427 74.6433 42.5427 74.6433 42.5427 74.4384C42.5427 74.131 42.5427 73.7724 42.5427 73.465C42.5427 72.8502 42.5427 72.2867 42.5427 71.6719C42.5427 71.1084 42.0808 70.7498 41.5163 70.9034C41.2084 71.0059 41.0031 71.2108 40.7979 71.467C40.7466 71.5182 40.7466 71.6207 40.7466 71.7231C40.7466 72.5941 40.7466 73.465 40.7466 74.3359C40.7466 74.6945 40.7979 74.6433 40.4386 74.6433C40.0794 74.6433 39.6689 74.6433 39.3096 74.6433C39.1044 74.6433 39.1044 74.6433 39.1044 74.4384C39.1044 73.6699 39.1044 72.8502 39.1044 72.0818C39.1044 71.4158 39.1044 70.7498 39.1044 70.0325C39.1044 69.7764 39.1044 69.7764 39.361 69.7764C39.7715 69.7764 40.1821 69.7764 40.5926 69.7764C40.7466 69.7764 40.7466 69.7764 40.7979 69.9813C40.7979 70.1862 40.7979 70.2887 40.7979 70.3911Z" fill="white"/>
<path d="M91.7568 70.6985C92.0134 70.4423 92.3213 70.1862 92.6805 70.0325C92.8858 69.93 93.1424 69.8788 93.3476 69.8788C93.6556 69.8788 93.9121 69.8275 94.2201 69.93C94.8359 70.1349 95.2464 70.4935 95.4004 71.262C95.4517 71.5182 95.4517 71.8255 95.4517 72.0817C95.4517 72.8502 95.4517 73.5674 95.4517 74.3359C95.4517 74.3871 95.4517 74.4383 95.4517 74.4383C95.4517 74.8482 95.503 74.7969 95.0925 74.7969C94.7846 74.7969 94.4253 74.7969 94.1174 74.7969C94.0661 74.7969 94.0148 74.7969 93.9635 74.7969C93.8095 74.7969 93.8095 74.7457 93.8095 74.6432C93.8095 74.2334 93.8095 73.7723 93.8095 73.3625C93.8095 72.9526 93.8095 72.4915 93.8095 72.0817C93.8095 71.8768 93.7582 71.6206 93.6556 71.4157C93.5529 71.1083 93.0911 70.9546 92.8345 71.0571C92.5266 71.1595 92.27 71.3132 92.0647 71.6206C92.0134 71.7231 91.9621 71.8255 91.9621 71.9792C91.9621 72.7989 91.9621 73.6186 91.9621 74.4896C91.9621 74.5408 91.9621 74.6432 91.9621 74.6945C91.9621 74.7969 91.9107 74.8482 91.8081 74.8482C91.3462 74.8482 90.8844 74.8482 90.4225 74.8482C90.3199 74.8482 90.2686 74.7969 90.2686 74.7457C90.2686 74.6945 90.2686 74.592 90.2686 74.5408C90.2686 73.7211 90.2686 72.9014 90.2686 72.1329C90.2686 71.9792 90.2172 71.7743 90.1659 71.6206C90.012 71.1595 89.4475 70.9546 88.9343 71.262C88.8317 71.3132 88.7803 71.3645 88.729 71.4157C88.5237 71.5694 88.4211 71.7743 88.4211 72.0305C88.4724 72.8502 88.4211 73.6699 88.4211 74.4896C88.4211 74.5408 88.4211 74.592 88.4211 74.6945C88.4211 74.8994 88.4211 74.8994 88.2158 74.8994C87.8566 74.8994 87.5487 74.8994 87.1895 74.8994C86.7789 74.8994 86.7789 74.8994 86.7789 74.4896C86.7789 73.1063 86.7789 71.7743 86.7789 70.3911C86.7789 70.3399 86.7789 70.2374 86.7789 70.1862C86.7789 70.0837 86.8302 70.0325 86.8816 70.0837H86.9329C87.3434 70.0837 87.8053 70.0837 88.2158 70.0837C88.3185 70.0837 88.4211 70.1349 88.3698 70.2374C88.3698 70.2886 88.3698 70.3399 88.3698 70.3911C88.3698 70.4935 88.4211 70.4935 88.5237 70.4423C88.9343 70.1349 89.3448 69.9812 89.9093 69.9812C90.2172 69.9812 90.5251 69.9812 90.7817 70.0837C91.2436 70.1349 91.4489 70.4423 91.7568 70.6985Z" fill="white"/>
<path d="M79.7996 73.3626C79.7996 73.5675 79.7996 73.8237 79.7996 74.0286C79.7996 74.1311 79.7483 74.1823 79.6457 74.2335C79.0812 74.5409 78.5167 74.7458 77.8496 74.7971C77.3877 74.8483 76.9258 74.8483 76.5153 74.8483C75.7968 74.7971 75.0784 74.6434 74.4626 74.1823C74.1547 73.9774 73.8981 73.7212 73.6928 73.4651C73.3849 73.0552 73.1283 72.5942 73.0257 72.1331C72.923 71.7232 72.8717 71.3134 72.9743 70.8523C73.0257 70.3912 73.1796 70.0326 73.3849 69.6228C73.8467 68.8031 74.4626 68.2395 75.335 67.9321C75.6942 67.8297 76.0534 67.7272 76.4127 67.676C76.8232 67.6248 77.2851 67.6248 77.6956 67.6248C78.3627 67.676 79.0299 67.8297 79.5944 68.1371C79.697 68.1883 79.7483 68.2908 79.7483 68.3932C79.7483 68.8543 79.7483 69.2641 79.7483 69.7252C79.7483 69.9301 79.6457 69.9814 79.4917 69.8789C79.0812 69.6228 78.6193 69.4178 78.1062 69.3154C77.439 69.2129 76.8232 69.1617 76.2074 69.4178C75.5402 69.674 75.1297 70.1863 74.9244 70.9035C74.8218 71.4158 74.9244 71.8769 75.2323 72.2355C75.5403 72.6454 75.9508 72.9528 76.5153 73.1065C76.7719 73.1577 77.0285 73.2601 77.2851 73.2089C77.593 73.2089 77.9009 73.1577 78.2088 73.0552C78.6706 72.9015 79.0812 72.7478 79.4917 72.5429C79.5431 72.4917 79.5944 72.4917 79.697 72.4405C79.7997 72.3892 79.851 72.4405 79.851 72.5429C79.851 72.7478 79.851 72.9528 79.851 73.1577C79.7997 73.2602 79.7996 73.3114 79.7996 73.3626Z" fill="white"/>
<path d="M2.77117 57.5834C3.59226 57.481 4.31071 57.7883 5.08048 58.0445C5.1318 58.0957 5.18312 58.0957 5.18312 58.1982C5.18312 58.608 5.18312 59.0179 5.18312 59.4277C5.18312 59.5814 5.1318 59.5814 5.02916 59.5814C4.97785 59.5814 4.92653 59.5814 4.87521 59.5302C4.66994 59.479 4.46466 59.3765 4.31071 59.3253C3.95148 59.1716 3.59226 59.1203 3.18171 59.0179C2.8738 58.9667 2.61721 59.0179 2.36062 59.1203C2.25799 59.1203 2.15535 59.2228 2.10403 59.274C2.00139 59.4277 2.00139 59.6327 2.20667 59.7863C2.41194 59.94 2.66853 60.0425 2.92512 60.145C3.33567 60.2987 3.74621 60.4523 4.15676 60.6573C4.46466 60.811 4.77257 61.0671 5.02916 61.272C5.38839 61.5282 5.49103 61.938 5.54234 62.3991C5.59366 62.7065 5.54234 63.0139 5.49103 63.27C5.38839 63.6799 5.18312 63.9873 4.82389 64.2434C4.36203 64.5508 3.84885 64.7557 3.28435 64.7557C3.07908 64.7557 2.92512 64.807 2.71985 64.807C1.89876 64.7557 1.12899 64.602 0.410534 64.141C0.359216 64.0897 0.307897 64.0385 0.307897 63.9873C0.307897 63.5262 0.307897 63.0139 0.307897 62.5528C0.307897 62.3991 0.359216 62.3991 0.51317 62.4504C0.821078 62.6553 1.12899 62.8602 1.4369 63.0139C1.89876 63.2188 2.36062 63.3725 2.8738 63.3213C3.13039 63.3213 3.38698 63.27 3.54094 63.0651C3.74621 62.8602 3.74621 62.604 3.48962 62.4504C3.28435 62.2967 3.07907 62.1942 2.82248 62.0917C2.36062 61.8868 1.89876 61.7331 1.48821 61.5282C1.12899 61.3745 0.821078 61.1696 0.615806 60.8622C0.359216 60.606 0.205261 60.2474 0.205261 59.8888C0.205261 59.6839 0.205261 59.479 0.205261 59.274C0.256579 58.813 0.461852 58.4031 0.821078 58.0957C1.38558 57.6347 2.00139 57.481 2.71985 57.481C2.61721 57.5834 2.71985 57.5834 2.77117 57.5834Z" fill="white"/>
<path d="M57.8355 60.145C58.0921 60.0425 58.3487 59.8888 58.6566 59.8376C59.0158 59.7864 59.3237 59.7864 59.6316 59.8888C60.504 60.145 61.0172 60.7598 61.2225 61.6819C61.3251 62.2455 61.2738 62.809 61.1198 63.3725C61.0172 63.6287 60.9146 63.8336 60.7606 63.9873C60.4527 64.3459 60.0935 64.6021 59.6829 64.6533C59.3237 64.7045 59.0158 64.807 58.6566 64.7045C58.4 64.6533 58.1434 64.6021 57.8868 64.5508C57.8868 64.807 57.8868 65.0632 57.8868 65.3705C57.8868 65.8316 57.8868 66.2927 57.8868 66.7538C57.8868 66.9587 57.8868 66.9587 57.7328 66.9587C57.3223 66.9587 56.8604 66.9587 56.4499 66.9587C56.3473 66.9587 56.2959 66.9075 56.2959 66.805C56.2959 66.7538 56.2959 66.7025 56.2959 66.6001C56.2959 64.4484 56.2959 62.2967 56.2959 60.145C56.2959 59.7864 56.2446 59.8376 56.6552 59.7864C57.0144 59.7864 57.3736 59.7864 57.7328 59.7864C57.7842 59.8888 57.7842 59.8888 57.8355 60.145ZM57.7842 62.3479C57.7842 62.6041 57.7842 62.9115 57.7842 63.1676C57.7842 63.2701 57.7842 63.3725 57.8868 63.4238C58.0921 63.5775 58.2973 63.6799 58.5026 63.6287C58.8618 63.5775 59.2211 63.4238 59.375 63.0652C59.6316 62.6041 59.6316 62.0918 59.4263 61.5795C59.2724 61.2208 58.9645 60.9647 58.6053 60.9647C58.2973 60.9647 58.0408 61.0671 57.7842 61.2721C57.7328 61.3233 57.7328 61.3745 57.7328 61.477C57.7842 61.8356 57.7842 62.0918 57.7842 62.3479Z" fill="white"/>
<path d="M122.034 59.9914C122.034 59.7865 122.034 59.5303 122.034 59.2742C122.034 58.8131 122.034 58.3008 122.034 57.8397C122.034 57.6348 122.034 57.6348 122.188 57.6348C122.599 57.6348 123.061 57.6348 123.471 57.6348C123.574 57.6348 123.625 57.686 123.625 57.7885C123.625 57.8397 123.625 57.8909 123.625 57.9422C123.625 60.0938 123.625 62.2455 123.625 64.3972C123.625 64.7559 123.677 64.7046 123.317 64.7046C122.958 64.7046 122.599 64.7046 122.24 64.7046C122.034 64.7046 122.034 64.7046 121.983 64.4997C121.727 64.6534 121.47 64.7559 121.162 64.8071C120.7 64.8583 120.341 64.8071 119.93 64.6534C119.776 64.6022 119.622 64.5509 119.52 64.4485C119.109 64.0899 118.75 63.68 118.647 63.1165C118.545 62.5529 118.493 61.9382 118.699 61.3746C118.904 60.8111 119.263 60.35 119.776 60.0426C119.982 59.9402 120.187 59.8889 120.392 59.8377C120.546 59.7865 120.649 59.7865 120.803 59.7865C121.265 59.7865 121.624 59.8889 122.034 59.9914ZM122.034 62.2455C122.034 61.9382 122.034 61.682 122.034 61.3746C122.034 61.3234 121.983 61.2209 121.983 61.2209C121.778 61.1185 121.521 60.9648 121.265 61.016C120.905 61.016 120.598 61.1697 120.444 61.5283C120.187 61.9382 120.136 62.3992 120.29 62.8603C120.444 63.2702 120.649 63.6288 121.111 63.68C121.367 63.7312 121.573 63.6288 121.778 63.5263C121.983 63.4239 122.086 63.2702 122.086 63.014C122.034 62.7579 122.034 62.5017 122.034 62.2455Z" fill="white"/>
<path d="M40.0281 59.9914C40.0281 59.3254 40.0281 58.6594 40.0281 58.0446C40.0281 57.9422 40.0281 57.8909 40.0281 57.7885C40.0281 57.686 40.0794 57.6348 40.1821 57.6348C40.6439 57.6348 41.1058 57.6348 41.5676 57.6348C41.6703 57.6348 41.7216 57.686 41.7216 57.7372C41.7216 57.7885 41.7216 57.8397 41.7216 57.9422C41.7216 60.0938 41.7216 62.2455 41.7216 64.3972C41.7216 64.7559 41.7729 64.7046 41.4137 64.7046C41.0545 64.7046 40.6439 64.7046 40.2847 64.7046C40.0794 64.7046 40.0794 64.7046 40.0794 64.4997C39.8228 64.6534 39.5662 64.7559 39.2583 64.8071C38.7965 64.9095 38.3859 64.8071 38.0267 64.6534C37.9241 64.6022 37.8214 64.5509 37.7188 64.4997C37.2056 64.1411 36.8464 63.68 36.6924 63.0652C36.5385 62.4505 36.5898 61.8869 36.7951 61.2722C36.8977 60.9135 37.103 60.6574 37.4109 60.4012C37.6675 60.1451 37.9754 59.9914 38.2833 59.8889C38.6425 59.7865 39.0017 59.7352 39.361 59.8377C39.5149 59.8889 39.7715 59.9402 40.0281 59.9914ZM40.0281 62.2455C40.0281 62.0406 40.0281 61.8357 40.0281 61.6308C40.0281 61.1697 39.9768 61.1185 39.5662 61.016C39.5149 61.016 39.4636 61.016 39.4636 61.016C39.2583 60.9135 39.1044 61.016 38.9504 61.0672C38.7451 61.1185 38.5912 61.2722 38.4886 61.4259C38.1806 62.0406 38.1293 62.6554 38.4886 63.2189C38.5912 63.4239 38.7965 63.5263 39.0531 63.6288C39.3096 63.7312 39.5149 63.6288 39.7202 63.5263C39.9255 63.4239 40.0794 63.2702 40.0281 62.9628C39.9768 62.7579 40.0281 62.5017 40.0281 62.2455Z" fill="white"/>
<path d="M18.5258 71.2622C18.5258 72.338 18.5258 73.4139 18.5258 74.4897C18.5258 74.541 18.5258 74.6434 18.5258 74.6947C18.5258 74.7971 18.4745 74.7971 18.3719 74.7971H18.3205C17.91 74.7971 17.4481 74.7971 17.0376 74.7971C16.935 74.7971 16.8323 74.7971 16.8836 74.6434C16.8836 74.541 16.8323 74.541 16.781 74.5922C16.3705 74.8483 15.9086 74.8996 15.3954 74.8483C14.9849 74.7971 14.6256 74.6434 14.3177 74.3873C13.9072 74.0286 13.5993 73.5676 13.4966 73.004C13.4453 72.6966 13.394 72.4405 13.4453 72.0819C13.4966 71.7745 13.4966 71.5183 13.6506 71.211C13.7532 71.006 13.8559 70.8011 14.0098 70.6474C14.2151 70.3913 14.4204 70.1863 14.7283 70.0326C14.9849 69.9302 15.2928 69.8277 15.5494 69.8277C15.9599 69.8277 16.3705 69.8277 16.781 69.9814L16.8836 69.9302C16.8836 69.8789 16.8836 69.7765 16.8836 69.7253C16.8836 69.1105 16.8836 68.4957 16.8836 67.8809C16.8836 67.676 16.8836 67.676 17.0889 67.676C17.4995 67.676 17.91 67.676 18.3205 67.676C18.4745 67.676 18.5258 67.676 18.5258 67.8809C18.5258 68.3933 18.5258 68.9568 18.5258 69.4691C18.5258 70.0326 18.5258 70.6474 18.5258 71.2622ZM16.8836 72.338C16.8836 72.1331 16.8836 71.9282 16.8836 71.7233C16.8836 71.211 16.8836 71.1597 16.3705 71.0573C15.8573 70.9548 15.4467 71.211 15.2928 71.6208C15.0875 72.0819 15.0875 72.543 15.2928 73.0553C15.5494 73.7213 16.1652 73.9262 16.8323 73.4651C16.935 73.4139 16.935 73.3114 16.935 73.209C16.8836 72.9016 16.8836 72.6454 16.8836 72.338Z" fill="white"/>
<path d="M93.2963 64.4995C93.0397 64.6532 92.7831 64.7557 92.4752 64.8069C91.8594 64.9093 91.3462 64.8069 90.8844 64.4483C90.3712 64.0897 90.0633 63.5773 89.9606 62.9113C89.9093 62.6552 89.9093 62.399 89.9093 62.1429C89.9093 61.6306 90.0119 61.1695 90.3198 60.7596C90.6791 60.2986 91.1409 59.94 91.7568 59.8375C92.2699 59.735 92.7318 59.7863 93.1937 59.94C93.3476 59.9912 93.3476 59.9912 93.3476 59.8375C93.3476 59.2227 93.3476 58.6592 93.3476 58.0444C93.3476 57.9932 93.3476 57.8907 93.3476 57.8395C93.3476 57.6858 93.3989 57.6858 93.5016 57.6858C93.9121 57.6858 94.374 57.6858 94.7845 57.6858C94.8872 57.6858 94.9385 57.737 94.9385 57.8395C94.9385 57.8907 94.9385 57.9419 94.9385 58.0444C94.9385 60.1961 94.9385 62.2966 94.9385 64.4483C94.9385 64.4483 94.9385 64.4483 94.9385 64.4995C94.9385 64.8581 94.9898 64.8069 94.6306 64.8069C94.2713 64.8069 93.9121 64.8069 93.5529 64.8069C93.3476 64.7044 93.3476 64.7044 93.2963 64.4995ZM93.3476 62.2453C93.3476 61.9892 93.3476 61.733 93.3476 61.5281C93.3989 61.272 93.245 61.1695 93.0397 61.067C92.5265 60.8621 91.9107 61.067 91.7054 61.5793C91.6541 61.7843 91.6028 61.9892 91.6028 62.1429C91.5515 62.4503 91.6028 62.7576 91.7568 63.065C91.9107 63.5261 92.5778 63.8847 93.1937 63.4749C93.3476 63.3724 93.4503 63.27 93.4503 63.065C93.2963 62.8089 93.3476 62.5015 93.3476 62.2453Z" fill="white"/>
<path d="M28.7894 59.9914C28.7894 59.3254 28.7894 58.6594 28.7894 58.0446C28.7894 57.9422 28.7894 57.8909 28.7894 57.7885C28.7894 57.686 28.8408 57.6348 28.9434 57.6348C29.4053 57.6348 29.8671 57.6348 30.329 57.6348C30.4316 57.6348 30.4829 57.686 30.4829 57.7372C30.4829 57.7885 30.4829 57.8397 30.4829 57.9422C30.4829 60.0938 30.4829 62.2455 30.4829 64.3972C30.4829 64.7559 30.5343 64.7046 30.175 64.7046C29.8158 64.7046 29.4053 64.7046 29.046 64.7046C28.9434 64.7046 28.8408 64.7046 28.8408 64.6022C28.8408 64.6022 28.7381 64.5509 28.7381 64.6022C28.4815 64.7559 28.1736 64.8071 27.8657 64.8583C27.7631 64.8583 27.6604 64.8583 27.5578 64.8583C27.3012 64.8071 26.9933 64.7559 26.7367 64.6534C26.4288 64.5509 26.1722 64.2948 25.967 64.0386C25.7104 63.7312 25.5564 63.3726 25.4538 62.9628C25.4025 62.8091 25.4538 62.6554 25.4025 62.5017C25.4025 62.3992 25.3511 62.348 25.3511 62.2455C25.4025 61.8357 25.4025 61.3746 25.659 60.9648C26.0183 60.35 26.5315 59.9402 27.3012 59.8377C27.7631 59.7352 28.2763 59.8377 28.7894 59.9914ZM28.7894 62.2455C28.7894 61.9382 28.7894 61.6308 28.7894 61.3234C28.7894 61.2209 28.7894 61.1185 28.6868 61.0672C28.3276 60.9135 27.9684 60.8623 27.6604 61.016C27.5578 61.0672 27.4552 61.1185 27.4039 61.2209C26.9933 61.7845 26.9933 62.7066 27.4039 63.2702C27.6091 63.4751 27.8657 63.6288 28.1223 63.6288C28.3276 63.6288 28.5842 63.5263 28.7381 63.3726C28.7894 63.3214 28.8408 63.2702 28.8408 63.1677C28.7894 62.9115 28.7894 62.6042 28.7894 62.2455Z" fill="white"/>
<path d="M28.1223 71.2108C28.1223 70.1349 28.1223 69.1103 28.1223 68.0344C28.1223 67.9832 28.1223 67.8807 28.1223 67.8295C28.1223 67.727 28.1736 67.7271 28.2763 67.7271C28.3276 67.7271 28.3789 67.7271 28.4302 67.7271C29.8671 67.7271 31.3554 67.7271 32.7923 67.7271C32.8436 67.7271 32.8949 67.7271 32.9462 67.7271C33.0489 67.7271 33.1002 67.7783 33.1002 67.8807C33.1002 68.2906 33.1002 68.6492 33.1002 69.0591C33.1002 69.1615 33.0489 69.2128 32.9975 69.2128C32.9462 69.2128 32.8436 69.2128 32.7923 69.2128C31.9712 69.2128 31.2014 69.2128 30.3803 69.2128C30.329 69.2128 30.2264 69.2128 30.175 69.2128C30.1237 69.2128 30.0724 69.264 30.0724 69.3152C30.0724 69.6738 30.0724 70.0837 30.0724 70.4423C30.0724 70.4935 30.1237 70.5447 30.175 70.5447C30.2264 70.5447 30.329 70.5447 30.3803 70.5447C31.2014 70.5447 32.0225 70.5447 32.8949 70.5447C33.1515 70.5447 33.1002 70.5447 33.1002 70.8009C33.1002 71.1595 33.1002 71.4669 33.1002 71.8255C33.1002 72.0304 33.1002 72.0304 32.8949 72.0304C32.1251 72.0304 31.304 72.0304 30.5343 72.0304C30.3803 72.0304 30.2777 72.0304 30.1237 72.0304C30.1237 72.1841 30.0724 72.3378 30.0724 72.4915C30.0724 73.2088 30.0724 73.926 30.0724 74.6432C30.0724 74.8994 30.0724 74.8994 29.8158 74.8994C29.3539 74.8994 28.8921 74.8994 28.4302 74.8994C28.1223 74.8994 28.1736 74.9506 28.1736 74.6432C28.1223 73.4137 28.1223 72.2866 28.1223 71.2108Z" fill="white"/>
<path d="M67.1754 72.1331C67.3806 71.672 67.5859 71.2622 67.7399 70.8523C67.8425 70.5962 67.9451 70.34 68.0478 70.0839C68.0991 69.9814 68.1504 69.9302 68.253 69.9302C68.7149 69.9302 69.1254 69.9302 69.5873 69.9302C69.7926 69.9302 69.8439 69.9814 69.7413 70.1863C69.6386 70.4937 69.4847 70.7499 69.382 71.0573C69.1254 71.5696 68.8689 72.1331 68.6636 72.6454C68.3557 73.3626 68.0478 74.0799 67.6885 74.7971C67.5859 75.0533 67.432 75.3607 67.278 75.6168C67.124 75.9754 66.9701 76.2828 66.8161 76.6414C66.7648 76.6927 66.7648 76.7951 66.7135 76.8463C66.6622 76.9488 66.6109 76.9488 66.5082 76.9488C66.0464 76.9488 65.5332 76.9488 65.0713 76.9488C64.9687 76.9488 64.9174 76.8976 64.9174 76.7951C64.9687 76.6414 65.02 76.539 65.0713 76.3853C65.3279 75.8217 65.5845 75.2582 65.8411 74.6946C65.9437 74.4897 66.0464 74.2848 66.149 74.0286C66.2003 73.9262 66.2003 73.8237 66.149 73.67C65.995 73.3626 65.8411 73.0553 65.6871 72.7479C65.3279 72.0306 64.9687 71.2622 64.6608 70.5449C64.6095 70.3913 64.5068 70.2376 64.4555 70.0839C64.4042 69.9302 64.4042 69.9302 64.5581 69.9302C65.0713 69.9302 65.5332 69.9302 66.0464 69.9302C66.149 69.9302 66.2003 69.9814 66.2003 70.0326C66.4056 70.4937 66.5595 71.006 66.7648 71.4671C67.0214 71.672 67.124 71.877 67.1754 72.1331Z" fill="white"/>
<path d="M66.2003 62.2455C66.2003 62.7066 66.2003 63.0652 66.2003 63.4238C66.2003 63.6287 66.303 63.68 66.4569 63.5775C66.5596 63.5263 66.6622 63.4238 66.7648 63.3726C66.8675 63.3213 66.9188 63.3213 66.9701 63.475C66.9701 63.7312 66.9701 63.9361 66.9701 64.1923C66.9701 64.2947 66.9188 64.3972 66.8161 64.4484C66.5082 64.6021 66.2003 64.7046 65.8411 64.7558C65.5845 64.807 65.3792 64.807 65.1227 64.7558C64.9174 64.7046 64.7634 64.6534 64.6608 64.4484C64.6095 64.346 64.5582 64.346 64.4555 64.3972C64.0963 64.6021 63.6857 64.7046 63.2752 64.7558C62.8133 64.807 62.4028 64.6533 62.0436 64.2947C61.7357 63.9873 61.6843 63.6287 61.7357 63.2189C61.787 62.7066 62.1462 62.4504 62.5054 62.2455C62.9673 61.9893 63.4292 61.8869 63.9423 61.682C64.045 61.6307 64.1476 61.6307 64.3016 61.5795C64.5582 61.477 64.5582 61.477 64.4555 61.2721C64.3529 61.0672 64.2502 61.016 64.045 60.9647C63.5318 60.8623 63.0699 61.0672 62.6081 61.3233C62.4541 61.4258 62.3002 61.5283 62.1462 61.6307C62.0436 61.682 61.9923 61.682 61.9923 61.5283C61.9923 61.1696 61.9923 60.811 61.9923 60.4524C61.9923 60.2987 62.0949 60.2475 62.1975 60.1963C62.5054 60.0426 62.8133 59.9401 63.1212 59.8376C63.4805 59.7352 63.8397 59.684 64.1989 59.7352C64.6608 59.7864 65.1227 59.8376 65.5332 60.0426C65.8411 60.2475 66.0464 60.5037 66.0977 60.8623C66.2517 61.3746 66.149 61.8869 66.2003 62.2455ZM64.5582 62.5529C64.3529 62.6553 64.1476 62.7066 63.9423 62.809C63.891 62.8603 63.7884 62.8603 63.7371 62.9115C63.6344 63.014 63.5318 63.1164 63.4805 63.2189C63.3265 63.5263 63.5318 63.7824 63.8397 63.7824C64.0963 63.7824 64.3016 63.68 64.4555 63.5263C64.5068 63.475 64.5582 63.4238 64.5582 63.3726C64.5582 63.0652 64.5582 62.809 64.5582 62.5529Z" fill="white"/>
<path d="M35.5634 62.2454C35.5634 62.604 35.5634 62.9626 35.5634 63.3213C35.5634 63.3725 35.5634 63.4237 35.5634 63.5262C35.6147 63.6799 35.7174 63.7311 35.82 63.6799C35.9226 63.6286 36.0253 63.5774 36.1279 63.5262C36.2819 63.4237 36.3332 63.4237 36.3332 63.6286C36.3332 63.7823 36.3332 63.8848 36.3332 64.0385C36.3332 64.4996 36.3332 64.4996 35.9226 64.7045C35.7174 64.807 35.4608 64.8582 35.2555 64.9094C35.2042 64.9094 35.1529 64.9094 35.1015 64.9094C34.691 65.0119 34.3831 64.9094 34.1265 64.602C34.0752 64.5508 34.0239 64.4996 33.9212 64.5508C33.716 64.6533 33.5107 64.7557 33.3054 64.807C32.9462 64.9094 32.5356 64.9606 32.1764 64.8582C31.7659 64.7557 31.458 64.4996 31.304 64.0897C31.2527 63.936 31.2527 63.7823 31.2527 63.6286C31.2527 63.4237 31.2527 63.2188 31.3553 63.0139C31.5093 62.7065 31.7145 62.5528 32.0225 62.3991C32.4843 62.1429 32.9975 61.9893 33.5107 61.8356C33.6646 61.7843 33.7673 61.7331 33.9212 61.7331C34.0239 61.6819 34.0752 61.6306 34.0239 61.5282C33.9725 61.3233 33.8186 61.1696 33.6133 61.1183C33.408 61.0671 33.1515 61.1183 32.9462 61.1696C32.5356 61.272 32.1764 61.4769 31.8172 61.7843L31.7659 61.8356C31.6632 61.8868 31.6119 61.8356 31.6119 61.7331C31.6119 61.3745 31.6119 60.9646 31.6119 60.606C31.6119 60.5548 31.6119 60.5036 31.7145 60.4523C32.0225 60.2474 32.3817 60.1449 32.6896 60.0425C33.1001 59.94 33.4594 59.8888 33.8699 59.94C34.3318 59.9913 34.7936 60.0425 35.1529 60.2986C35.5121 60.5548 35.7174 60.9134 35.7174 61.3233C35.6147 61.5282 35.5634 61.8868 35.5634 62.2454ZM33.9212 62.5016C33.6133 62.6553 33.3054 62.8089 33.0488 62.9626C32.8949 63.0651 32.8435 63.27 32.8435 63.4237C32.8435 63.5774 32.9975 63.6799 33.1515 63.7311C33.4594 63.7823 33.6646 63.6286 33.9212 63.475C33.9212 63.475 33.9725 63.4237 33.9725 63.3725C33.9212 63.1163 33.9212 62.8089 33.9212 62.5016Z" fill="white"/>
<path d="M145.179 62.1943C145.179 62.5017 145.179 62.8603 145.179 63.1677C145.179 63.2189 145.179 63.2701 145.179 63.3726C145.179 63.6287 145.333 63.68 145.538 63.5775C145.641 63.5263 145.692 63.475 145.743 63.4238C145.846 63.3726 145.949 63.4238 145.949 63.5775C145.949 63.7312 145.949 63.9361 145.949 64.0898C146 64.346 145.846 64.4997 145.641 64.5509C145.384 64.6533 145.179 64.7046 144.922 64.7558C144.666 64.807 144.409 64.8583 144.153 64.7558C143.999 64.7046 143.896 64.6533 143.793 64.5509C143.588 64.346 143.588 64.346 143.331 64.4997C143.024 64.7046 142.664 64.7558 142.305 64.807C141.689 64.8583 141.227 64.6533 140.868 64.0898C140.817 64.0386 140.817 63.9873 140.817 63.9361C140.714 63.475 140.714 63.014 141.073 62.6041C141.176 62.4504 141.381 62.348 141.535 62.2967C141.997 62.0406 142.51 61.9381 142.972 61.7332C143.126 61.682 143.28 61.6307 143.383 61.6307C143.485 61.6307 143.485 61.5795 143.485 61.477C143.485 61.2721 143.229 61.0672 143.024 61.016C142.562 60.9135 142.151 61.0672 141.792 61.2721C141.587 61.3746 141.381 61.5283 141.176 61.682C141.125 61.7332 141.073 61.7332 141.022 61.7332L140.971 61.6307C140.971 61.2721 140.971 60.9135 140.971 60.5549C140.971 60.4524 140.971 60.4012 141.073 60.35C141.535 60.0938 141.997 59.8889 142.562 59.8889C142.767 59.8889 142.972 59.8376 143.177 59.8376C143.537 59.8376 143.896 59.8889 144.255 60.0426C144.563 60.145 144.82 60.35 144.974 60.6061C145.076 60.7598 145.076 60.9647 145.128 61.1696C145.179 61.477 145.179 61.8356 145.179 62.1943ZM143.537 62.5017C143.28 62.6041 143.075 62.7066 142.87 62.809C142.716 62.9115 142.562 62.9627 142.51 63.1677C142.408 63.4238 142.562 63.68 142.818 63.7312C143.024 63.7312 143.177 63.6287 143.383 63.5775C143.485 63.5263 143.537 63.475 143.537 63.3726C143.537 63.0652 143.537 62.809 143.537 62.5017Z" fill="white"/>
<path d="M86.1118 62.1941C86.1118 62.5527 86.1118 62.8601 86.1118 63.2187C86.1118 63.2699 86.1118 63.3212 86.1118 63.3724C86.1118 63.6286 86.2657 63.731 86.471 63.5773C86.5223 63.5261 86.625 63.4749 86.6763 63.4749C86.7789 63.4236 86.8816 63.4749 86.8816 63.5773C86.8816 63.8335 86.8816 64.0384 86.8816 64.2946C86.8816 64.397 86.8302 64.397 86.7789 64.4483C86.5223 64.6532 86.1631 64.7044 85.8552 64.8069C85.6499 64.8581 85.3933 64.9093 85.1367 64.8581C84.9315 64.8069 84.7775 64.7556 84.6236 64.602C84.5722 64.4995 84.4696 64.4995 84.367 64.5507C84.0591 64.7556 83.6485 64.8581 83.2893 64.9093C82.6735 64.9606 81.955 64.7044 81.7497 63.9872C81.5958 63.5261 81.6984 63.065 82.0063 62.7064C82.109 62.5527 82.3142 62.4503 82.4682 62.399C82.9301 62.1429 83.4432 62.0404 83.9051 61.8355C84.0591 61.7843 84.213 61.733 84.3157 61.733C84.4183 61.733 84.4183 61.6306 84.4183 61.5793C84.367 61.3744 84.213 61.2207 84.0077 61.1183C83.7512 61.067 83.5459 61.067 83.2893 61.1695C82.8787 61.2719 82.4682 61.4769 82.1603 61.7843L82.109 61.8355C82.0063 61.8867 81.955 61.8355 81.955 61.733C81.955 61.3744 81.955 60.9646 81.955 60.6059C81.955 60.5035 82.0063 60.4523 82.0577 60.4523C82.5195 60.1961 82.9814 60.0424 83.5459 59.9912C83.7512 59.9912 84.0077 59.9399 84.213 59.9399C84.6236 59.9912 85.0854 60.0424 85.4446 60.2473C85.8552 60.4522 86.0605 60.8109 86.1118 61.2719C86.1118 61.4256 86.1118 61.7843 86.1118 62.1941ZM84.4696 62.5015C84.1617 62.6552 83.8538 62.8089 83.5972 62.9626C83.3919 63.1163 83.238 63.3724 83.4432 63.5773C83.4946 63.6798 83.5972 63.731 83.6998 63.731C83.9051 63.7823 84.0591 63.6798 84.2643 63.5773C84.4183 63.4749 84.5209 63.4236 84.4696 63.2187C84.4183 63.0138 84.4696 62.8089 84.4696 62.5015Z" fill="white"/>
<path d="M37.9754 72.2866C37.9754 72.6453 37.9754 72.9526 37.9754 73.3113C37.9754 73.3625 37.9754 73.465 37.9754 73.5162C38.0267 73.6699 38.078 73.7211 38.232 73.6186C38.3346 73.5674 38.4373 73.5162 38.5399 73.4649C38.6939 73.4137 38.7452 73.4137 38.7452 73.5674C38.7452 73.7211 38.7452 73.8748 38.7452 73.9773C38.7452 74.3871 38.7452 74.3871 38.386 74.5408C37.9241 74.7457 37.5135 74.797 37.0004 74.797C36.7951 74.797 36.5898 74.6945 36.4872 74.4896C36.4359 74.3359 36.3332 74.3871 36.2819 74.4383C36.0253 74.592 35.7174 74.6945 35.4095 74.7457C34.8963 74.8482 34.3831 74.797 33.9213 74.4383C33.716 74.2334 33.5107 73.9773 33.5621 73.6699C33.5621 73.465 33.5621 73.26 33.6134 73.0551C33.6647 72.6965 33.9213 72.5428 34.1779 72.3379C34.5371 72.0817 34.999 71.928 35.4608 71.7743C35.6661 71.7231 35.9227 71.6719 36.128 71.5694C36.3332 71.5182 36.3332 71.4669 36.2306 71.3133C36.128 71.0571 35.9227 70.9546 35.6661 70.9034C35.2042 70.9034 34.845 71.0059 34.4345 71.262C34.2805 71.3645 34.1265 71.4669 33.9726 71.5694C33.9213 71.5694 33.87 71.6206 33.8186 71.6206C33.7673 71.6206 33.7673 71.5182 33.7673 71.5182C33.7673 71.1596 33.7673 70.8522 33.7673 70.4936C33.7673 70.3399 33.8186 70.2374 33.9726 70.1862C34.2805 70.0325 34.5884 69.93 34.9476 69.8276C35.4095 69.7251 35.9227 69.7251 36.4359 69.7763C36.7951 69.7763 37.2056 69.93 37.4622 70.1862C37.7701 70.4423 37.8728 70.7497 37.8728 71.1083C37.9754 71.5694 37.9754 71.928 37.9754 72.2866ZM36.3332 72.594C36.2306 72.6453 36.1793 72.6453 36.128 72.6453C35.8714 72.7477 35.5635 72.8502 35.4095 73.1063C35.2555 73.3113 35.2556 73.4649 35.3582 73.6186C35.4608 73.7723 35.6661 73.8236 35.8714 73.7723C36.0253 73.7211 36.1793 73.6699 36.2819 73.5674C36.3332 73.5162 36.3845 73.465 36.3845 73.4137C36.3332 73.1576 36.3332 72.8502 36.3332 72.594Z" fill="white"/>
<path d="M61.1198 72.2868C61.1198 72.6454 61.1198 72.9528 61.1198 73.3114C61.1198 73.3626 61.1198 73.4138 61.1198 73.5163C61.1712 73.7212 61.2225 73.7725 61.3764 73.67C61.4791 73.6188 61.633 73.5675 61.7357 73.5163C61.787 73.5163 61.8383 73.5163 61.8383 73.6188C61.8383 73.8749 61.8383 74.1311 61.8383 74.3872C61.8383 74.4384 61.787 74.4897 61.7357 74.5409C61.4791 74.6434 61.2225 74.7971 60.9659 74.8483C60.7606 74.8995 60.504 74.8995 60.2474 74.8995C59.9395 74.8995 59.7342 74.8483 59.5803 74.5409C59.529 74.4385 59.4777 74.4897 59.4263 74.5409C59.1698 74.6946 58.8618 74.7971 58.5539 74.8483C58.0408 74.9508 57.5276 74.8995 57.0657 74.5409C56.8604 74.336 56.7065 74.0798 56.7065 73.7724C56.7065 73.5675 56.7065 73.3626 56.7065 73.2089C56.7578 72.8503 57.0657 72.6454 57.3223 72.4404C57.7842 72.1331 58.2973 72.0306 58.7592 71.8257C58.9132 71.7744 59.0671 71.7232 59.1698 71.7232C59.375 71.672 59.4263 71.6208 59.3237 71.4158C59.2211 71.1597 59.0158 71.0572 58.7592 71.0572C58.2973 71.006 57.9381 71.1597 57.5276 71.4158C57.3736 71.5183 57.2197 71.6208 57.0657 71.7232C57.0144 71.7232 56.9631 71.7744 56.9118 71.7744C56.8604 71.7744 56.8604 71.7232 56.8604 71.672C56.8604 71.3134 56.8604 70.9548 56.8604 70.5961C56.8604 70.4424 56.9118 70.3912 57.0144 70.34C57.3223 70.1863 57.6815 70.0326 58.0408 69.9814C58.5026 69.8789 59.0158 69.8789 59.4777 69.9301C59.8369 69.9301 60.2474 70.0838 60.504 70.34C60.8119 70.5449 60.9146 70.9035 60.9146 71.2621C61.1712 71.5695 61.1198 71.9281 61.1198 72.2868ZM59.4777 73.1064C59.4777 73.004 59.4777 72.8503 59.4777 72.7478C59.4777 72.6454 59.4777 72.5941 59.375 72.6454C59.1697 72.7478 58.9132 72.8503 58.7079 72.9528C58.6053 73.004 58.5539 73.1064 58.4513 73.2089C58.4 73.3114 58.2973 73.4651 58.4 73.6188C58.5026 73.7724 58.6053 73.8749 58.7592 73.8749C59.0158 73.8749 59.1697 73.7212 59.375 73.6188C59.529 73.5163 59.4263 73.3626 59.4263 73.2601C59.529 73.1577 59.4777 73.1064 59.4777 73.1064Z" fill="white"/>
<path d="M131.682 72.2868C131.682 72.5941 131.682 72.9528 131.682 73.2601C131.682 73.3114 131.682 73.3626 131.682 73.4138C131.682 73.7212 131.785 73.7725 132.041 73.67C132.144 73.6188 132.195 73.5675 132.298 73.5163C132.401 73.4651 132.452 73.5163 132.452 73.6188C132.452 73.8749 132.452 74.0798 132.452 74.336C132.452 74.4385 132.401 74.4897 132.349 74.5409C131.836 74.7971 131.323 74.9508 130.758 74.8995C130.553 74.8995 130.297 74.8483 130.194 74.5921C130.143 74.4897 130.091 74.5409 130.04 74.5409C129.783 74.6946 129.476 74.7971 129.168 74.8483C128.603 74.9508 128.039 74.8995 127.628 74.4897C127.423 74.336 127.269 74.0798 127.32 73.8237C127.32 73.6188 127.32 73.4138 127.372 73.2089C127.423 72.8503 127.679 72.6454 127.987 72.4404C128.449 72.1331 128.962 72.0306 129.424 71.8257C129.578 71.7744 129.732 71.7232 129.886 71.7232C130.091 71.672 130.091 71.6208 130.04 71.4158C129.937 71.1084 129.732 71.0572 129.476 71.0572C128.911 71.0572 128.449 71.2621 128.039 71.5695C127.936 71.6208 127.885 71.7232 127.782 71.7744C127.679 71.8257 127.628 71.7744 127.628 71.672C127.628 71.3134 127.628 70.9548 127.628 70.5961C127.628 70.4424 127.731 70.3912 127.833 70.34C128.141 70.1863 128.501 70.0326 128.86 69.9814C129.322 69.8789 129.835 69.8789 130.297 69.9301C130.656 69.9301 131.015 70.0838 131.323 70.2887C131.631 70.4937 131.734 70.8523 131.734 71.2109C131.682 71.5695 131.682 71.9281 131.682 72.2868ZM130.04 73.0552C130.04 72.9528 130.04 72.7991 130.04 72.6966C130.04 72.6454 130.04 72.5941 129.937 72.5941C129.629 72.7478 129.27 72.7991 129.065 73.1064C128.911 73.3114 128.911 73.4651 129.014 73.6188C129.116 73.7724 129.322 73.8237 129.527 73.7724C129.629 73.7212 129.681 73.7212 129.783 73.67C129.989 73.5675 130.091 73.4651 130.04 73.2089C130.04 73.1577 130.04 73.1065 130.04 73.0552Z" fill="white"/>
<path d="M119.058 72.2353C119.058 72.594 119.058 72.9526 119.058 73.3112C119.058 73.3624 119.058 73.4136 119.058 73.5161C119.109 73.7723 119.212 73.7723 119.366 73.6698C119.469 73.6186 119.571 73.5673 119.674 73.5161C119.828 73.4649 119.879 73.4649 119.879 73.6186C119.879 73.8235 119.879 74.0796 119.879 74.2846C119.879 74.387 119.828 74.4383 119.725 74.5407C119.263 74.7969 118.75 74.9506 118.186 74.8993C117.929 74.8993 117.724 74.8481 117.57 74.592C117.518 74.4895 117.467 74.5407 117.416 74.5407C117.313 74.592 117.211 74.6944 117.057 74.6944C116.492 74.8993 115.928 75.0018 115.363 74.7456C115.055 74.592 114.85 74.387 114.696 74.0796C114.696 74.0284 114.645 74.0284 114.645 73.9772C114.645 73.721 114.645 73.4136 114.696 73.1575C114.747 72.7989 115.004 72.5939 115.312 72.4403C115.825 72.1329 116.441 71.928 117.005 71.7743H117.057C117.159 71.723 117.365 71.7743 117.365 71.5693C117.365 71.4156 117.211 71.1595 117.057 71.1083C116.851 71.0058 116.595 71.0058 116.389 71.057C115.979 71.1595 115.568 71.3132 115.26 71.5693C115.158 71.6718 115.004 71.7743 114.953 71.723C114.799 71.6718 114.901 71.5181 114.901 71.3644C114.901 71.1595 114.901 70.9033 114.901 70.6984C114.85 70.4423 115.004 70.3398 115.209 70.2373C115.774 69.9812 116.338 69.8275 116.954 69.8787C117.365 69.8787 117.826 69.9299 118.237 70.0324C118.801 70.2373 119.109 70.6984 119.109 71.2107C119.058 71.5693 119.058 71.8767 119.058 72.2353ZM117.416 73.055C117.416 72.9526 117.416 72.8501 117.416 72.7476C117.416 72.6452 117.416 72.594 117.313 72.6452C117.108 72.7476 116.851 72.8501 116.646 72.9526C116.543 73.0038 116.441 73.1575 116.389 73.26C116.287 73.3624 116.338 73.5161 116.389 73.6698C116.492 73.8235 116.595 73.926 116.749 73.8747C116.954 73.8235 117.159 73.7723 117.313 73.6186C117.416 73.5161 117.365 73.3624 117.365 73.2087C117.416 73.1063 117.416 73.1063 117.416 73.055Z" fill="white"/>
<path d="M78.4141 62.3991C78.4654 62.7577 78.4141 63.1163 78.2088 63.4749C78.0035 63.8848 77.6956 64.1922 77.2851 64.3971C76.9258 64.602 76.5153 64.7557 76.1047 64.7557C75.9508 64.7557 75.7968 64.8069 75.6429 64.8069C75.2323 64.7557 74.8731 64.7557 74.4626 64.5508C74.3086 64.4483 74.1033 64.3971 73.9494 64.2946C73.4875 63.8848 73.077 63.4237 73.0257 62.7577C72.9743 62.3478 72.9743 61.938 73.077 61.5281C73.1796 61.0158 73.4875 60.606 73.8981 60.2986C74.3086 60.0425 74.7192 59.8888 75.2323 59.7863C76.0534 59.6326 76.8232 59.8375 77.4903 60.2986C78.0548 60.7085 78.4141 61.272 78.3627 61.9892C78.4141 62.1429 78.4141 62.1942 78.4141 62.3991ZM75.7455 60.8622C75.4889 60.8109 75.2837 60.9646 75.0784 61.1695C74.9244 61.3745 74.8731 61.5794 74.8218 61.8355C74.7192 62.2966 74.7705 62.7577 74.9757 63.2188C75.1297 63.5262 75.3863 63.6798 75.6942 63.7311C76.0534 63.7823 76.31 63.6286 76.5153 63.3212C76.7206 62.9626 76.7719 62.5528 76.7719 62.1429C76.7719 61.8868 76.6692 61.6818 76.6179 61.4769C76.464 61.0671 76.1047 60.8109 75.7455 60.8622Z" fill="white"/>
<path d="M6.05552 62.2453C6.00421 61.8867 6.10684 61.4769 6.2608 61.1182C6.46607 60.7084 6.77398 60.4522 7.1332 60.2473C7.49243 60.0424 7.85166 59.9399 8.2622 59.8375C8.98066 59.735 9.64779 59.8375 10.2636 60.1961C10.7768 60.4522 11.136 60.8108 11.3413 61.3744C11.3926 61.5281 11.3926 61.6818 11.4439 61.7842C11.4439 61.8867 11.4952 62.0404 11.4952 62.1429C11.4952 62.1941 11.4952 62.2453 11.4952 62.3478C11.4439 62.6552 11.3926 62.9625 11.3413 63.2699C11.29 63.5773 11.0847 63.8335 10.8281 64.0384C10.5202 64.3458 10.161 64.5507 9.75043 64.7044C9.54516 64.7556 9.3912 64.8069 9.18593 64.8069C9.08329 64.8069 8.92934 64.8581 8.8267 64.8581C8.15957 64.8581 7.49243 64.7044 6.92793 64.2945C6.36343 63.8847 6.05552 63.3212 6.05552 62.5527C6.05552 62.4502 6.05552 62.399 6.05552 62.2453ZM9.75043 62.2965C9.75043 61.9892 9.69911 61.6818 9.54516 61.3744C9.3912 60.9133 8.92934 60.8108 8.51879 60.9133C8.2622 60.9645 8.10825 61.1182 8.00561 61.3232C7.85166 61.5793 7.80034 61.8867 7.74902 62.1941C7.74902 62.399 7.80034 62.6039 7.80034 62.8089C7.85166 63.2699 8.05693 63.5261 8.46748 63.6798C8.77538 63.8335 9.18593 63.6798 9.3912 63.3724C9.64779 63.065 9.69911 62.6552 9.75043 62.2965Z" fill="white"/>
<path d="M86.0092 72.4404C86.0605 72.7991 85.9578 73.2089 85.7526 73.5675C85.4447 74.1823 84.8802 74.5409 84.2643 74.7458C83.8538 74.8995 83.3919 74.8995 82.9301 74.8483C82.4169 74.7971 81.9037 74.6434 81.4932 74.2848C81.0826 73.9774 80.7747 73.5675 80.6721 73.0552C80.5694 72.5941 80.5694 72.0818 80.6721 71.6208C80.8773 70.8523 81.3905 70.4424 82.0577 70.1351C82.5195 69.9301 82.9814 69.9301 83.4433 69.8789C83.9051 69.8789 84.367 69.9814 84.7775 70.2375C85.1881 70.4425 85.5473 70.7498 85.8039 71.1597C85.9065 71.4158 86.0092 71.672 86.0092 71.9794C86.0092 72.0818 86.0092 72.2355 86.0092 72.4404ZM82.3656 72.338C82.3656 72.4405 82.3656 72.5429 82.3656 72.5941C82.4169 72.9528 82.4682 73.3114 82.7761 73.5675C83.238 73.9262 83.8538 73.7212 84.0077 73.3626C84.1104 73.1065 84.213 72.8503 84.2643 72.5941C84.3157 72.338 84.2643 72.0818 84.213 71.8257C84.213 71.672 84.1104 71.4671 84.0591 71.3134C83.9051 71.006 83.3919 70.8011 83.084 70.9035C82.7248 71.0572 82.5195 71.3134 82.4169 71.672C82.3656 71.9281 82.3656 72.1331 82.3656 72.338Z" fill="white"/>
<path d="M103.919 70.4423C104.176 70.1861 104.484 70.0324 104.792 69.93C105.459 69.725 106.331 69.9812 106.793 70.5447C106.947 70.8009 107.101 71.057 107.101 71.3644C107.101 72.4403 107.101 73.5161 107.101 74.592C107.101 74.7969 107.101 74.7969 106.896 74.7969C106.485 74.7969 106.075 74.7969 105.664 74.7969C105.459 74.7969 105.459 74.7969 105.459 74.592C105.459 73.6698 105.459 72.7477 105.459 71.8255C105.459 71.723 105.459 71.5693 105.407 71.4669C105.253 71.057 104.792 70.9546 104.432 71.2107C104.278 71.3132 104.176 71.4669 104.022 71.6206C103.919 71.723 103.919 71.8767 103.919 72.0304C103.919 72.8501 103.919 73.6698 103.919 74.5407C103.919 74.592 103.919 74.6944 103.919 74.7457C103.919 74.8481 103.868 74.8994 103.765 74.8994C103.303 74.8994 102.841 74.8994 102.38 74.8994C102.277 74.8994 102.226 74.8994 102.226 74.7969C102.226 74.7457 102.226 74.6944 102.226 74.592C102.226 73.1575 102.226 71.7743 102.226 70.3398C102.226 70.2886 102.226 70.2373 102.226 70.1349C102.226 70.0324 102.277 69.9812 102.328 70.0324C102.431 70.0324 102.585 70.0324 102.688 70.0324C102.995 70.0324 103.303 70.0324 103.611 70.0324C103.817 70.0324 103.817 70.0324 103.817 70.2373C103.919 70.2373 103.919 70.2886 103.919 70.4423Z" fill="white"/>
<path d="M99.6084 74.3359C99.4545 74.4383 99.3005 74.5408 99.1465 74.6432C98.6334 74.9506 98.0689 74.9506 97.5044 74.7969C96.9912 74.6433 96.632 74.2846 96.478 73.7723C96.4267 73.5674 96.3754 73.3625 96.3754 73.2088C96.3754 72.2354 96.3754 71.2108 96.3754 70.2374C96.3754 70.0325 96.3754 70.0325 96.5806 70.0325C96.9912 70.0325 97.4017 70.0325 97.8123 70.0325C97.9662 70.0325 98.0175 70.0325 98.0175 70.2374C98.0175 71.1083 98.0175 71.9792 98.0175 72.8502C98.0175 73.0039 98.0689 73.1576 98.0689 73.3113C98.1715 73.7723 98.6334 73.9772 99.0439 73.7211C99.4031 73.5162 99.5571 73.2088 99.5571 72.7989C99.5571 71.9792 99.5571 71.2108 99.5571 70.3911C99.5571 70.3399 99.5571 70.2374 99.5571 70.1862C99.5571 70.1349 99.6084 70.0837 99.6597 70.0837C100.122 70.0837 100.635 70.0837 101.097 70.0837C101.199 70.0837 101.199 70.1349 101.199 70.1862C101.199 70.2374 101.199 70.2886 101.199 70.3911C101.199 71.8255 101.199 73.2088 101.199 74.6432C101.199 74.6945 101.199 74.7457 101.199 74.8482C101.199 74.9506 101.148 75.0019 101.097 75.0019C100.635 75.0019 100.173 75.0019 99.711 75.0019C99.6084 75.0019 99.6084 74.9506 99.6084 74.8482C99.6084 74.5408 99.6084 74.4383 99.6084 74.3359Z" fill="white"/>
<path d="M136.865 60.3498C136.968 60.2986 137.071 60.2474 137.122 60.1961C137.584 59.8887 138.046 59.7351 138.61 59.8375C138.764 59.8888 138.969 59.8887 139.123 59.9912C139.688 60.2986 140.047 60.7597 140.047 61.4257C140.047 62.3991 140.047 63.4237 140.047 64.3971C140.047 64.4483 140.047 64.5508 140.047 64.602C140.047 64.7045 139.996 64.7045 139.893 64.7045C139.688 64.7045 139.534 64.7045 139.329 64.7045C139.072 64.7045 138.815 64.7045 138.559 64.7045C138.405 64.7045 138.405 64.6532 138.405 64.5508C138.405 64.1921 138.405 63.7823 138.405 63.4237C138.405 62.8601 138.405 62.2454 138.405 61.6818C138.405 61.272 138.251 61.0671 137.84 60.9646C137.789 60.9646 137.789 60.9646 137.738 60.9646C137.327 61.0671 137.071 61.3232 136.865 61.6818C136.814 61.7843 136.865 61.8355 136.865 61.938C136.865 62.7577 136.865 63.5261 136.865 64.3458C136.865 64.3971 136.865 64.4995 136.865 64.5508C136.865 64.6532 136.814 64.7045 136.711 64.7045C136.25 64.7045 135.788 64.7045 135.326 64.7045C135.223 64.7045 135.172 64.6532 135.223 64.602C135.223 64.5508 135.223 64.4995 135.223 64.3971C135.223 63.0138 135.223 61.6306 135.223 60.1961C135.223 60.1449 135.223 60.0937 135.223 59.9912C135.223 59.8887 135.275 59.8888 135.377 59.8888C135.582 59.8888 135.736 59.8888 135.942 59.8888C136.198 59.8888 136.455 59.8888 136.711 59.8888C136.865 59.8888 136.917 59.8375 136.917 60.0937C136.814 60.1449 136.865 60.2474 136.865 60.3498Z" fill="white"/>
<path d="M69.0742 60.3499C69.1768 60.2474 69.2795 60.1962 69.3821 60.145C69.4334 60.0937 69.4847 60.0425 69.5874 59.9913C69.9979 59.8376 70.4085 59.7863 70.819 59.8376C71.3322 59.8888 71.6914 60.2474 71.9993 60.606C72.1533 60.811 72.2046 61.0671 72.2046 61.3233C72.2046 62.3991 72.2046 63.4237 72.2046 64.4996C72.2046 64.7045 72.2046 64.7045 71.9993 64.7045C71.5888 64.7045 71.1782 64.7045 70.7677 64.7045C70.5624 64.7045 70.5624 64.7045 70.5624 64.4996C70.5624 63.8848 70.5624 63.3213 70.5624 62.7065C70.5624 62.3479 70.5624 62.0405 70.5624 61.6819C70.5624 61.3233 70.4085 61.1183 70.0492 61.0159C69.844 60.9646 69.6387 61.0159 69.4847 61.1696C69.3821 61.2208 69.2795 61.3233 69.2281 61.4257C69.1255 61.5794 69.0229 61.7331 69.0229 61.938C69.0229 62.7577 69.0229 63.5774 69.0229 64.3971C69.0229 64.4483 69.0229 64.5508 69.0229 64.602C69.0229 64.7045 68.9716 64.7557 68.9202 64.7045C68.4584 64.7045 67.9965 64.7045 67.5346 64.7045C67.432 64.7045 67.432 64.6533 67.432 64.5508C67.432 64.4996 67.432 64.4483 67.432 64.3971C67.432 63.0139 67.432 61.5794 67.432 60.1962C67.432 60.145 67.432 60.0937 67.432 60.0425C67.432 59.94 67.4833 59.8888 67.586 59.8888C68.0478 59.8888 68.4584 59.8888 68.9202 59.8888C69.0229 59.8888 69.0742 59.94 69.0742 60.0425C69.0229 60.145 69.0742 60.2474 69.0742 60.3499Z" fill="white"/>
<path d="M23.1958 62.6553C22.7339 62.6553 22.2207 62.6553 21.7589 62.6553C21.5536 62.6553 21.5536 62.7065 21.6049 62.8602C21.7589 63.3725 22.272 63.7312 22.7339 63.7312C23.2471 63.7312 23.709 63.6799 24.1195 63.4238C24.2221 63.3725 24.3248 63.2701 24.4274 63.2188C24.4787 63.1676 24.5814 63.1164 24.684 63.1164C24.7353 63.1164 24.7866 63.1164 24.7866 63.2188C24.7866 63.5262 24.7866 63.7824 24.7866 64.0898C24.7866 64.1922 24.684 64.2947 24.5814 64.3459C24.1195 64.6021 23.6576 64.807 23.0931 64.807C23.0418 64.807 22.9392 64.807 22.8879 64.807C22.7852 64.807 22.6826 64.8582 22.58 64.8582C22.272 64.807 22.0155 64.807 21.7075 64.7558C20.9891 64.6021 20.5272 64.1922 20.168 63.5775C20.014 63.3213 19.9114 63.0139 19.9114 62.7065C19.9114 62.6553 19.9114 62.5528 19.8601 62.5016C19.8601 62.4504 19.8088 62.3992 19.8088 62.3479C19.8601 62.0918 19.8601 61.7844 19.9627 61.5282C20.2193 60.811 20.6812 60.2987 21.3996 60.0425C21.7589 59.8888 22.1181 59.8376 22.5286 59.8888C23.1958 59.9401 23.8116 60.145 24.2735 60.7085C24.7866 61.2721 24.8893 61.9381 24.8893 62.6041C24.8893 62.7578 24.7866 62.7578 24.684 62.7578C24.1195 62.6553 23.6576 62.6553 23.1958 62.6553ZM21.5023 61.6819C22.0668 61.6819 22.58 61.6819 23.1445 61.6819C23.2984 61.6819 23.3497 61.6307 23.2984 61.477C23.2471 61.3233 23.1445 61.1696 22.9905 61.0671C22.7852 60.9135 22.58 60.8622 22.3234 60.9135C22.0668 60.9135 21.8102 61.0671 21.7075 61.2721C21.6562 61.3745 21.6049 61.5282 21.5023 61.6819Z" fill="white"/>
<path d="M99.0952 62.6552C98.6334 62.6552 98.1202 62.6552 97.6583 62.6552C97.4531 62.6552 97.453 62.6552 97.5044 62.8602C97.6583 63.4237 98.1715 63.7311 98.736 63.7311C98.9413 63.7311 99.1465 63.7311 99.3518 63.6799C99.711 63.6286 100.019 63.3725 100.378 63.2188C100.43 63.1675 100.481 63.1163 100.532 63.1163C100.635 63.1163 100.686 63.1163 100.686 63.2188C100.686 63.5262 100.686 63.7823 100.686 64.0897C100.686 64.1409 100.635 64.1922 100.583 64.2434C100.122 64.602 99.6084 64.7557 99.0439 64.8069C98.89 64.8069 98.736 64.8582 98.5821 64.8582C98.2228 64.8582 97.8636 64.8069 97.5044 64.7045C96.7859 64.4995 96.2727 64.0897 95.9648 63.4749C95.8109 63.2188 95.7596 62.9114 95.7596 62.604C95.7596 62.2454 95.7082 61.8868 95.8622 61.5282C96.2214 60.606 96.8372 60.0425 97.8123 59.8888C98.4281 59.7863 99.0439 59.8888 99.5571 60.1961C100.122 60.5035 100.481 60.9646 100.635 61.6306C100.737 61.938 100.686 62.2454 100.686 62.604C100.686 62.7065 100.635 62.7577 100.532 62.7577C100.173 62.7577 99.8137 62.7577 99.4545 62.7577C99.3518 62.6552 99.2492 62.6552 99.0952 62.6552ZM98.3768 61.6818C98.6334 61.6818 98.89 61.6818 99.1465 61.6818C99.2492 61.6818 99.3005 61.6818 99.2492 61.5282C99.0952 61.1183 98.7873 60.8622 98.3768 60.8622C97.9662 60.8622 97.6583 61.0671 97.5557 61.4769C97.5044 61.6306 97.5557 61.6306 97.6583 61.6306C97.9149 61.6818 98.1715 61.6818 98.3768 61.6818Z" fill="white"/>
<path d="M116.389 62.6553C115.876 62.6553 115.414 62.6553 114.901 62.6553C114.747 62.6553 114.747 62.6553 114.799 62.8602C114.953 63.475 115.466 63.7824 116.03 63.7824C116.236 63.7824 116.441 63.7824 116.646 63.7312C117.005 63.6799 117.262 63.475 117.57 63.3213C117.621 63.2701 117.672 63.2188 117.775 63.1676C117.929 63.1164 117.98 63.1676 118.032 63.3213C118.032 63.5262 118.032 63.7824 118.032 63.9873C118.032 64.141 117.98 64.2435 117.878 64.2947C117.467 64.5508 117.005 64.7558 116.543 64.7558C116.389 64.7558 116.287 64.807 116.133 64.807C115.979 64.807 115.876 64.807 115.722 64.807C115.466 64.7558 115.26 64.7045 115.004 64.7045C114.542 64.6533 114.183 64.3972 113.875 64.141C113.567 63.8848 113.362 63.5775 113.259 63.2188C113.208 63.1164 113.156 62.9627 113.156 62.8602C113.105 62.143 113.105 61.477 113.516 60.8622C113.926 60.2987 114.439 59.8888 115.158 59.8376C115.363 59.8376 115.568 59.7864 115.774 59.7864C116.236 59.7864 116.646 59.8888 117.057 60.145C117.57 60.5036 117.929 60.9647 118.083 61.5795C118.134 61.8868 118.134 62.1942 118.134 62.5016C118.134 62.6041 118.083 62.6553 117.98 62.6553C117.57 62.6553 117.108 62.6553 116.697 62.6553C116.543 62.6553 116.441 62.6553 116.389 62.6553ZM116.543 61.6819C116.441 61.3233 116.338 61.0672 115.979 60.9135C115.825 60.8622 115.722 60.8622 115.568 60.8622C115.209 60.8622 114.901 61.1184 114.799 61.477C114.799 61.5795 114.799 61.6307 114.953 61.6307C115.466 61.6819 116.03 61.6819 116.543 61.6819Z" fill="white"/>
<path d="M22.6826 72.6453C22.1694 72.6453 21.7076 72.6453 21.1944 72.6453C21.0404 72.6453 21.0917 72.6966 21.0917 72.799C21.1944 73.2089 21.3996 73.5163 21.8102 73.67C22.2207 73.8236 22.6313 73.8236 23.0931 73.7212C23.4524 73.6187 23.709 73.4138 24.0169 73.2601C24.0682 73.2089 24.1195 73.2089 24.1708 73.1576C24.2221 73.1576 24.3248 73.1576 24.3248 73.2601C24.3248 73.5675 24.3248 73.8236 24.3248 74.131C24.3248 74.1823 24.2735 74.2335 24.2735 74.2335C23.8629 74.5409 23.4524 74.7458 22.8879 74.797C22.6313 74.8483 22.3234 74.8483 22.0668 74.8483C21.6049 74.8483 21.1431 74.797 20.7325 74.5921C20.0141 74.2335 19.5009 73.7212 19.3982 72.8503C19.3982 72.6453 19.3469 72.4404 19.3469 72.2355C19.3469 71.5695 19.5522 71.0059 20.0141 70.5449C20.4759 70.0838 21.0404 69.8276 21.7076 69.8276C22.1181 69.8276 22.4773 69.8276 22.8366 69.9813C23.4524 70.2375 23.9142 70.6473 24.1708 71.2621C24.3248 71.6207 24.3761 72.0306 24.3761 72.4404C24.3761 72.5941 24.3248 72.5941 24.1708 72.5941C23.709 72.6453 23.1958 72.6453 22.6826 72.6453ZM21.9641 71.7744C22.2207 71.7744 22.426 71.7744 22.6826 71.7744C22.8366 71.7744 22.8879 71.7232 22.8366 71.5695C22.7339 71.2109 22.3747 70.9035 21.9641 70.9035C21.5536 70.9035 21.1944 71.2109 21.0917 71.6207C21.0917 71.7232 21.0917 71.7744 21.1944 71.7744C21.451 71.7744 21.7076 71.7744 21.9641 71.7744Z" fill="white"/>
<path d="M55.2183 60.7597C55.2183 60.9134 55.2183 61.0671 55.2183 61.2208C55.2183 61.3233 55.1669 61.3745 55.0643 61.3233C54.8077 61.2208 54.6024 61.1183 54.3458 61.0159C54.0893 60.9134 53.7813 60.8622 53.4734 60.8622C53.3708 60.8622 53.3195 60.9134 53.2168 60.9134C53.0629 60.9646 53.0629 61.1183 53.2168 61.2208C53.3708 61.3233 53.5761 61.4257 53.73 61.477C54.0893 61.6306 54.4485 61.7843 54.8077 61.9893C55.3209 62.3479 55.5262 62.9114 55.4235 63.5774C55.2696 64.2434 54.9103 64.5508 54.2945 64.6533C53.9866 64.7045 53.6787 64.807 53.4221 64.7557C52.9089 64.7045 52.3958 64.6533 51.9339 64.4483C51.7799 64.3971 51.7286 64.2947 51.7286 64.141C51.7286 63.8848 51.7286 63.5774 51.7286 63.3213C51.7286 63.1676 51.7799 63.1163 51.9339 63.1676C52.0878 63.2188 52.1905 63.27 52.3444 63.3213C52.5497 63.4237 52.8063 63.475 53.0116 63.5262C53.2168 63.5774 53.4221 63.6287 53.5761 63.5262H53.6274C53.73 63.475 53.884 63.4237 53.884 63.3213C53.9353 63.2188 53.7813 63.1676 53.6787 63.1163C53.5248 63.0139 53.4221 62.9627 53.2682 62.9114C52.8063 62.7577 52.3958 62.5528 51.9852 62.2454C51.8313 62.143 51.7286 61.9893 51.6773 61.8356C51.472 61.1696 51.5747 60.4011 52.3958 60.0425C52.9603 59.7863 53.5248 59.6839 54.0893 59.7863C54.3972 59.8376 54.6538 59.8888 54.9617 59.9913C55.1669 60.0425 55.1669 60.0937 55.1669 60.2986C55.2183 60.5036 55.2183 60.606 55.2183 60.7597Z" fill="white"/>
<path d="M111.052 72.2866C111.052 71.928 111.052 71.5694 111.052 71.2107C111.052 71.1083 111.001 71.057 110.898 71.057C110.796 71.057 110.744 71.057 110.642 71.057C110.539 71.057 110.385 71.1083 110.385 71.0058C110.334 70.8521 110.334 70.7497 110.437 70.596C110.796 70.2374 111.104 69.8275 111.463 69.4689C111.668 69.2127 111.925 68.9566 112.13 68.7004C112.233 68.5467 112.335 68.4443 112.541 68.4955C112.643 68.4955 112.643 68.5467 112.643 68.6492C112.643 68.9054 112.643 69.2127 112.643 69.4689C112.643 69.6226 112.643 69.7763 112.643 69.93C112.797 69.93 112.951 69.9812 113.105 69.9812C113.464 69.9812 113.772 69.9812 114.131 69.9812C114.285 69.9812 114.285 70.0324 114.285 70.1349C114.285 70.391 114.285 70.6472 114.285 70.9034C114.285 71.1083 114.285 71.1083 114.08 71.1083C113.67 71.1083 113.259 71.1083 112.848 71.1083C112.489 71.1083 112.541 71.057 112.541 71.4157C112.541 71.928 112.541 72.4403 112.541 72.9526C112.541 73.1575 112.592 73.26 112.695 73.4137C112.746 73.5161 112.9 73.6186 113.002 73.6186C113.31 73.6186 113.618 73.6186 113.875 73.4649C113.875 73.4649 113.926 73.4649 113.977 73.4137C114.183 73.3112 114.234 73.3624 114.234 73.5674C114.234 73.8235 114.234 74.1309 114.234 74.3871C114.234 74.5407 114.183 74.592 114.029 74.6432C113.516 74.8481 113.002 74.8994 112.489 74.8481C112.027 74.7969 111.566 74.6944 111.258 74.2846C111.155 74.1821 111.052 74.0284 111.001 73.8747C110.898 73.6186 110.847 73.4137 110.847 73.1575C111.052 72.8501 111.052 72.594 111.052 72.2866Z" fill="white"/>
<path d="M131.631 60.7598C131.631 60.9135 131.631 61.0672 131.631 61.2209C131.631 61.3233 131.58 61.3746 131.477 61.3746C131.426 61.3746 131.374 61.3233 131.323 61.3233C131.015 61.1696 130.707 61.1184 130.348 61.0672C130.04 61.0672 129.732 61.1696 129.476 61.3233C129.219 61.477 129.116 61.7332 129.065 62.0406C128.962 62.809 129.322 63.4238 130.091 63.5775C130.348 63.6287 130.605 63.5775 130.861 63.5262C131.066 63.475 131.323 63.3726 131.528 63.3213C131.682 63.2701 131.734 63.2701 131.734 63.4238C131.734 63.7312 131.734 64.0386 131.734 64.3459C131.734 64.4996 131.682 64.5509 131.58 64.6021C131.272 64.7046 130.964 64.807 130.605 64.807C130.451 64.807 130.297 64.8583 130.143 64.8583C129.783 64.8583 129.373 64.807 129.014 64.7046C128.193 64.4484 127.628 63.9873 127.372 63.1676C127.218 62.7578 127.218 62.2967 127.32 61.8356C127.372 61.6307 127.423 61.4258 127.474 61.2721C127.833 60.5036 128.449 60.0425 129.27 59.8889C129.629 59.8376 129.989 59.7864 130.399 59.8376C130.759 59.9401 131.169 59.9913 131.528 60.0938C131.631 60.145 131.631 60.145 131.631 60.2475C131.58 60.4012 131.631 60.5549 131.631 60.7598Z" fill="white"/>
<path d="M16.4218 60.7597C16.4218 60.9134 16.4218 61.067 16.4218 61.2207C16.4218 61.3232 16.3705 61.3744 16.2678 61.3744C16.2165 61.3744 16.1139 61.3232 16.0626 61.272C15.7546 61.1183 15.4467 61.0158 15.0875 61.067C14.4204 61.1695 14.0611 61.3232 13.8559 62.0404C13.7532 62.5015 13.9072 63.1163 14.4204 63.3724C14.6256 63.4749 14.8822 63.5261 15.0875 63.5774C15.2415 63.5774 15.4467 63.5261 15.6007 63.4749C15.8573 63.4237 16.1139 63.3212 16.3191 63.2187C16.4731 63.1675 16.4731 63.1675 16.4731 63.3212C16.4731 63.6798 16.4731 63.9872 16.4731 64.3458C16.4731 64.4483 16.4218 64.4483 16.3191 64.4995C15.9599 64.602 15.6007 64.7044 15.2415 64.7557C15.0875 64.7557 14.8822 64.8069 14.7283 64.8069C14.3177 64.7557 13.8559 64.7557 13.4966 64.5507C12.9835 64.3458 12.5729 64.0384 12.3163 63.5261C12.1111 63.1163 12.0084 62.7064 12.0084 62.2454C12.0084 61.7331 12.1111 61.2207 12.4703 60.8109C12.7782 60.4523 13.1374 60.1449 13.5993 59.9912C14.0611 59.8375 14.523 59.735 14.9849 59.7863C15.4467 59.8375 15.9086 59.8887 16.3191 60.0937C16.4218 60.1449 16.4218 60.1449 16.4218 60.2474C16.4218 60.401 16.4218 60.5547 16.4218 60.7597Z" fill="white"/>
<path d="M51.5747 71.211C51.5747 70.1351 51.5747 69.0593 51.5747 67.9834C51.5747 67.9322 51.5747 67.8297 51.5747 67.7785C51.5747 67.676 51.626 67.676 51.6773 67.676C51.8313 67.676 51.9852 67.676 52.1392 67.676C52.4471 67.676 52.7037 67.676 53.0116 67.676C53.1142 67.676 53.1656 67.7273 53.1656 67.8297C53.1656 67.8809 53.1656 67.9322 53.1656 68.0346C53.1656 70.1863 53.1656 72.338 53.1656 74.4897C53.1656 74.8483 53.2169 74.7971 52.8576 74.7971C52.4984 74.7971 52.0879 74.7971 51.7286 74.7971C51.5234 74.7971 51.5234 74.7971 51.5234 74.5922C51.5234 74.0799 51.5234 73.6188 51.5234 73.1065C51.5747 72.4917 51.5747 71.877 51.5747 71.211Z" fill="white"/>
<path d="M121.983 70.8523C122.188 70.6473 122.342 70.3912 122.548 70.1863C122.958 69.7764 123.625 69.7252 124.087 70.0326C124.138 70.0838 124.19 70.0838 124.241 70.135C124.395 70.2375 124.446 70.34 124.395 70.5449C124.292 70.9035 124.138 71.2621 124.036 71.672C123.984 71.7744 123.933 71.7744 123.882 71.7232C123.728 71.672 123.574 71.5695 123.42 71.5183C123.061 71.3133 122.599 71.467 122.445 71.8256C122.291 72.0818 122.137 72.3892 122.034 72.6453C121.983 72.6966 121.983 72.799 121.983 72.9015C121.983 73.465 121.983 74.0286 121.983 74.5921C121.983 74.797 121.983 74.797 121.778 74.797C121.367 74.797 121.008 74.797 120.598 74.797C120.29 74.797 120.341 74.797 120.341 74.5409C120.341 73.8237 120.341 73.1064 120.341 72.4404C120.341 71.672 120.341 70.9547 120.341 70.1863C120.341 69.9301 120.341 69.9813 120.598 69.9813C121.008 69.9813 121.419 69.9813 121.829 69.9813C121.932 69.9813 121.983 70.0326 121.983 70.135C121.983 70.3399 121.983 70.5961 121.983 70.8523Z" fill="white"/>
<path d="M80.9286 61.1695C80.9286 62.2453 80.9286 63.27 80.9286 64.3458C80.9286 64.397 80.9286 64.4995 80.9286 64.5507C80.9286 64.6532 80.8773 64.6532 80.7747 64.6532C80.5694 64.6532 80.3128 64.6532 80.1076 64.6532C79.851 64.6532 79.6457 64.6532 79.3891 64.6532C79.2865 64.6532 79.2351 64.602 79.2351 64.4995C79.2351 64.4483 79.2351 64.397 79.2351 64.2946C79.2351 62.1429 79.2351 60.0424 79.2351 57.8907C79.2351 57.5321 79.1838 57.5833 79.5431 57.5833C79.9023 57.5833 80.3128 57.5833 80.672 57.5833C80.826 57.5833 80.8773 57.5833 80.8773 57.7883C80.8773 58.403 80.8773 59.0178 80.8773 59.6838C80.9286 60.1961 80.9286 60.7084 80.9286 61.1695Z" fill="white"/>
<path d="M126.499 72.3891C126.499 73.1063 126.499 73.8235 126.499 74.5408C126.499 74.7969 126.499 74.7969 126.243 74.7969C125.832 74.7969 125.473 74.7969 125.062 74.7969C124.857 74.7969 124.857 74.7969 124.857 74.592C124.857 73.7723 124.857 72.9526 124.857 72.1329C124.857 71.4669 124.857 70.8009 124.857 70.1862C124.857 69.93 124.857 69.9812 125.114 69.9812C125.524 69.9812 125.935 69.9812 126.345 69.9812C126.55 69.9812 126.55 69.9812 126.55 70.1862C126.499 70.8522 126.499 71.6206 126.499 72.3891Z" fill="white"/>
<path d="M109.821 72.3891C109.821 73.1063 109.821 73.8235 109.821 74.5408C109.821 74.7969 109.821 74.7969 109.564 74.7969C109.154 74.7969 108.794 74.7969 108.384 74.7969C108.179 74.7969 108.179 74.7969 108.179 74.592C108.179 73.7723 108.179 72.9526 108.179 72.1329C108.179 71.4669 108.179 70.8009 108.179 70.1862C108.179 69.93 108.179 69.9812 108.435 69.9812C108.846 69.9812 109.256 69.9812 109.667 69.9812C109.872 69.9812 109.872 69.9812 109.872 70.1862C109.821 70.8522 109.821 71.6206 109.821 72.3891Z" fill="white"/>
<path d="M55.9881 72.3891C55.9881 73.1063 55.9881 73.8235 55.9881 74.592C55.9881 74.8481 55.9881 74.8481 55.7315 74.8481C55.3209 74.8481 54.9617 74.8481 54.5511 74.8481C54.2946 74.8481 54.2946 74.8481 54.2946 74.592C54.2946 73.5161 54.2946 72.4403 54.2946 71.3644C54.2946 70.9546 54.2946 70.5447 54.2946 70.1349C54.2946 70.0324 54.3459 69.9812 54.4485 69.9812C54.8591 69.9812 55.3209 69.9812 55.7315 69.9812C55.8854 69.9812 55.8854 69.9812 55.8854 70.1861C55.9881 70.8521 55.9881 71.6206 55.9881 72.3891Z" fill="white"/>
<path d="M48.8548 72.3378C48.8548 71.6206 48.8548 70.9033 48.8548 70.1349C48.8548 69.8787 48.8548 69.93 49.1114 69.93C49.5219 69.93 49.9325 69.93 50.343 69.93C50.4457 69.93 50.497 69.9812 50.497 70.0837C50.497 70.2374 50.497 70.391 50.497 70.4935C50.497 71.8255 50.497 73.1063 50.497 74.4383C50.497 74.4895 50.497 74.592 50.497 74.6432C50.497 74.7457 50.4457 74.7457 50.343 74.7457C50.1891 74.7457 49.9838 74.7457 49.8298 74.7457C49.5733 74.7457 49.3167 74.7457 49.0601 74.7457C48.8548 74.7457 48.8548 74.7457 48.8548 74.5407C48.8548 73.9772 48.8548 73.3624 48.8548 72.7989C48.8548 72.6964 48.8548 72.4915 48.8548 72.3378Z" fill="white"/>
<path d="M17.3455 62.2966C17.3455 61.5793 17.3455 60.8621 17.3455 60.1449C17.3455 59.9399 17.3455 59.9399 17.5508 59.9399C17.9613 59.9399 18.3206 59.9399 18.7311 59.9399C18.9877 59.9399 18.9877 59.9399 18.9877 60.1449C18.9877 61.0158 18.9877 61.8867 18.9877 62.7064C18.9877 63.2699 18.9877 63.8847 18.9877 64.4483C18.9877 64.7044 18.9877 64.6532 18.7311 64.6532C18.3206 64.6532 17.9613 64.6532 17.5508 64.6532C17.3455 64.6532 17.3455 64.6532 17.3455 64.4483C17.3455 63.731 17.3455 63.0138 17.3455 62.2966Z" fill="white"/>
<path d="M126.396 62.2966C126.396 63.0139 126.396 63.7311 126.396 64.4996C126.396 64.7045 126.396 64.7045 126.191 64.7045C125.781 64.7045 125.37 64.7045 124.96 64.7045C124.754 64.7045 124.754 64.7045 124.754 64.4996C124.754 63.9873 124.754 63.4237 124.754 62.9114C124.754 61.9893 124.754 61.0671 124.754 60.1962C124.754 59.94 124.754 59.94 125.011 59.94C125.37 59.94 125.781 59.94 126.14 59.94C126.448 59.94 126.448 59.8888 126.448 60.2474C126.396 60.9134 126.396 61.5794 126.396 62.2966Z" fill="white"/>
<path d="M132.452 62.2968C132.452 61.5795 132.452 60.8623 132.452 60.0938C132.452 59.8889 132.452 59.8889 132.657 59.8889C133.068 59.8889 133.427 59.8889 133.838 59.8889C134.094 59.8889 134.094 59.8889 134.094 60.0938C134.094 60.7598 134.094 61.4258 134.094 62.1431C134.094 62.9115 134.094 63.68 134.094 64.4485C134.094 64.7046 134.094 64.7046 133.838 64.7046C133.427 64.7046 133.068 64.7046 132.657 64.7046C132.401 64.7046 132.401 64.7046 132.401 64.4485C132.452 63.7312 132.452 63.014 132.452 62.2968Z" fill="white"/>
<path d="M70.1005 59.4277C69.69 59.4789 69.3308 59.274 68.9715 59.1715C68.8689 59.1203 68.7663 59.1203 68.6123 59.0691C68.407 59.0178 68.3044 59.0178 68.2018 59.2228C68.1504 59.3252 68.0478 59.3765 67.9452 59.3765C67.7912 59.3765 67.5859 59.3765 67.432 59.3765C67.3807 59.3765 67.3293 59.3765 67.3293 59.274C67.3293 58.9154 67.3807 58.5568 67.6886 58.3006C67.8938 58.0957 68.0991 57.8908 68.407 57.8908C68.7663 57.8395 69.1255 57.942 69.4847 58.0957C69.6387 58.1982 69.8439 58.2494 70.0492 58.3518C70.3058 58.4543 70.4598 58.4031 70.5624 58.1469C70.665 57.942 70.7677 57.8908 70.9216 57.8908C70.9729 57.8908 71.0243 57.8908 71.0756 57.8908C71.4348 57.8908 71.4348 57.8395 71.3835 58.2494C71.3322 58.6592 71.2295 59.0178 70.9216 59.274C70.6137 59.3765 70.3571 59.4277 70.1005 59.4277Z" fill="white"/>
<path d="M55.167 67.6248C55.6801 67.6248 56.0394 68.0346 56.0394 68.5469C56.0394 69.1105 55.6288 69.4178 55.1156 69.4178C54.6538 69.4178 54.1919 69.008 54.2432 68.4957C54.2432 68.0346 54.5511 67.6248 55.167 67.6248Z" fill="white"/>
<path d="M109 67.6248C109.513 67.6248 109.872 68.0346 109.872 68.5469C109.872 69.1105 109.462 69.4178 108.948 69.4178C108.486 69.4178 108.025 69.008 108.076 68.4957C108.076 68.0346 108.384 67.6248 109 67.6248Z" fill="white"/>
<path d="M126.55 68.4957C126.55 69.1104 126.14 69.4178 125.678 69.4178C125.113 69.4178 124.806 69.0592 124.754 68.5469C124.754 68.2908 124.857 68.0346 125.011 67.8809C125.216 67.676 125.421 67.6248 125.678 67.6248C126.191 67.6248 126.55 68.0346 126.55 68.4957Z" fill="white"/>
<path d="M133.324 59.3765C132.811 59.3765 132.401 59.0178 132.401 58.5055C132.401 58.0445 132.863 57.5322 133.324 57.5834C133.838 57.6346 134.197 57.9932 134.248 58.4543C134.248 59.0178 133.786 59.4277 133.324 59.3765Z" fill="white"/>
<path d="M18.1153 59.3765C17.5508 59.3765 17.2942 59.0691 17.2429 58.4031C17.2429 57.9421 17.6534 57.5322 18.1153 57.5834C18.5771 57.5834 19.039 57.8908 18.9877 58.5056C19.039 59.0179 18.6798 59.3765 18.1153 59.3765Z" fill="white"/>
<path d="M50.5483 68.4957C50.5996 68.9568 50.2404 69.4178 49.6759 69.4178C49.214 69.4178 48.7522 69.1104 48.8035 68.4957C48.8548 67.9834 49.1627 67.6248 49.6759 67.6248C50.1891 67.6248 50.5483 67.9834 50.5483 68.4957Z" fill="white"/>
<path d="M124.652 58.4544C124.549 57.8909 125.062 57.5835 125.524 57.5835C125.729 57.5835 125.986 57.6347 126.14 57.8397C126.294 58.0446 126.396 58.2495 126.396 58.5056C126.396 59.018 126.037 59.3766 125.473 59.3766C124.96 59.3766 124.652 59.018 124.652 58.4544Z" fill="white"/>
</g>
<defs>
<clipPath id="clip0_33_885">
<rect width="146" height="77" fill="white"/>
</clipPath>
</defs>
</svg>
