<svg width="96" height="75" viewBox="0 0 96 75" fill="none" xmlns="http://www.w3.org/2000/svg">
<path d="M49.5541 72.5291C49.278 72.9417 48.8984 73.2746 48.4532 73.4944C48.0081 73.7142 47.513 73.8133 47.0176 73.7817C46.5221 73.7501 46.0436 73.589 45.63 73.3145C45.2163 73.0399 44.882 72.6616 44.6605 72.2173L26.9913 36.8789L2.16603 20.2361C1.69301 19.9187 1.32654 19.4663 1.11439 18.9376C0.902235 18.409 0.854233 17.8287 0.976633 17.2724C1.09903 16.7161 1.38616 16.2096 1.8006 15.8188C2.21505 15.428 2.73758 15.1711 3.30012 15.0816L91.8048 1.03589C92.3505 0.948229 92.9099 1.02198 93.4142 1.24808C93.9186 1.47417 94.3459 1.84275 94.6435 2.30847C94.9411 2.77419 95.0961 3.31676 95.0895 3.86942C95.0828 4.42208 94.9147 4.96075 94.606 5.41916L49.5541 72.5291Z" stroke="white" stroke-linecap="round" stroke-linejoin="round"/>
<path d="M26.9913 36.8788L94.4075 1.99976" stroke="white" stroke-linecap="round" stroke-linejoin="round"/>
</svg>
