<?xml version="1.0" encoding="utf-8"?>
<!-- Generator: Adobe Illustrator 21.1.0, SVG Export Plug-In . SVG Version: 6.00 Build 0)  -->
<svg version="1.1" id="Layer_1" xmlns="http://www.w3.org/2000/svg" xmlns:xlink="http://www.w3.org/1999/xlink" x="0px" y="0px"
	 viewBox="0 0 140 140" style="enable-background:new 0 0 140 140;" xml:space="preserve">
<style type="text/css">
	.st0{fill:none;stroke:#FFFFFF;stroke-width:2;stroke-linecap:round;stroke-linejoin:round;stroke-miterlimit:23.3333;}
</style>
<g transform="matrix(5.833333333333333,0,0,5.833333333333333,0,0)">
	<path class="st0" d="M10,18.5l2.6,2.6c0.2,0.2,0.5,0.2,0.7,0c0.1-0.1,0.1-0.2,0.1-0.4v-7.3"/>
	<path class="st0" d="M13.5,7.5V3.2c0-0.3-0.2-0.5-0.5-0.5c-0.1,0-0.3,0.1-0.4,0.1L6.5,9H3c-0.8,0-1.5,0.7-1.5,1.5v3
		C1.5,14.3,2.2,15,3,15h2.5"/>
	<path class="st0" d="M16.5,12c0,1.4-1.1,2.5-2.5,2.5h-0.5"/>
	<path class="st0" d="M2.5,22l20-20"/>
</g>
</svg>
