<?xml version="1.0" encoding="utf-8"?>
<!-- Generator: Adobe Illustrator 21.1.0, SVG Export Plug-In . SVG Version: 6.00 Build 0)  -->
<svg version="1.1" id="Layer_1" xmlns="http://www.w3.org/2000/svg" xmlns:xlink="http://www.w3.org/1999/xlink" x="0px" y="0px"
	 viewBox="0 0 140 140" style="enable-background:new 0 0 140 140;" xml:space="preserve">
<style type="text/css">
	.st0{fill:none;stroke:#FFFFFF;stroke-width:2;stroke-linecap:round;stroke-linejoin:round;stroke-miterlimit:23.3333;}
</style>
<g transform="matrix(5.833333333333333,0,0,5.833333333333333,0,0)">
	<path class="st0" d="M8.8,9H5.3c-0.8,0-1.5,0.7-1.5,1.5v3c0,0.8,0.7,1.5,1.5,1.5h3.5l6.1,6.1c0.2,0.2,0.5,0.2,0.7,0
		c0.1-0.1,0.1-0.2,0.1-0.4V3.2c0-0.3-0.2-0.5-0.5-0.5c-0.1,0-0.3,0.1-0.4,0.1L8.8,9z"/>
	<path class="st0" d="M18.8,8.5c2.7,1.9,2.7,5.1,0,7"/>
</g>
</svg>
