<svg width="20" height="25" viewBox="0 0 20 25" fill="none" xmlns="http://www.w3.org/2000/svg">
<path d="M4.33333 12.668H16C16 12.668 19.3333 12.668 19.3333 16.6579V19.6504C19.3333 19.6504 19.3333 23.6404 16 23.6404H4.33333C4.33333 23.6404 1 23.6404 1 19.6504V16.6579C1 16.6579 1 12.668 4.33333 12.668Z" stroke="white" stroke-linecap="round" stroke-linejoin="round"/>
<path d="M3.5 1.19678L6 5.18674L6.00083 9.67743" stroke="white" stroke-linecap="round" stroke-linejoin="round"/>
<path d="M8.5 1.19678L6 5.18674L6.00083 9.67743" stroke="white" stroke-linecap="round" stroke-linejoin="round"/>
<path d="M11 8.17913C11 8.57596 10.8683 8.95653 10.6339 9.23713C10.3995 9.51773 10.0815 9.67537 9.75 9.67537C9.41848 9.67537 9.10054 9.51773 8.86612 9.23713C8.6317 8.95653 8.5 8.57596 8.5 8.17913V5.18666C8.5 4.78984 8.6317 4.40927 8.86612 4.12867C9.10054 3.84807 9.41848 3.69043 9.75 3.69043C10.0815 3.69043 10.3995 3.84807 10.6339 4.12867C10.8683 4.40927 11 4.78984 11 5.18666V8.17913Z" stroke="white" stroke-linecap="round" stroke-linejoin="round"/>
<path d="M16 3.69043V7.68039C16 8.20949 15.8244 8.71692 15.5119 9.09105C15.1993 9.46518 14.7754 9.67537 14.3334 9.67537C13.8913 9.67537 13.4674 9.46518 13.1548 9.09105C12.8423 8.71692 12.6667 8.20949 12.6667 7.68039V3.69043" stroke="white" stroke-linecap="round" stroke-linejoin="round"/>
<path d="M16 3.6875V9.67543" stroke="white" stroke-linecap="round" stroke-linejoin="round"/>
<path d="M9.33331 16.6548V20.6477" stroke="white" stroke-linecap="round" stroke-linejoin="round"/>
<path d="M3.48248 15.6604H6.85082" stroke="white" stroke-linecap="round" stroke-linejoin="round"/>
<path d="M5.16669 15.6604V20.6259" stroke="white" stroke-linecap="round" stroke-linejoin="round"/>
<path d="M11 14.6628V20.6258" stroke="white" stroke-linecap="round" stroke-linejoin="round"/>
<path d="M12.6667 19.6504C12.6667 19.915 12.5789 20.1687 12.4226 20.3558C12.2663 20.5428 12.0543 20.6479 11.8333 20.6479C11.6123 20.6479 11.4004 20.5428 11.2441 20.3558C11.0878 20.1687 11 19.915 11 19.6504V17.6554C11 17.3909 11.0878 17.1372 11.2441 16.9501C11.4004 16.7631 11.6123 16.658 11.8333 16.658C12.0543 16.658 12.2663 16.7631 12.4226 16.9501C12.5789 17.1372 12.6667 17.3909 12.6667 17.6554V19.6504Z" stroke="white" stroke-linecap="round" stroke-linejoin="round"/>
<path d="M7.66669 16.658V19.6504C7.66669 19.915 7.75448 20.1687 7.91076 20.3558C8.06705 20.5428 8.27901 20.6479 8.50002 20.6479C8.72103 20.6479 8.933 20.5428 9.08928 20.3558C9.24556 20.1687 9.33335 19.915 9.33335 19.6504V16.658" stroke="white" stroke-linecap="round" stroke-linejoin="round"/>
<path d="M16.1433 19.7751C16.1326 19.904 16.1006 20.029 16.0492 20.1429C15.9977 20.2568 15.9279 20.3573 15.8436 20.4385C15.7594 20.5198 15.6625 20.5801 15.5586 20.6161C15.4546 20.652 15.3458 20.6628 15.2383 20.6479C14.9997 20.6232 14.7766 20.496 14.6102 20.2897C14.4439 20.0835 14.3455 19.8121 14.3333 19.5257V17.6554C14.3333 17.3909 14.4211 17.1372 14.5774 16.9501C14.7337 16.7631 14.9456 16.658 15.1666 16.658C15.3877 16.658 15.5996 16.7631 15.7559 16.9501C15.9122 17.1372 16 17.3909 16 17.6554V18.6529H14.3333" stroke="white" stroke-linecap="round" stroke-linejoin="round"/>
</svg>
